<?xml version="1.0" standalone="no"?>
<!DOCTYPE svg PUBLIC "-//W3C//DTD SVG 1.1//EN" "http://www.w3.org/Graphics/SVG/1.1/DTD/svg11.dtd" >
<svg xmlns="http://www.w3.org/2000/svg" xmlns:xlink="http://www.w3.org/1999/xlink" version="1.1">
<metadata>
Created by FontForge 20170731 at Thu Dec  3 08:31:50 2020
 By Aleksey,,,
Copyright \(c\) 2014 by Fontfabric LLC. All rights reserved.
</metadata>
<defs>
<font id="GloberAdjusted-Light" horiz-adv-x="1122" >
  <font-face 
    font-family="GloberAdjusted Light"
    font-weight="300"
    font-stretch="normal"
    units-per-em="2048"
    panose-1="0 0 4 0 0 0 0 0 0 0"
    ascent="1536"
    descent="-512"
    x-height="1077"
    cap-height="1475"
    bbox="-309 -512.778 2064 2154"
    underline-thickness="102"
    underline-position="-307"
    unicode-range="U+0020-FB02"
  />
<missing-glyph horiz-adv-x="1265" 
d="M1178 1475v-1475h-1102v1475h1102zM588 410q7 0 13 1.5t9 2.5l2 2q0 70 17.5 125.5t45 92.5t61 69t67 63.5t61 67.5t45 89t17.5 119q0 52 -16.5 96t-50.5 80.5t-92 57t-134 20.5q-67 0 -129 -13t-90 -25l-29 -13q-4 -28 18 -41q10 5 28 11.5t77 18t121 11.5
q125 0 182 -57.5t57 -149.5q0 -60 -16.5 -107.5t-43.5 -79.5t-59 -61.5t-64.5 -62.5t-59.5 -72.5t-43.5 -100.5t-16.5 -138q9 -6 23 -6zM629 240q-12 4 -39 4l-39 -4v-70q12 -4 39 -4l39 4v70z" />
    <glyph glyph-name="fi" unicode="fi" horiz-adv-x="1128" 
d="M936 6q-8 -6 -33 -6q-11 0 -19.5 1.5t-11.5 2.5l-2 2v1010h-583v-1010q-8 -6 -33 -6q-11 0 -19.5 1.5t-10.5 2.5l-3 2v1010h-131q-6 8 -6 31q0 10 1.5 17.5t2.5 9.5l2 3h131v123q0 83 17 142t57 104.5t111 67.5t174 22q81 0 167.5 -14t132.5 -28l46 -13q3 -15 -2.5 -32
t-16.5 -26q-16 6 -45.5 14.5t-112.5 23t-159 14.5q-89 0 -148.5 -16t-93.5 -50.5t-47.5 -81.5t-13.5 -117v-133h616h33v-1071z" />
    <glyph glyph-name="fl" unicode="fl" horiz-adv-x="1132" 
d="M287 6q-8 -6 -33 -6q-11 0 -19.5 1.5t-10.5 2.5l-3 2v1010h-131q-6 8 -6 31q0 10 1.5 17.5t2.5 9.5l2 3h131v123q0 78 16.5 137t54.5 105t105 70t162 24q90 0 184.5 -17.5t143.5 -34.5l49 -18v-1460q-8 -6 -33 -6q-11 0 -19.5 1.5t-11.5 2.5l-2 2v1419q-148 50 -301 50
q-159 0 -220.5 -65t-61.5 -200v-133h274q6 -7 6 -30q0 -9 -1.5 -16.5t-3.5 -10.5l-1 -4h-274v-1010z" />
    <glyph glyph-name=".notdef" horiz-adv-x="1265" 
d="M1178 1475v-1475h-1102v1475h1102zM588 410q7 0 13 1.5t9 2.5l2 2q0 70 17.5 125.5t45 92.5t61 69t67 63.5t61 67.5t45 89t17.5 119q0 52 -16.5 96t-50.5 80.5t-92 57t-134 20.5q-67 0 -129 -13t-90 -25l-29 -13q-4 -28 18 -41q10 5 28 11.5t77 18t121 11.5
q125 0 182 -57.5t57 -149.5q0 -60 -16.5 -107.5t-43.5 -79.5t-59 -61.5t-64.5 -62.5t-59.5 -72.5t-43.5 -100.5t-16.5 -138q9 -6 23 -6zM629 240q-12 4 -39 4l-39 -4v-70q12 -4 39 -4l39 4v70z" />
    <glyph glyph-name=".null" horiz-adv-x="0" 
 />
    <glyph glyph-name="nonmarkingreturn" horiz-adv-x="682" 
 />
    <glyph glyph-name="space" unicode=" " horiz-adv-x="526" 
 />
    <glyph glyph-name="exclam" unicode="!" horiz-adv-x="487" 
d="M209 1468v3q7 4 35 4q38 -1 35 -7l-11 -1155q-6 -8 -24 -8q-9 0 -15 2t-8 4l-2 2zM289 6q-12 -6 -45 -6q-15 0 -26 1.5t-15 2.5l-4 2v86q12 6 45 6q15 0 26 -1.5t15 -2.5l4 -2v-86z" />
    <glyph glyph-name="quotedbl" unicode="&#x22;" horiz-adv-x="602" 
d="M160 1468q12 7 35 7q11 0 19.5 -1.5t11.5 -3.5l3 -2l-14 -391q-6 -4 -20 -4l-21 4zM373 1468q10 7 35 7q11 0 19.5 -1.5t11.5 -3.5l3 -2l-14 -391q-6 -4 -20 -4l-21 4z" />
    <glyph glyph-name="numbersign" unicode="#" horiz-adv-x="1333" 
d="M393 303l-82 -295q-10 -8 -35 -8q-10 0 -17.5 2t-10.5 4l-2 2l82 295h-224q-6 12 -6 31t6 31h242l150 530h-220q-6 12 -6 31q0 18 6 30h236l90 314q15 6 33 6q21 0 33 -6l-90 -314h364l90 314q15 6 33 6q21 0 33 -6l-90 -314h217q6 -12 6 -30q0 -16 -6 -31h-234
l-149 -530h211q6 -12 6 -31q0 -16 -6 -31h-230l-82 -295q-9 -8 -34 -8q-10 0 -18 2t-11 4l-2 2l82 295h-365zM776 365l150 530h-365l-149 -530h364z" />
    <glyph glyph-name="dollar" unicode="$" horiz-adv-x="1144" 
d="M604 1305q-198 0 -297.5 -74.5t-99.5 -208.5q0 -58 24.5 -104t50 -72t91.5 -52.5t96 -35.5t117 -30q106 -27 161 -45.5t129.5 -59t108 -105.5t33.5 -158q0 -155 -112 -249.5t-310 -104.5l12 -264q-10 -6 -39 -6q-14 0 -24 1.5t-13 2.5l-4 2l11 262q-108 0 -209 17
t-148 34l-47 17q-2 14 4.5 31t16.5 24q20 -6 55 -15t133 -24.5t186 -15.5q199 0 307.5 72t108.5 214q0 63 -22.5 111t-61.5 77.5t-91 53.5t-110.5 37.5t-120 30.5t-120 32.5t-110.5 42.5t-91 61t-61.5 89t-22.5 125q0 151 105.5 243.5t298.5 104.5l-11 244q12 6 39 6
q13 0 23 -1.5t14 -2.5l4 -2l-12 -242q99 0 186 -11t124 -23l38 -11q4 -37 -20 -55q-138 37 -320 37z" />
    <glyph glyph-name="percent" unicode="%" horiz-adv-x="1521" 
d="M406 -14q-15 -6 -44 -6q-10 0 -19 1.5t-13 2.5l-4 2l796 1446q12 6 41 6q12 0 22 -1.5t13 -2.5l4 -2zM375 707q-127 0 -193.5 84t-66.5 270q0 354 260 354q262 0 262 -354t-262 -354zM375 1354q-91 0 -140 -68t-49 -225q0 -158 48.5 -224.5t140.5 -66.5t140 66.5
t48 224.5q0 293 -188 293zM1147 -20q-127 0 -193.5 84t-66.5 270q0 354 260 354q262 0 262 -354t-262 -354zM1147 627q-91 0 -140 -68t-49 -225q0 -158 48.5 -224.5t140.5 -66.5t140 66.5t48 224.5q0 293 -188 293z" />
    <glyph glyph-name="ampersand" unicode="&#x26;" horiz-adv-x="1300" 
d="M666 1413q127 0 199.5 -72t72.5 -172q0 -63 -21.5 -118t-55.5 -98t-93.5 -87.5t-117.5 -78.5t-146 -80q133 -269 407 -467q116 134 166 325q46 0 66 -30q-44 -171 -182 -332q118 -79 270 -144q3 -40 -29 -61q-148 58 -289 156q-11 -13 -28.5 -29t-57 -43.5t-84.5 -48.5
t-112 -37t-139 -16q-76 0 -142 20.5t-120 60.5t-85.5 108.5t-31.5 156.5q0 66 23 126.5t55.5 103t77.5 81t80 59.5t71 39q-72 167 -72 318q0 169 82 264.5t236 95.5zM657 1352q-112 0 -175.5 -76t-63.5 -217q0 -149 61 -295q97 51 159 89t118.5 86.5t83 101.5t26.5 116
q0 90 -55 142.5t-154 52.5zM500 41q202 0 364 147q-137 102 -245 229.5t-175 262.5q-41 -21 -78.5 -48t-81 -70t-70 -103.5t-26.5 -128.5q0 -135 85.5 -212t226.5 -77z" />
    <glyph glyph-name="quotesingle" unicode="'" horiz-adv-x="389" 
d="M160 1468q10 7 35 7q11 0 19.5 -1.5t11.5 -3.5l3 -2l-14 -391q-6 -4 -20 -4l-21 4z" />
    <glyph glyph-name="parenleft" unicode="(" horiz-adv-x="579" 
d="M481 1653q7 -4 12.5 -10t6.5 -9l2 -4q-12 -16 -32 -45t-70.5 -127t-89.5 -204.5t-71 -269.5t-32 -329t30.5 -327t73.5 -273t86.5 -200t74.5 -131l30 -43q-5 -13 -21 -23q-7 -4 -14 -6t-11 -2h-3q-7 9 -18 25t-44 70t-63 113t-66.5 151t-62.5 186.5t-44 216t-18 243.5
t17.5 243t45.5 217.5t61.5 185t67 152.5t61.5 112t46 72l17 24q12 2 28 -8z" />
    <glyph glyph-name="parenright" unicode=")" horiz-adv-x="579" 
d="M373 655q0 121 -16.5 240t-42.5 212.5t-57 179t-62.5 146.5t-57.5 106.5t-43 68.5l-16 22q4 13 20 23q7 4 14.5 6t11.5 2h3q13 -17 34 -48t75.5 -134t96 -213t75.5 -277t34 -334q0 -122 -17.5 -243t-45 -217.5t-61 -185t-67.5 -152.5t-61.5 -111.5t-45.5 -71.5l-17 -24
q-13 -2 -29 8q-7 4 -12 10t-6 10l-2 3q12 16 32 45t70.5 127t89.5 204t71 269t32 329z" />
    <glyph glyph-name="asterisk" unicode="*" horiz-adv-x="722" 
d="M250 1016q-24 9 -43 28l112 160l-178 58q0 29 17 49l178 -58v183q8 4 26 4l25 -4v-183l178 58q17 -17 17 -49l-181 -58l115 -157q-22 -22 -41 -29l-115 153z" />
    <glyph glyph-name="plus" unicode="+" horiz-adv-x="954" 
d="M139 563q-6 8 -6 31q0 10 1.5 18t3.5 10l1 3h307v307q8 6 31 6q10 0 18 -1.5t11 -2.5l2 -2v-307h307q6 -8 6 -31q0 -10 -1.5 -18t-3.5 -10l-1 -3h-307v-307q-8 -6 -31 -6q-10 0 -18 1.5t-11 2.5l-2 2v307h-307z" />
    <glyph glyph-name="comma" unicode="," horiz-adv-x="421" 
d="M131 -168q6 6 16 18.5t29 56.5t23 93q-11 0 -20.5 1.5t-12.5 2.5l-4 2v86q16 6 49 6q15 0 27 -1.5t17 -2.5l5 -2v-65q0 -40 -10 -77.5t-24 -62t-28 -43.5t-24 -28l-10 -9z" />
    <glyph glyph-name="hyphen" unicode="-" horiz-adv-x="724" 
d="M178 563q-6 8 -6 31q0 10 1.5 18t2.5 10l2 3h369q6 -8 6 -31q0 -10 -1.5 -18t-3.5 -10l-1 -3h-369z" />
    <glyph glyph-name="period" unicode="." horiz-adv-x="405" 
d="M252 6q-16 -6 -49 -6q-15 0 -27 1.5t-17 2.5l-5 2v86q16 6 49 6q15 0 27 -1.5t17 -2.5l5 -2v-86z" />
    <glyph glyph-name="slash" unicode="/" horiz-adv-x="870" 
d="M745 1530q12 6 37 6q12 0 21.5 -1.5t12.5 -2.5l3 -2l-694 -1620q-14 -6 -41 -6q-10 0 -18.5 1.5t-11.5 2.5l-3 2z" />
    <glyph glyph-name="zero" unicode="0" horiz-adv-x="1271" 
d="M635 -20q-239 0 -359 171t-120 545q0 371 120.5 544t358.5 173q240 0 361.5 -171.5t121.5 -545.5q0 -373 -121.5 -544.5t-361.5 -171.5zM635 1352q-208 0 -308 -158.5t-100 -497.5q0 -338 100 -496.5t308 -158.5q212 0 312 158t100 497q0 340 -100 498t-312 158z" />
    <glyph glyph-name="one" unicode="1" horiz-adv-x="792" 
d="M84 1061q130 34 241 118t183 207q8 7 31 7q10 0 17.5 -1.5t9.5 -3.5l3 -2v-1380q-7 -6 -34 -6q-8 0 -14 0.5t-9.5 1.5t-5.5 2t-3 2h-1v981q0 163 8 289q-69 -102 -177 -172t-231 -103q-25 21 -18 60z" />
    <glyph glyph-name="two" unicode="2" horiz-adv-x="1081" 
d="M199 1286q-24 18 -21 53q16 8 46.5 20.5t128 33t198.5 20.5q85 0 154 -19t124.5 -58.5t86 -108t30.5 -160.5q0 -48 -10 -90.5t-24 -76t-44 -68.5t-55.5 -59.5t-74 -58t-84 -55.5t-99.5 -61q-17 -10 -57 -33.5t-62 -37t-59 -39.5t-59 -47.5t-48.5 -54.5t-41 -66t-25 -77
t-10.5 -93l4 -84h723q6 -8 6 -33q0 -11 -1.5 -19.5t-2.5 -11.5l-2 -2h-783q-12 65 -12 137q0 52 7 97.5t22 83t31.5 68t43 58.5t49 48.5t57 43.5t59 38.5t64 38.5t62.5 38q18 12 56.5 35.5t55.5 34.5t49.5 32.5t48 34.5t40 35t36.5 39t28 41.5t22.5 48t12 52.5t5.5 61
q0 287 -335 287q-80 0 -165 -16.5t-130 -33.5z" />
    <glyph glyph-name="three" unicode="3" horiz-adv-x="1048" 
d="M901 348q0 -72 -24 -135t-75 -116.5t-143 -85t-215 -31.5q-88 0 -170.5 16.5t-120.5 32.5l-38 16q0 13 6 29t14 22q1 0 23.5 -7t29 -9t30.5 -8.5t37 -9t38.5 -7t46 -6.5t47 -4t53.5 -2q108 0 186.5 24.5t122.5 68.5t64.5 99.5t20.5 124.5q0 83 -25 145.5t-63.5 98.5
t-93.5 58.5t-106 30t-110 7.5h-92q-6 8 -6 31q0 10 1.5 18t2.5 11l2 2h92q359 0 359 307q0 133 -85 209t-253 76q-76 0 -150 -13.5t-111 -26.5l-36 -14q-12 6 -19.5 21t-5.5 29q15 7 43.5 17.5t114.5 28t170 17.5q196 0 297.5 -92t101.5 -240q0 -133 -54 -222t-177 -128
q270 -75 270 -383z" />
    <glyph glyph-name="four" unicode="4" horiz-adv-x="1173" 
d="M786 1386q10 7 37 7q11 0 19.5 -1.5t11.5 -3.5l2 -2v-946h219q6 -7 6 -30q0 -10 -1.5 -18t-3.5 -10l-1 -3h-219v-373q-10 -6 -35 -6q-11 0 -19.5 1.5t-11.5 2.5l-2 2v373h-698q-6 8 -6 31q0 10 1.5 17.5t2.5 10.5l2 2zM788 1282l-618 -842h618v842z" />
    <glyph glyph-name="five" unicode="5" horiz-adv-x="1056" 
d="M266 766q80 14 189 14q469 0 469 -407q0 -393 -496 -393q-94 0 -170.5 12.5t-106.5 25.5l-30 13q-3 14 2.5 30t15.5 23q123 -43 279 -43q222 0 328 81t106 251q0 59 -10.5 107t-39 93.5t-74 76t-118.5 49t-170 18.5q-55 0 -115 -5.5t-93 -11.5l-33 -6v699h665
q6 -10 6 -33q0 -10 -1.5 -18.5t-2.5 -11.5l-2 -3h-598v-561z" />
    <glyph glyph-name="six" unicode="6" horiz-adv-x="1130" 
d="M872 1364q0 -17 -6 -29q-542 -54 -628 -592q172 109 362 109q89 0 162 -25t129.5 -76t87.5 -136.5t31 -198.5q0 -207 -118.5 -321.5t-311.5 -114.5q-196 0 -313 135.5t-117 410.5q0 210 52 372t148 266t224.5 161t289.5 68q8 -12 8 -29zM938 416q0 186 -92.5 280.5
t-249.5 94.5q-188 0 -369 -129q-6 -68 -6 -144q0 -239 98 -358t261 -119q161 0 259.5 96.5t98.5 278.5z" />
    <glyph glyph-name="seven" unicode="7" horiz-adv-x="1013" 
d="M913 1393q7 0 7 -41q0 -106 -29 -200.5t-76 -170t-103.5 -150.5t-112.5 -158t-103 -174.5t-76 -218.5t-29 -274q-10 -6 -33 -6q-10 0 -19 1.5t-13 2.5l-4 2q0 148 27.5 276.5t72 222.5t99 177t110 157t102 145.5t79 159.5t38.5 183h-764q-6 10 -6 33q0 10 1.5 18.5
t2.5 11.5l2 3h827z" />
    <glyph glyph-name="eight" unicode="8" horiz-adv-x="1193" 
d="M590 -20q-212 0 -328.5 96.5t-116.5 245.5q0 70 23.5 136.5t56 112.5t77.5 88t77 64t65 41q-119 58 -185 134.5t-66 195.5q0 146 108 232.5t291 86.5q185 0 293 -87.5t108 -233.5q0 -61 -18 -117.5t-44 -96.5t-62 -76t-64.5 -57t-59.5 -38q69 -30 118.5 -61t95 -75.5
t69 -105t23.5 -135.5q0 -160 -119.5 -255t-341.5 -95zM592 1350q-150 0 -240 -69t-90 -183q0 -71 26 -124t91.5 -96.5t108 -63.5t141.5 -60l51 -21q39 22 74 49.5t76.5 71.5t66.5 104.5t25 128.5q0 123 -89.5 193t-240.5 70zM598 43q181 0 282 80t101 205q0 45 -12 84
t-29.5 68.5t-50.5 58.5t-60.5 47.5t-74.5 41.5t-77 36t-84.5 35t-82.5 34q-24 -13 -50 -29t-73.5 -55t-82.5 -81.5t-62 -106.5t-27 -131q0 -128 96.5 -207.5t286.5 -79.5z" />
    <glyph glyph-name="nine" unicode="9" horiz-adv-x="1130" 
d="M258 29q0 16 6 28q544 54 627 592q-166 -108 -361 -108q-89 0 -162 25t-129 76t-87 136.5t-31 198.5q0 207 118.5 321.5t311.5 114.5q196 0 313 -136t117 -411q0 -210 -52 -372t-148.5 -266t-225 -160.5t-289.5 -67.5q-8 11 -8 29zM193 977q0 -186 92.5 -280.5
t249.5 -94.5q80 0 163 26.5t126.5 51.5t78.5 51q6 67 6 143q0 239 -97.5 358.5t-260.5 119.5q-161 0 -259.5 -96.5t-98.5 -278.5z" />
    <glyph glyph-name="colon" unicode=":" horiz-adv-x="442" 
d="M270 815q-16 -6 -49 -6q-15 0 -27 1.5t-17 3.5l-5 1v86q16 6 49 6q15 0 27 -1.5t17 -3.5l5 -1v-86zM270 6q-16 -6 -49 -6q-15 0 -27 1.5t-17 2.5l-5 2v86q16 6 49 6q15 0 27 -1.5t17 -2.5l5 -2v-86z" />
    <glyph glyph-name="semicolon" unicode=";" horiz-adv-x="483" 
d="M297 815q-16 -6 -49 -6q-15 0 -27 1.5t-17 3.5l-5 1v86q16 6 49 6q15 0 27 -1.5t17 -3.5l5 -1v-86zM168 -168q6 6 16 18.5t29 56.5t23 93q-11 0 -20.5 1.5t-13.5 2.5l-3 2v86q16 6 49 6q15 0 27 -1.5t17 -2.5l5 -2v-65q0 -40 -10 -77.5t-24 -62t-28 -43.5t-24 -28l-10 -9
z" />
    <glyph glyph-name="less" unicode="&#x3c;" horiz-adv-x="970" 
d="M133 549q-6 16 -6 45q0 12 1.5 23t3.5 15l1 5l655 303q7 -8 7 -33q0 -11 -1.5 -20t-3.5 -12l-2 -3l-604 -280l604 -275q7 -11 7 -36q0 -10 -1.5 -19t-3.5 -12l-2 -4z" />
    <glyph glyph-name="equal" unicode="=" horiz-adv-x="1044" 
d="M186 733q-6 8 -6 31q0 10 1.5 18t2.5 10l2 3h672q6 -8 6 -31q0 -10 -1.5 -18t-2.5 -10l-2 -3h-672zM186 393q-6 6 -6 31q0 10 1.5 18t2.5 10l2 3h672q6 -8 6 -31q0 -10 -1.5 -18t-2.5 -10l-2 -3h-672z" />
    <glyph glyph-name="greater" unicode="&#x3e;" horiz-adv-x="970" 
d="M184 246q-6 12 -6 35q0 11 1.5 20t2.5 13l2 3l604 275l-604 280q-6 10 -6 35q0 11 1.5 19.5t2.5 11.5l2 2l656 -303q6 -16 6 -43q0 -13 -1.5 -24t-2.5 -16l-2 -5z" />
    <glyph glyph-name="question" unicode="?" horiz-adv-x="880" 
d="M768 1096q0 -83 -21.5 -149t-56 -111t-76 -84.5t-83.5 -79.5t-76.5 -86.5t-56 -116t-21.5 -156.5q-11 -8 -31 -8q-8 0 -15 2t-11 4l-3 2q0 96 21 172.5t54.5 125.5t73.5 90t80.5 78t74 77.5t54.5 100.5t21 135q0 114 -71.5 186t-227.5 72q-77 0 -147.5 -13t-102.5 -26
l-32 -13q-12 7 -18.5 22.5t-4.5 29.5q14 7 39.5 17.5t106.5 28t165 17.5q95 0 167 -26t114 -71t63 -100t21 -120zM397 6q-16 -6 -49 -6q-15 0 -27 1.5t-17 2.5l-5 2v86q16 6 49 6q15 0 27 -1.5t17 -2.5l5 -2v-86z" />
    <glyph glyph-name="at" unicode="@" horiz-adv-x="1875" 
d="M1724 621q0 -208 -86.5 -327.5t-248.5 -119.5q-74 0 -127 38t-74 116q-75 -154 -264 -154q-69 0 -126 21t-103.5 65.5t-72.5 123t-26 185.5q0 108 26 187.5t72.5 124t103.5 65.5t126 21q174 0 252 -131v125q10 6 28 6l33 -6v-510q0 -224 156 -224q53 0 99.5 22t85.5 67.5
t62 123.5t23 181q0 328 -193 523t-532 195q-157 0 -291.5 -54t-232.5 -152t-153.5 -243t-55.5 -319q0 -189 57.5 -335.5t157 -236t226.5 -134.5t274 -45q316 0 577 178q31 -10 31 -43q-258 -193 -623 -193q-158 0 -294.5 51t-241.5 149t-165.5 254.5t-60.5 354.5
q0 185 60 339.5t165.5 260t252 164t317.5 58.5q248 0 427.5 -99.5t269 -272.5t89.5 -400zM664 569q0 -97 22 -166t61 -106t85 -53.5t102 -16.5q108 0 173.5 72t68.5 168v199q0 99 -65.5 173t-176.5 74q-58 0 -102.5 -14.5t-84.5 -50.5t-61.5 -106.5t-21.5 -172.5z" />
    <glyph glyph-name="A" unicode="A" horiz-adv-x="1310" 
d="M293 446l-176 -440q-10 -6 -37 -6q-12 0 -20 1.5t-10 2.5l-3 2l580 1462q8 7 28 7q8 0 15.5 -1.5t10.5 -3.5l3 -2l580 -1462q-10 -6 -37 -6q-10 0 -19.5 1.5t-13.5 2.5l-4 2l-174 440h-723zM989 512l-307 780q-9 23 -15 42.5t-8 27.5l-2 8h-4q-8 -29 -26 -78l-310 -780
h672z" />
    <glyph glyph-name="B" unicode="B" horiz-adv-x="1282" 
d="M219 1475h475q111 0 191 -31t124 -86.5t63.5 -120t19.5 -143.5q0 -76 -19.5 -139t-44 -98t-57 -62t-48.5 -35t-28 -12h2q102 -25 168 -111q74 -97 74 -250q0 -183 -105 -285t-332 -102h-483v1475zM684 776q177 0 255.5 83t78.5 235q0 153 -77.5 234t-262.5 81h-389v-633
h395zM289 66h411q197 0 281 81t84 240q0 167 -88.5 245.5t-278.5 78.5h-409v-645z" />
    <glyph glyph-name="C" unicode="C" horiz-adv-x="1138" 
d="M688 -20q-271 0 -403.5 186.5t-132.5 570.5q0 379 133 568.5t403 189.5q99 0 184 -16.5t120 -32.5l36 -16q4 -15 -4 -31q-4 -8 -9 -14.5t-8 -8.5l-3 -2q-13 6 -38.5 16t-105 26t-162.5 16q-112 0 -195 -34t-147.5 -112t-97.5 -216t-33 -335q0 -158 22 -277.5t61.5 -197.5
t99.5 -126.5t130 -68.5t160 -20t172 14t119 29l37 14q13 -4 21 -22q4 -8 5 -16.5t0 -12.5l-1 -4q-5 -3 -14.5 -7.5t-43.5 -16t-72.5 -20.5t-101.5 -16t-131 -7z" />
    <glyph glyph-name="D" unicode="D" horiz-adv-x="1347" 
d="M219 1475h387q122 0 212.5 -22t163.5 -73.5t118.5 -136t69.5 -210.5t24 -296q0 -212 -35.5 -355.5t-112 -227.5t-182 -119t-258.5 -35h-387v1475zM289 66h309q107 0 186 18.5t145 64t106.5 121.5t62.5 192t22 275q0 160 -22 276t-62.5 192.5t-106.5 121.5t-145 63.5
t-186 18.5h-309v-1343z" />
    <glyph glyph-name="E" unicode="E" horiz-adv-x="1140" 
d="M1008 1475q6 -12 6 -33t-6 -33h-719v-629h616q6 -12 6 -30t-6 -33h-616v-651h739q6 -15 6 -31q0 -20 -6 -35h-809v1475h789z" />
    <glyph glyph-name="F" unicode="F" horiz-adv-x="1091" 
d="M289 6q-10 -6 -35 -6q-11 0 -20 1.5t-12 2.5l-3 2v1469h789q6 -10 6 -33q0 -10 -1.5 -18.5t-2.5 -11.5l-2 -3h-719v-645h622q7 -13 7 -33q0 -9 -2 -17t-4 -12l-1 -4h-622v-692z" />
    <glyph glyph-name="G" unicode="G" horiz-adv-x="1267" 
d="M711 -20q-271 0 -415 188.5t-144 568.5q0 375 144 566.5t415 191.5q103 0 195.5 -16.5t133.5 -32.5l41 -16q4 -15 -4 -31q-4 -8 -9 -13.5t-8 -7.5l-3 -2q-17 6 -47 15.5t-118 25t-171 15.5q-88 0 -160 -20.5t-135.5 -70.5t-107 -128.5t-68.5 -199.5t-25 -278t25 -277.5
t68 -198t106.5 -126t135.5 -68.5t161 -20q143 0 313 39v616h-395q-6 13 -6 33q0 11 1.5 19.5t3.5 11.5l1 2h465v-721q-17 -7 -48.5 -18t-134 -29t-210.5 -18z" />
    <glyph glyph-name="H" unicode="H" horiz-adv-x="1376" 
d="M1090 1468q11 7 34 7q10 0 19 -1.5t13 -3.5l3 -2v-1462q-10 -6 -35 -6q-12 0 -20.5 1.5t-11.5 2.5l-2 2v717h-803v-717q-12 -6 -35 -6q-8 0 -14 0.5t-10 1.5t-6.5 2t-3.5 2h-1v1462q12 7 35 7q10 0 19 -1.5t13 -3.5l3 -2v-680h803v680z" />
    <glyph glyph-name="I" unicode="I" horiz-adv-x="503" 
d="M217 1468q10 7 35 7q11 0 20 -1.5t12 -3.5l3 -2v-1462q-10 -6 -35 -6q-11 0 -20 1.5t-12 2.5l-3 2v1462z" />
    <glyph glyph-name="J" unicode="J" horiz-adv-x="856" 
d="M578 1468q7 7 34 7q10 0 19 -1.5t13 -3.5l3 -2v-1153q0 -174 -74 -254.5t-237 -80.5q-68 0 -136.5 15t-103.5 31l-35 15q-3 37 23 57q13 -6 36.5 -15t90 -23.5t125.5 -14.5q118 0 180 62t62 208v1153z" />
    <glyph glyph-name="K" unicode="K" horiz-adv-x="1243" 
d="M582 799l471 669q12 7 39 7q11 0 20.5 -1.5t13.5 -3.5l4 -2l-489 -696l547 -766q-12 -6 -39 -6q-12 0 -23.5 1.5t-16.5 2.5l-5 2l-520 727h-297v-727q-12 -6 -35 -6q-10 0 -19 1.5t-13 2.5l-3 2v1462q12 7 35 7q10 0 19 -1.5t13 -3.5l3 -2v-669h295z" />
    <glyph glyph-name="L" unicode="L" horiz-adv-x="1028" 
d="M217 1468q12 7 35 7q11 0 20 -1.5t12 -3.5l3 -2v-1402h678q6 -13 6 -33q0 -9 -1.5 -17t-3.5 -12l-1 -4h-748v1468z" />
    <glyph glyph-name="M" unicode="M" horiz-adv-x="1724" 
d="M1438 1186q0 62 2.5 115t5.5 75l2 23h-4q-23 -56 -76 -142l-487 -833q-13 -6 -33 -6l-33 6l-467 833q-21 36 -39 71.5t-25 53.5l-8 17h-4q13 -80 13 -234v-1159q-8 -6 -33 -6q-11 0 -20 1.5t-12 2.5l-3 2v1462q16 7 45 7q13 0 24.5 -1.5t17.5 -3.5l5 -2l479 -856
q18 -31 32.5 -58t19.5 -38l6 -12h4q18 38 61 108l502 856q12 7 47 7q15 0 26.5 -1.5t15.5 -3.5l5 -2v-1462q-9 -6 -34 -6q-11 0 -20 1.5t-12 2.5l-3 2v1180z" />
    <glyph glyph-name="N" unicode="N" horiz-adv-x="1413" 
d="M377 1210q-31 48 -54.5 91t-31.5 62l-8 19h-4q6 -73 6 -266v-1110q-10 -6 -35 -6q-10 0 -18.5 1.5t-11.5 2.5l-3 2v1462q14 7 41 7q12 0 21.5 -1.5t13.5 -3.5l4 -2l733 -1187q27 -44 53 -90t38 -71l12 -24h4q-9 99 -9 246v1126q10 7 35 7q10 0 18.5 -1.5t11.5 -3.5l3 -2
v-1462q-12 -6 -39 -6q-13 0 -23 1.5t-14 2.5l-4 2z" />
    <glyph glyph-name="O" unicode="O" horiz-adv-x="1388" 
d="M694 -20q-261 0 -401.5 185t-140.5 572t140.5 572.5t401.5 185.5q262 0 402.5 -185.5t140.5 -572.5t-140.5 -572t-402.5 -185zM694 1434q-469 0 -469 -697q0 -696 469 -696t469 696q0 697 -469 697z" />
    <glyph glyph-name="P" unicode="P" horiz-adv-x="1224" 
d="M289 6q-10 -6 -35 -6q-11 0 -20 1.5t-12 2.5l-3 2v1469h496q186 0 291.5 -115t105.5 -307q0 -191 -105.5 -305.5t-291.5 -114.5h-426v-627zM717 698q152 0 236.5 94.5t84.5 258.5q0 168 -84 263t-237 95h-428v-711h428z" />
    <glyph glyph-name="Q" unicode="Q" horiz-adv-x="1388" 
d="M1237 737q0 -472 -213 -651q54 -55 124.5 -93.5t133.5 -53.5q-6 -44 -43 -62q-68 15 -142.5 63t-125.5 109q-115 -69 -277 -69q-261 0 -401.5 185t-140.5 572t140.5 572.5t401.5 185.5q262 0 402.5 -185.5t140.5 -572.5zM694 1434q-469 0 -469 -697q0 -696 469 -696
t469 696q0 697 -469 697z" />
    <glyph glyph-name="R" unicode="R" horiz-adv-x="1259" 
d="M799 676l352 -670q-14 -6 -39 -6q-12 0 -22.5 1.5t-15.5 2.5l-5 2l-348 662h-432v-662q-10 -6 -35 -6q-11 0 -20 1.5t-12 2.5l-3 2v1469h483q187 0 293.5 -110t106.5 -294q0 -158 -79.5 -262.5t-223.5 -132.5zM707 733q149 0 235 89.5t86 248.5t-86 248.5t-235 89.5h-418
v-676h418z" />
    <glyph glyph-name="S" unicode="S" horiz-adv-x="1146" 
d="M610 1432q-197 0 -297 -85.5t-100 -236.5q0 -37 6.5 -69t16.5 -57.5t29.5 -47.5t36.5 -38t47.5 -32t53 -25.5t62 -22t65.5 -19.5t72 -19q55 -14 90.5 -24.5t84.5 -29.5t80.5 -38.5t66 -50.5t54.5 -67t33 -85.5t13 -109.5q0 -185 -126.5 -290t-350.5 -105q-69 0 -136 7.5
t-113.5 19t-83.5 22.5t-55 19l-18 7q-2 15 4.5 32t16.5 26q20 -7 55 -18t133.5 -29.5t186.5 -18.5q197 0 306 84t109 242q0 48 -11 88t-27.5 69.5t-46 55t-57 42t-70.5 33t-75.5 26t-82.5 22.5q-174 47 -246 82q-153 76 -186 222q-9 43 -9 93q0 181 120.5 285t340.5 104
q99 0 191.5 -12.5t134.5 -24.5l43 -12q3 -36 -21 -57q-158 43 -340 43z" />
    <glyph glyph-name="T" unicode="T" horiz-adv-x="1081" 
d="M1010 1475q6 -8 6 -31q0 -9 -1.5 -17t-2.5 -12l-2 -4h-428v-1405q-10 -6 -35 -6q-11 0 -20 1.5t-12 2.5l-3 2v1405h-438q-6 13 -6 33q0 9 1.5 16.5t2.5 11.5l2 3h936z" />
    <glyph glyph-name="U" unicode="U" horiz-adv-x="1357" 
d="M1151 455q0 -225 -128.5 -350t-344.5 -125q-215 0 -343 125.5t-128 349.5v1013q12 7 35 7q11 0 19.5 -1.5t11.5 -3.5l3 -2v-1022q0 -193 107.5 -299t298.5 -106q190 0 295.5 106t105.5 299v1022q13 7 33 7q10 0 19 -1.5t13 -3.5l3 -2v-1013z" />
    <glyph glyph-name="V" unicode="V" horiz-adv-x="1245" 
d="M586 219q11 -30 20 -59t12 -42l3 -14h4q7 47 32 113l457 1251q10 7 37 7q12 0 20.5 -1.5t11.5 -3.5l3 -2l-535 -1462q-8 -6 -28 -6q-8 0 -15.5 1.5t-10.5 2.5l-3 2l-535 1462q8 7 35 7q10 0 19 -1.5t13 -3.5l3 -2z" />
    <glyph glyph-name="W" unicode="W" horiz-adv-x="1931" 
d="M1014 1188q-16 54 -25.5 97t-11.5 59l-2 16h-4q-4 -51 -39 -172l-363 -1182q-10 -6 -28 -6q-9 0 -16 1.5t-10 2.5l-3 2l-446 1462q9 7 34 7q11 0 20.5 -1.5t13.5 -3.5l3 -2l359 -1175q16 -50 27 -97.5t15 -69.5l3 -22h4q6 76 41 189l360 1175q6 7 29 7q10 0 17.5 -1.5
t9.5 -3.5l2 -2l358 -1175q15 -50 24.5 -97.5t11.5 -69.5l3 -22h4q8 76 43 189l340 1175q8 7 35 7q10 0 18 -1.5t11 -3.5l3 -2l-423 -1462q-9 -6 -29 -6q-9 0 -16 1.5t-10 2.5l-3 2z" />
    <glyph glyph-name="X" unicode="X" horiz-adv-x="1210" 
d="M1137 6q-14 -6 -43 -6q-15 0 -26 1.5t-15 2.5l-4 2l-453 699l-436 -699q-16 -6 -45 -6q-12 0 -21.5 1.5t-13.5 2.5l-4 2l471 748l-461 714q14 7 45 7q12 0 22 -1.5t15 -3.5l4 -2l428 -665l434 665q14 7 43 7q13 0 23.5 -1.5t15.5 -3.5l4 -2l-469 -712z" />
    <glyph glyph-name="Y" unicode="Y" horiz-adv-x="1257" 
d="M57 1468q14 7 43 7q13 0 23 -1.5t14 -3.5l4 -2l486 -768l501 768q10 7 39 7q15 0 25.5 -1.5t13.5 -3.5l4 -2l-548 -843v-619q-12 -6 -35 -6q-10 0 -19 1.5t-12 2.5l-4 2v617z" />
    <glyph glyph-name="Z" unicode="Z" horiz-adv-x="1177" 
d="M1049 1475q6 -13 6 -33q0 -9 -1.5 -17t-3.5 -12l-1 -4l-873 -1343h899q6 -10 6 -33q0 -10 -1.5 -18.5t-3.5 -11.5l-1 -3h-981q-6 10 -6 33q0 9 1.5 17t2.5 12l2 4l875 1343h-819q-7 10 -7 33q0 10 1.5 18.5t3.5 11.5l2 3h899z" />
    <glyph glyph-name="bracketleft" unicode="[" horiz-adv-x="641" 
d="M551 1659q6 -10 6 -35q0 -11 -1.5 -20t-3.5 -12l-1 -3h-264v-1868h264q6 -9 6 -32q0 -12 -1.5 -21.5t-3.5 -12.5l-1 -3h-334v2007h334z" />
    <glyph glyph-name="backslash" unicode="\" horiz-adv-x="864" 
d="M815 -88q-10 -8 -37 -8q-12 0 -22 2t-14 4l-3 2l-690 1616q10 8 37 8q13 0 22.5 -2t13.5 -4l3 -2z" />
    <glyph glyph-name="bracketright" unicode="]" horiz-adv-x="641" 
d="M424 -348h-334q-6 10 -6 37q0 10 1.5 18t2.5 11l2 3h264v1868h-264q-6 10 -6 35q0 11 1.5 20t2.5 12l2 3h334v-2007z" />
    <glyph glyph-name="asciicircum" unicode="^" horiz-adv-x="1058" 
d="M928 932q-8 -6 -39 -6q-14 0 -24 1.5t-13 2.5l-4 2l-322 481l-321 -481q-6 -6 -37 -6q-14 0 -23.5 1.5t-12.5 2.5l-3 2l360 536q8 7 39 7q14 0 23.5 -1.5t12.5 -3.5l3 -2z" />
    <glyph glyph-name="underscore" unicode="_" horiz-adv-x="1060" 
d="M123 -98q-6 5 -6 28q0 10 1.5 17.5t3.5 9.5l1 2h819q6 -6 6 -29q0 -10 -1.5 -17t-2.5 -9l-2 -2h-819z" />
    <glyph glyph-name="grave" unicode="`" horiz-adv-x="487" 
d="M100 1618q10 14 28.5 24.5t37.5 10.5l240 -307q-13 -26 -50 -29z" />
    <glyph glyph-name="a" unicode="a" horiz-adv-x="1044" 
d="M801 741q0 158 -70.5 227.5t-214.5 69.5q-73 0 -148.5 -14t-115.5 -28l-39 -13q-27 20 -23 55q18 7 49 17t119 26.5t166 16.5q86 0 147 -19t99 -52.5t59.5 -90.5t29 -120t7.5 -154v-656q-8 -6 -26 -6q-8 0 -15 1.5t-9 2.5l-3 2l-12 184v3q-47 -102 -145 -157.5
t-230 -55.5q-143 0 -230 82.5t-87 226.5q0 149 93 231t283 82q173 0 316 -20v159zM178 289q0 -123 68.5 -185.5t187.5 -62.5q161 0 264 103.5t103 281.5v96q-3 0 -46 4.5t-75.5 7.5t-85 6t-96.5 3q-163 0 -241.5 -63t-78.5 -191z" />
    <glyph glyph-name="b" unicode="b" horiz-adv-x="1134" 
d="M252 899q100 199 342 199q97 0 169 -29t125.5 -93.5t81 -173.5t27.5 -263t-27.5 -263t-81 -173.5t-125.5 -93.5t-169 -29q-242 0 -342 198v-172q-8 -6 -33 -6q-11 0 -19.5 1.5t-11.5 2.5l-2 2v1524q8 6 33 6q11 0 19.5 -1.5t11.5 -2.5l2 -2v-631zM928 539
q0 264 -81 380.5t-269 116.5q-77 0 -140 -32t-102 -84t-60.5 -114t-23.5 -126v-270q0 -66 21 -130t60 -118t103 -87.5t142 -33.5q188 0 269 117t81 381z" />
    <glyph glyph-name="c" unicode="c" horiz-adv-x="911" 
d="M571 1034q-187 0 -277.5 -124t-90.5 -371q0 -248 93 -370t284 -122q58 0 111 11.5t77 23.5l23 12q25 -15 28 -55q-11 -7 -32 -16.5t-89 -26t-141 -16.5q-203 0 -313.5 143.5t-110.5 415.5t110.5 415.5t313.5 143.5q69 0 128.5 -12t84.5 -24l25 -11q0 -39 -25 -58
q-9 5 -25 11.5t-67.5 18t-106.5 11.5z" />
    <glyph glyph-name="d" unicode="d" horiz-adv-x="1134" 
d="M883 1530q7 6 32 6q11 0 19.5 -1.5t11.5 -2.5l2 -2v-1524q-8 -6 -26 -6q-8 0 -15 1.5t-9 2.5l-3 2l-10 174q-101 -200 -344 -200q-97 0 -169 29t-126 93t-81.5 173.5t-27.5 263.5t27.5 263.5t81.5 173.5t126 93t169 29q242 0 342 -199v631zM883 668q0 65 -21 129.5
t-60 118t-103 87t-142 33.5q-188 0 -269 -116.5t-81 -380.5t81 -381t269 -117q78 0 142 33.5t103 87.5t60 118t21 130v258z" />
    <glyph glyph-name="e" unicode="e" horiz-adv-x="1040" 
d="M203 516q9 -248 96.5 -358.5t267.5 -110.5q48 0 92.5 8.5t74.5 20.5t53 24t33 20l11 9q32 -18 35 -55q-4 -4 -12.5 -10t-39 -22.5t-64.5 -29t-89 -22.5t-114 -10q-201 0 -307.5 144t-106.5 421q0 279 113 416t307 137q177 0 272 -104.5t95 -272.5q0 -56 -6 -107t-12 -74
l-5 -24h-694zM850 731q0 132 -74 218.5t-223 86.5q-161 0 -252.5 -113t-97.5 -345h635q12 57 12 153z" />
    <glyph glyph-name="f" unicode="f" horiz-adv-x="688" 
d="M287 6q-8 -6 -33 -6q-11 0 -19.5 1.5t-10.5 2.5l-3 2v1010h-131q-6 8 -6 31q0 10 1.5 17.5t2.5 9.5l2 3h131v123q0 80 13 137.5t45 104.5t91.5 70.5t147.5 23.5q44 0 89.5 -6t68.5 -12l24 -7q7 -35 -18 -57q-66 21 -154 21q-75 0 -123.5 -17t-73.5 -53.5t-34.5 -81.5
t-9.5 -113v-133h336q6 -7 6 -30q0 -9 -1.5 -16.5t-3.5 -10.5l-1 -4h-336v-1010z" />
    <glyph glyph-name="g" unicode="g" horiz-adv-x="1056" 
d="M315 440q-85 40 -129.5 120t-44.5 190q0 163 97 255.5t268 92.5q123 0 213 -49l264 47q15 -35 0 -74l-203 -23q90 -90 90 -249q0 -163 -95.5 -255t-268.5 -92q-69 0 -135 17q-78 -92 -78 -195q0 -49 38 -77.5t98.5 -39.5t134 -18t147 -20.5t134 -38t98.5 -79t38 -136.5
q0 -66 -30.5 -124t-89 -104t-154 -73t-215.5 -27q-199 0 -298.5 83.5t-99.5 215.5q0 59 20 114t52.5 94.5t57.5 63t50 41.5q-53 43 -53 119q0 97 94 221zM506 1040q-134 0 -214.5 -74.5t-80.5 -213.5q0 -141 80 -216t215 -75q136 0 215.5 75t79.5 216q0 139 -80 213.5
t-215 74.5zM492 -453q189 0 305 73t116 190q0 75 -40.5 121t-109.5 64.5t-141 26.5t-156.5 18.5t-133.5 29.5q-79 -51 -121.5 -125t-42.5 -148q0 -117 84 -183.5t240 -66.5z" />
    <glyph glyph-name="h" unicode="h" 
d="M944 6q-10 -6 -33 -6q-10 0 -18 1.5t-11 2.5l-3 2v772q0 260 -265 260q-110 0 -210.5 -72.5t-151.5 -195.5v-764q-10 -6 -33 -6q-10 0 -18.5 1.5t-11.5 2.5l-3 2v1524q10 6 33 6q10 0 18.5 -1.5t11.5 -2.5l3 -2v-639q64 99 161.5 153t221.5 54q144 0 226.5 -82t82.5 -221
v-789z" />
    <glyph glyph-name="i" unicode="i" horiz-adv-x="450" 
d="M274 1309q-16 -6 -49 -6q-15 0 -27 1.5t-17 3.5l-5 1v86q16 6 49 6q15 0 27 -1.5t17 -3.5l5 -1v-86zM258 6q-8 -6 -33 -6q-11 0 -19 1.5t-10 2.5l-3 2v1065q7 6 32 6q11 0 19.5 -1.5t11.5 -3.5l2 -1v-1065z" />
    <glyph glyph-name="j" unicode="j" horiz-adv-x="450" 
d="M274 1309q-16 -6 -49 -6q-15 0 -27 1.5t-17 3.5l-5 1v86q16 6 49 6q15 0 27 -1.5t17 -3.5l5 -1v-86zM193 1071q7 6 32 6q11 0 19.5 -1.5t11.5 -3.5l2 -1v-1251q0 -168 -70.5 -250t-197.5 -82q-38 0 -67 4.5t-39 9.5l-9 4q-2 7 -2 17t2 18.5t4 11.5l2 3q33 -9 92 -9
q112 0 166 63t54 202v1259z" />
    <glyph glyph-name="k" unicode="k" horiz-adv-x="1011" 
d="M504 594l336 477q12 6 43 6q8 0 14.5 -0.5t9.5 -1t5 -1l2 -0.5l1 -1l-356 -506l406 -559q-10 -8 -39 -8q-13 0 -23.5 2t-14.5 4l-5 2l-379 524h-252v-526q-8 -6 -33 -6q-11 0 -19.5 1.5t-11.5 2.5l-2 2v1524q8 6 33 6q11 0 19.5 -1.5t11.5 -2.5l2 -2v-936h252z" />
    <glyph glyph-name="l" unicode="l" horiz-adv-x="458" 
d="M262 6q-8 -6 -33 -6q-11 0 -19 1.5t-10 2.5l-3 2v1524q7 6 32 6q11 0 19.5 -1.5t11.5 -2.5l2 -2v-1524z" />
    <glyph glyph-name="m" unicode="m" horiz-adv-x="1726" 
d="M1548 6q-9 -6 -32 -6q-10 0 -18.5 1.5t-11.5 2.5l-3 2v772q0 134 -60.5 197t-181.5 63q-103 0 -197.5 -73.5t-144.5 -200.5v-758q-10 -6 -33 -6q-10 0 -18 1.5t-11 2.5l-3 2v772q0 134 -60.5 197t-181.5 63q-102 0 -196 -72t-144 -196v-764q-10 -6 -33 -6
q-10 0 -18.5 1.5t-11.5 2.5l-3 2v1065q10 6 33 6q10 0 18.5 -1.5t11.5 -3.5l3 -1v-178q129 205 360 205q56 0 103 -15q140 -47 176 -206q129 221 371 221q134 0 210 -82t76 -221v-789z" />
    <glyph glyph-name="n" unicode="n" 
d="M944 6q-10 -6 -33 -6q-10 0 -18 1.5t-11 2.5l-3 2v772q0 260 -265 260q-110 0 -210.5 -72.5t-151.5 -195.5v-764q-10 -6 -33 -6q-10 0 -18.5 1.5t-11.5 2.5l-3 2v1065q10 6 33 6q10 0 18.5 -1.5t11.5 -3.5l3 -1v-180q64 99 161.5 153t221.5 54q144 0 226.5 -82t82.5 -221
v-789z" />
    <glyph glyph-name="o" unicode="o" horiz-adv-x="1101" 
d="M551 -20q-204 0 -310 132t-106 427t106 427t310 132t310 -132t106 -427t-106 -427t-310 -132zM551 1038q-83 0 -144.5 -25t-108 -81.5t-70 -154.5t-23.5 -238t23.5 -238.5t70 -155t108 -81.5t144.5 -25t144.5 25t108 81.5t70 155t23.5 238.5t-23.5 238t-70 154.5
t-108 81.5t-144.5 25z" />
    <glyph glyph-name="p" unicode="p" horiz-adv-x="1134" 
d="M252 -506q-8 -6 -33 -6q-11 0 -19.5 1.5t-11.5 2.5l-2 2v1577q8 6 33 6q11 0 19.5 -1.5t11.5 -3.5l2 -1v-172q100 199 342 199q97 0 169 -29t125.5 -93.5t81 -173.5t27.5 -263t-27.5 -263t-81 -173.5t-125.5 -93.5t-169 -29q-242 0 -342 198v-684zM252 410q0 -66 21 -130
t60 -118t103 -87.5t142 -33.5q188 0 269 117t81 381t-81 380.5t-269 116.5q-77 0 -140 -32t-102 -84t-60.5 -114t-23.5 -126v-270z" />
    <glyph glyph-name="q" unicode="q" horiz-adv-x="1134" 
d="M883 178q-100 -198 -342 -198q-97 0 -169 29t-126 93t-81.5 173.5t-27.5 263.5t27.5 263.5t81.5 173.5t126 93t169 29q242 0 342 -199v172q7 6 32 6q11 0 19.5 -1.5t11.5 -3.5l2 -1v-1577q-8 -6 -33 -6q-11 0 -19 1.5t-10 2.5l-3 2v684zM207 539q0 -264 81 -381t269 -117
q76 0 138.5 31.5t102 83.5t61.5 114t24 127v283q-2 64 -24 126t-61.5 114t-102 84t-138.5 32q-188 0 -269 -116.5t-81 -380.5z" />
    <glyph glyph-name="r" unicode="r" horiz-adv-x="790" 
d="M252 866q130 230 313 230q47 0 89.5 -11t61.5 -23l19 -11q-3 -40 -35 -56q-73 37 -153 37q-152 0 -295 -278v-748q-8 -6 -33 -6q-11 0 -19.5 1.5t-11.5 2.5l-2 2v1065q8 6 33 6q11 0 19.5 -1.5t11.5 -3.5l2 -1v-205z" />
    <glyph glyph-name="s" unicode="s" horiz-adv-x="903" 
d="M127 803q0 135 90.5 215t263.5 80q68 0 132.5 -11t94.5 -23l31 -11q2 -14 -5 -30.5t-17 -23.5q-103 37 -230 37q-142 0 -216 -59t-74 -172q0 -48 20 -85.5t59 -62.5t78 -40.5t95 -30.5q6 -2 19 -5q141 -40 200 -75q125 -75 125 -230q0 -139 -91 -217.5t-266 -78.5
q-86 0 -163 15.5t-111 31.5l-35 16q-4 34 20 51q15 -6 41 -15t100.5 -23.5t141.5 -14.5q130 0 210.5 57t80.5 174q0 34 -8.5 63t-20.5 50t-34.5 39t-42 29.5t-51.5 23.5t-54.5 19t-59.5 17q-12 3 -18 5q-52 14 -89 27.5t-81 37.5t-71 52t-45.5 71.5t-18.5 96.5z" />
    <glyph glyph-name="t" unicode="t" horiz-adv-x="718" 
d="M307 352q0 -165 50.5 -238t183.5 -73q29 0 59.5 3t45.5 6l16 3q8 -10 8 -30l-4 -27q-56 -16 -138 -16q-161 0 -223.5 91.5t-62.5 280.5v664h-166q-6 8 -6 31q0 10 1.5 17.5t2.5 9.5l2 3h166v209q25 22 65 19v-228h330q8 -7 8 -30q0 -10 -2 -18t-4 -11l-2 -2h-330v-664z
" />
    <glyph glyph-name="u" unicode="u" 
d="M178 1071q10 6 33 6q10 0 18.5 -1.5t11.5 -3.5l3 -1v-772q0 -260 264 -260q109 0 209 72t153 196v764q10 6 33 6q10 0 18.5 -1.5t11.5 -3.5l3 -1v-1065q-10 -6 -33 -6q-10 0 -18.5 1.5t-11.5 2.5l-3 2v180q-66 -98 -163.5 -152t-219.5 -54q-144 0 -226.5 82t-82.5 221
v788z" />
    <glyph glyph-name="v" unicode="v" horiz-adv-x="1019" 
d="M444 293q19 -49 35.5 -98.5t23.5 -74.5l7 -24h4q23 80 66 193l303 782q7 6 32 6q10 0 19 -1.5t12 -3.5l4 -1l-411 -1065q-9 -6 -27 -6q-8 0 -15 1.5t-9 2.5l-3 2l-419 1065q9 6 36 6q11 0 20 -1.5t12 -3.5l3 -1z" />
    <glyph glyph-name="w" unicode="w" horiz-adv-x="1619" 
d="M887 737q-27 83 -45 144t-22 81l-5 19h-6q-12 -60 -78 -244l-252 -731q-8 -6 -26 -6q-8 0 -14.5 1.5t-9.5 2.5l-3 2l-354 1065q9 6 34 6q11 0 20 -1.5t12 -3.5l3 -1l269 -809q16 -46 26 -86.5t12 -57.5l3 -18h6q10 62 45 162l278 809q8 6 31 6q11 0 19.5 -1.5t11.5 -3.5
l2 -1l278 -805q16 -46 26.5 -87.5t12.5 -60.5l2 -18h6q10 57 45 166l267 805q9 6 32 6q11 0 19.5 -1.5t11.5 -3.5l2 -1l-352 -1065q-9 -6 -27 -6q-8 0 -14.5 1.5t-8.5 2.5l-3 2z" />
    <glyph glyph-name="x" unicode="x" horiz-adv-x="989" 
d="M76 1071q10 6 39 6q12 0 22.5 -1.5t14.5 -3.5l4 -1l344 -477l336 477q5 6 38 6q12 0 22 -1.5t14 -3.5l3 -1l-376 -530l385 -535q-10 -6 -39 -6q-13 0 -23 1.5t-14 2.5l-4 2l-353 490l-344 -490q-8 -6 -43 -6q-11 0 -19.5 1.5t-11.5 2.5l-3 2l383 543z" />
    <glyph glyph-name="y" unicode="y" horiz-adv-x="1064" 
d="M508 -260q-46 -128 -100 -190t-146 -62q-24 0 -47.5 3t-34.5 6l-12 3q-6 12 -6 29q0 20 8 31q33 -11 86 -11q59 0 102.5 48t85.5 165l88 240q-22 11 -26 14l-440 1055q11 6 36 6q11 0 20.5 -1.5t13.5 -3.5l3 -1l340 -815q20 -47 38.5 -94.5t26.5 -71.5l9 -24h6
q27 82 66 188l299 817q7 6 34 6q12 0 21.5 -1.5t12.5 -3.5l3 -1z" />
    <glyph glyph-name="z" unicode="z" horiz-adv-x="919" 
d="M809 61q6 -5 6 -30q0 -7 -0.5 -13t-1.5 -9t-2 -5t-1 -3l-1 -1h-715q-6 6 -6 31q0 11 1.5 18.5t2.5 9.5l2 2l633 955h-582q-6 6 -6 31q0 11 1.5 18.5t3.5 9.5l1 2h656q6 -7 6 -30q0 -10 -1.5 -18t-3.5 -11l-1 -2l-631 -955h639z" />
    <glyph glyph-name="braceleft" unicode="{" horiz-adv-x="688" 
d="M86 651q-6 13 -6 33q0 10 1.5 19t2.5 13l2 3h72q43 0 64.5 30.5t21.5 75.5v561q0 127 69.5 200t202.5 73h82q6 -13 6 -33q0 -9 -1.5 -17t-2.5 -12l-2 -4h-72q-213 0 -213 -211v-520q0 -71 -12.5 -111t-48.5 -65q36 -25 48.5 -65.5t12.5 -112.5v-520q0 -104 51 -157.5
t162 -53.5h72q6 -8 6 -31q0 -12 -1.5 -20.5t-2.5 -11.5l-2 -3h-82q-133 0 -202.5 73t-69.5 200v561q0 45 -21.5 75.5t-64.5 30.5h-72z" />
    <glyph glyph-name="bar" unicode="|" horiz-adv-x="499" 
d="M283 -397q-8 -6 -33 -6q-11 0 -19.5 1.5t-10.5 3.5l-3 1v2009q8 6 33 6q11 0 19.5 -1.5t10.5 -2.5l3 -2v-2009z" />
    <glyph glyph-name="braceright" unicode="}" horiz-adv-x="688" 
d="M602 719q6 -13 6 -33q0 -10 -1.5 -19t-2.5 -13l-2 -3h-72q-43 0 -64.5 -30.5t-21.5 -75.5v-561q0 -127 -69.5 -200t-202.5 -73h-82q-6 13 -6 33q0 9 1.5 17t2.5 12l2 4h72q213 0 213 211v520q0 71 12.5 111t48.5 65q-36 25 -48.5 65.5t-12.5 112.5v520q0 104 -51 157.5
t-162 53.5h-72q-6 8 -6 31q0 8 0.5 14t1.5 10t2 6.5t2 3.5v1h82q133 0 202.5 -73t69.5 -200v-561q0 -45 21.5 -75.5t64.5 -30.5h72z" />
    <glyph glyph-name="asciitilde" unicode="~" horiz-adv-x="1101" 
d="M385 645q-44 0 -84 -18.5t-58 -36.5l-18 -19q-38 6 -45 45q3 4 8 10.5t24.5 23t42 29.5t60 23.5t78.5 10.5q45 0 89 -16.5t74 -36t73 -36t86 -16.5q44 0 83.5 18.5t57.5 37.5l18 18q38 -6 50 -41q-2 -4 -7.5 -11t-24 -24t-41.5 -30t-61.5 -24t-82.5 -11q-45 0 -89 16.5
t-74 35.5t-73 35.5t-86 16.5z" />
    <glyph glyph-name="exclamdown" unicode="&#xa1;" horiz-adv-x="458" 
d="M279 969q-17 -6 -50 -6q-15 0 -27 1.5t-17 3.5l-5 1v86q16 6 49 6q15 0 27.5 -1.5t17.5 -3.5l5 -1v-86zM205 748q4 8 24 8q8 0 14 -2t9 -4l2 -2l10 -1156v-3q-7 -3 -35 -3q-38 1 -34 6z" />
    <glyph glyph-name="cent" unicode="&#xa2;" horiz-adv-x="954" 
d="M831 39q-10 -6 -29 -15.5t-82.5 -25.5t-131.5 -18l8 -187q-16 -8 -37 -8q-22 0 -35 8l8 189q-186 12 -286.5 155t-100.5 402t100.5 402t286.5 155l-8 188q18 6 37 6q20 0 35 -6l-8 -186q64 -2 118.5 -13.5t77.5 -22.5l23 -11q0 -39 -25 -58q-8 5 -24 11.5t-67.5 18
t-106.5 11.5q-369 0 -369 -495q0 -248 93 -370t284 -122q58 0 111 11.5t77 23.5l23 12q25 -15 28 -55z" />
    <glyph glyph-name="sterling" unicode="&#xa3;" horiz-adv-x="1048" 
d="M387 657q24 -79 33 -144t2 -142.5t-48 -154t-116 -150.5h655q9 -12 9 -33t-9 -33h-757v66q70 61 113 124t61 117.5t17.5 119t-11 114t-31.5 116.5h-170q-8 16 -8 33q0 22 8 33h150q-26 72 -39 113t-26 104t-13 117q0 181 108 269.5t299 88.5q76 0 151 -12.5t113 -25.5
l37 -13q4 -39 -24 -55q-121 43 -275 43q-165 0 -250 -76t-85 -225q0 -30 4 -60.5t15 -69.5t17.5 -60t24.5 -72t23 -66h411q8 -16 8 -31q0 -22 -8 -35h-389z" />
    <glyph glyph-name="currency" unicode="&#xa4;" horiz-adv-x="1204" 
d="M856 258q-110 -92 -252 -92q-144 0 -254 92l-151 -154q-13 1 -29 19q-7 6 -11 13t-5 10v4l153 151q-92 110 -92 254q0 146 94 254l-155 152q2 14 16 28q8 6 15.5 10t10.5 5h3l155 -150q111 90 250 90q140 0 250 -92l150 152q10 -1 28 -15q6 -6 10.5 -13t5.5 -11l1 -4
l-150 -152q94 -112 94 -254q0 -146 -94 -254l154 -151q-1 -13 -15 -27q-7 -8 -14 -12.5t-10 -5.5l-4 -1zM604 883q-137 0 -232.5 -95t-95.5 -233t95.5 -233t232.5 -95q138 0 233 95t95 233t-95 233t-233 95z" />
    <glyph glyph-name="yen" unicode="&#xa5;" horiz-adv-x="1239" 
d="M999 612q7 -10 7 -28q0 -8 -2 -15t-4 -11l-1 -3h-356v-168h356q7 -11 7 -29q0 -8 -2 -15t-4 -10l-1 -3h-356v-324q-6 -6 -33 -6q-12 0 -20 1.5t-10 2.5l-2 2v324h-357q-6 10 -6 28q0 8 1.5 15t3.5 11l1 3h357v168h-357q-6 11 -6 29q0 8 1.5 15t3.5 10l1 3h336l-471 783
q10 6 35 6q13 0 22.5 -1.5t12.5 -3.5l4 -1l450 -750l475 750q10 6 37 6q12 0 21.5 -1.5t12.5 -3.5l3 -1l-495 -783h335z" />
    <glyph glyph-name="brokenbar" unicode="&#xa6;" horiz-adv-x="495" 
d="M213 1632q10 6 35 6q11 0 20 -1.5t12 -2.5l3 -2v-903q-10 -6 -35 -6q-11 0 -20 1.5t-12 3.5l-3 1v903zM213 506q10 6 35 6q11 0 20 -1.5t12 -2.5l3 -2v-903q-10 -6 -35 -6q-11 0 -20 1.5t-12 3.5l-3 1v903z" />
    <glyph glyph-name="section" unicode="&#xa7;" horiz-adv-x="991" 
d="M774 240q0 50 -34 87t-89 59.5t-121 42t-132 41.5t-121 51t-89 77t-34 113q0 49 18 92t48.5 73t56 48.5t53.5 33.5q-156 73 -156 213q0 120 85.5 181t244.5 61q74 0 142.5 -10.5t99.5 -21.5l32 -11q3 -15 -2.5 -31.5t-15.5 -23.5q-123 37 -238 37q-153 0 -214.5 -46.5
t-61.5 -131.5q0 -52 32.5 -90.5t84.5 -62.5t114.5 -44t125 -43t114.5 -51t84.5 -75t32.5 -110q0 -152 -160 -243q81 -35 126.5 -85t45.5 -130q0 -59 -19 -104.5t-52 -74.5t-82 -47.5t-103.5 -26t-122.5 -7.5q-80 0 -157.5 12t-114.5 24l-37 13q-3 38 18 59q148 -41 275 -41
q169 0 246 46t77 147zM395 932q-28 -14 -53 -31.5t-54 -44t-46 -62.5t-17 -75q0 -33 11 -60.5t34 -48t47.5 -35.5t64 -29t69 -23t76.5 -22t75 -22q160 85 160 211q0 37 -17 67t-40.5 49.5t-65 39t-74.5 30.5t-86.5 28t-83.5 28z" />
    <glyph glyph-name="dieresis" unicode="&#xa8;" horiz-adv-x="931" 
d="M362 1257q-16 -6 -49 -6q-15 0 -27 1.5t-17 3.5l-5 1v86q16 7 49 7q15 0 27 -2t17 -4l5 -1v-86zM651 1257q-16 -6 -49 -6q-15 0 -27 1.5t-17 3.5l-5 1v86q16 7 49 7q15 0 27 -2t17 -4l5 -1v-86z" />
    <glyph glyph-name="copyright" unicode="&#xa9;" horiz-adv-x="1656" 
d="M829 10q-186 0 -344 92t-250 250t-92 344t92 343.5t249.5 249t344.5 91.5q186 0 343.5 -91.5t249 -249t91.5 -343.5q0 -187 -91.5 -344.5t-249 -249.5t-343.5 -92zM829 1323q-127 0 -243.5 -49.5t-200.5 -133.5t-134 -200.5t-50 -243.5t50 -243.5t134 -200.5t200.5 -134
t243.5 -50t243.5 50t200.5 134t133.5 200.5t49.5 243.5q0 170 -84 314.5t-228.5 228.5t-314.5 84zM831 301q-170 0 -256 105.5t-86 304.5q0 407 342 407q60 0 111.5 -11t72.5 -23l21 -11q0 -29 -22 -45q-80 37 -172 37q-153 0 -222 -83t-69 -271q0 -355 291 -355
q44 0 89.5 9t68.5 17l24 9q19 -11 23 -43q-8 -5 -24.5 -13t-72.5 -21t-119 -13z" />
    <glyph glyph-name="ordfeminine" unicode="&#xaa;" horiz-adv-x="737" 
d="M324 606q-87 0 -141 51.5t-54 139.5q0 90 57 140t172 50q94 0 187 -12v94q0 94 -41 135t-127 41q-44 0 -89.5 -8.5t-69.5 -16.5l-23 -8q-7 6 -12 19t-3 22q97 37 203 37q209 0 209 -209v-456q-7 -4 -19 -4l-20 4l-8 96q-31 -55 -88.5 -85t-132.5 -30zM178 797
q0 -73 39.5 -109.5t110.5 -36.5q94 0 154 56.5t63 158.5v68q-155 10 -178 10q-98 0 -143.5 -36t-45.5 -111zM135 457q-4 8 -4 22l4 21h451q4 -8 4 -21l-4 -22h-451z" />
    <glyph glyph-name="guillemotleft" unicode="&#xab;" horiz-adv-x="995" 
d="M543 1042q26 -13 26 -51l-397 -438l397 -440q0 -39 -26 -52l-424 463q-6 11 -6 29q0 8 1.5 15.5t3.5 10.5l1 3zM829 997q25 -13 25 -49l-352 -395l352 -397q0 -38 -25 -50l-383 420q-4 9 -4 27l4 27z" />
    <glyph glyph-name="logicalnot" unicode="&#xac;" horiz-adv-x="1232" 
d="M1047 387q-11 -6 -31 -6q-10 0 -18 1.5t-10 3.5l-3 1v451h-840q-6 10 -6 30q0 9 1.5 16.5t3.5 11.5l1 3h902v-512z" />
    <glyph glyph-name="uni00AD" unicode="&#xad;" horiz-adv-x="573" 
 />
    <glyph glyph-name="registered" unicode="&#xae;" horiz-adv-x="1110" 
d="M555 545q-173 0 -296.5 123.5t-123.5 296.5t123.5 296t296.5 123t296.5 -123t123.5 -296t-123.5 -296.5t-296.5 -123.5zM555 1350q-158 0 -270.5 -112.5t-112.5 -272.5t112.5 -272.5t270.5 -112.5q160 0 271.5 112.5t111.5 272.5t-111.5 272.5t-271.5 112.5zM590 1206
q143 0 143 -133q0 -97 -90 -123l119 -205q-7 -6 -21 -6l-22 4l-117 203h-151v-203q-7 -4 -19 -4l-18 4v463h176zM592 981q55 0 78.5 23t23.5 69q0 51 -23 74.5t-79 23.5h-141v-190h141z" />
    <glyph glyph-name="macron" unicode="&#xaf;" horiz-adv-x="833" 
d="M113 1290q-9 15 -9 33t9 33h579q8 -11 8 -31q0 -22 -8 -35h-579z" />
    <glyph glyph-name="degree" unicode="&#xb0;" horiz-adv-x="749" 
d="M133 1264q0 97 65.5 170t180.5 73q113 0 175 -70.5t62 -166.5q0 -97 -62 -168.5t-175 -71.5q-119 0 -182.5 69t-63.5 165zM575 1268q0 83 -51 141.5t-147 58.5t-149.5 -60.5t-53.5 -141.5q0 -82 52.5 -139.5t150.5 -57.5q96 0 147 58t51 141z" />
    <glyph glyph-name="plusminus" unicode="&#xb1;" horiz-adv-x="1048" 
d="M186 793q-6 7 -6 30q0 10 1.5 18t2.5 11l2 2h308v246q7 6 30 6q10 0 18 -1.5t10 -2.5l3 -2v-246h307q6 -8 6 -31q0 -10 -1.5 -17.5t-2.5 -9.5l-2 -3h-307v-246q-8 -6 -31 -6q-10 0 -17.5 1.5t-10.5 3.5l-2 1v246h-308zM186 305q-6 8 -6 31q0 10 1.5 18t2.5 10l2 3h676
q6 -8 6 -31q0 -10 -1.5 -18t-2.5 -10l-2 -3h-676z" />
    <glyph glyph-name="uni00B2" unicode="&#xb2;" horiz-adv-x="616" 
d="M78 793q0 65 29.5 114t73 75.5t95 53t95 48t73 60t29.5 89.5q0 62 -42 102.5t-142 40.5q-35 0 -73.5 -5t-59.5 -10l-21 -5q-13 20 -10 41q68 24 170 24q120 0 173.5 -50t53.5 -134q0 -55 -23.5 -97.5t-61 -68.5t-82 -48t-88 -44.5t-77.5 -50t-52 -71t-11 -101.5h391
q6 -9 6 -25q0 -13 -6 -22h-432q-8 37 -8 84z" />
    <glyph glyph-name="uni00B3" unicode="&#xb3;" horiz-adv-x="616" 
d="M526 897q0 -199 -266 -199q-44 0 -87.5 7t-64.5 13l-22 7q-4 25 12 37q72 -21 160 -21q67 0 113 13t67.5 36.5t30 48.5t8.5 58q0 81 -50 119.5t-132 38.5h-88q-11 23 0 45h88q76 0 117 37t41 102q0 67 -44 102t-128 35q-43 0 -84.5 -4.5t-61.5 -9.5l-20 -4q-14 18 -11 39
q73 24 177 24q109 0 165 -46.5t56 -133.5q0 -60 -23.5 -98.5t-75.5 -63.5q61 -24 92 -64t31 -118z" />
    <glyph glyph-name="acute" unicode="&#xb4;" horiz-adv-x="458" 
d="M117 1317q-36 3 -49 29l239 307q45 0 66 -35z" />
    <glyph glyph-name="uni00B5" unicode="&#xb5;" horiz-adv-x="1177" 
d="M207 1071q8 6 33 6q11 0 19 -1.5t11 -3.5l2 -1v-776q0 -256 267 -256q121 0 218.5 79t141.5 187v766q8 6 33 6q11 0 19.5 -1.5t10.5 -3.5l3 -1v-1065q-8 -6 -33 -6q-11 0 -19.5 1.5t-10.5 2.5l-3 2v182q-65 -100 -161.5 -154t-213.5 -54q-172 0 -256 104
q3 -208 17 -352.5t27 -185.5l12 -40q-26 -26 -72 -16q-5 16 -12.5 48.5t-20 156.5t-12.5 276v1100z" />
    <glyph glyph-name="paragraph" unicode="&#xb6;" horiz-adv-x="886" 
d="M279 1061q-86 3 -132.5 57t-46.5 129q2 75 50.5 130t134.5 55h55v-1891q-8 -6 -31 -6q-11 0 -18.5 1.5t-9.5 3.5l-2 1v1520zM664 -459q-8 -6 -31 -6q-10 0 -18 1.5t-11 3.5l-2 1v1884q8 7 31 7q10 0 18 -2t11 -4l2 -1v-1884z" />
    <glyph glyph-name="periodcentered" unicode="&#xb7;" horiz-adv-x="442" 
d="M270 539q-16 -7 -49 -7q-15 0 -27 2t-17 4l-5 1v86q16 6 49 6q15 0 27 -1.5t17 -3.5l5 -1v-86z" />
    <glyph glyph-name="cedilla" unicode="&#xb8;" horiz-adv-x="606" 
d="M248 80l55 -4l-22 -129q231 0 231 -180q0 -199 -229 -199q-45 0 -90 12t-67 24l-22 11q3 28 23 45q68 -37 158 -37q77 0 118 36.5t41 107.5q0 60 -38.5 91t-110.5 31h-64l-14 17z" />
    <glyph glyph-name="uni00B9" unicode="&#xb9;" horiz-adv-x="491" 
d="M68 1257q67 18 133.5 61t107.5 89q8 4 25 4q18 0 22 -4v-694q-8 -4 -22 -4q-17 0 -25 4v544q0 59 2 84q-98 -88 -233 -124q-17 14 -10 40z" />
    <glyph glyph-name="ordmasculine" unicode="&#xba;" horiz-adv-x="776" 
d="M387 604q-133 0 -194.5 82.5t-61.5 261.5q0 177 62 259.5t194 82.5t195 -82t63 -260t-63 -261t-195 -83zM387 1245q-111 0 -159 -70t-48 -227q0 -159 47.5 -229t159.5 -70q110 0 159.5 70.5t49.5 228.5q0 156 -49.5 226.5t-159.5 70.5zM156 457q-4 8 -4 22l4 21h462
q5 -7 5 -21l-5 -22h-462z" />
    <glyph glyph-name="guillemotright" unicode="&#xbb;" horiz-adv-x="995" 
d="M879 582q6 -11 6 -29q0 -8 -1.5 -15.5t-3.5 -10.5l-1 -3l-424 -463q-27 13 -27 52l397 440l-397 438q0 37 27 51zM551 580q4 -9 4 -27l-4 -27l-383 -420q-25 12 -25 50l353 397l-353 395q0 36 25 49z" />
    <glyph glyph-name="onequarter" unicode="&#xbc;" horiz-adv-x="1310" 
d="M1028 1432q9 6 27 6q8 0 14 -1.5t8 -2.5l2 -2l-794 -1448q-9 -4 -27 -4l-27 4zM88 1257q67 18 134 61t108 89q8 4 24 4q19 0 23 -4v-694q-8 -4 -23 -4q-16 0 -24 4v544q0 59 2 84q-97 -88 -234 -124q-17 14 -10 40zM1202 246q4 -9 4 -23l-4 -24h-88v-195q-6 -4 -22 -4
l-25 4v195h-377q-4 4 -4 14l4 16l375 469q7 4 25 4l24 -4v-452h88zM1067 629l-307 -383h307v383z" />
    <glyph glyph-name="onehalf" unicode="&#xbd;" horiz-adv-x="1435" 
d="M1028 1432q9 6 27 6q8 0 14 -1.5t8 -2.5l2 -2l-794 -1448q-9 -4 -27 -4l-27 4zM88 1257q67 18 134 61t108 89q8 4 24 4q19 0 23 -4v-694q-8 -4 -23 -4q-16 0 -24 4v544q0 59 2 84q-97 -88 -234 -124q-17 14 -10 40zM870 84q0 57 22 100.5t57 71t77 49.5t84 42t77 42.5
t57 56.5t22 78q0 62 -42.5 103t-142.5 41q-35 0 -73 -5t-59 -11l-21 -5q-13 20 -10 41q67 25 169 25q120 0 174 -50.5t54 -134.5q0 -55 -23.5 -97.5t-61 -68.5t-82 -48t-88 -44.5t-77.5 -50t-52 -71t-11 -101.5h391q6 -9 6 -24q0 -14 -6 -23h-432q-9 37 -9 84z" />
    <glyph glyph-name="threequarters" unicode="&#xbe;" horiz-adv-x="1429" 
d="M1149 1432q9 6 27 6q8 0 14 -1.5t8 -2.5l2 -2l-794 -1448q-9 -4 -27 -4l-27 4zM563 897q0 -199 -266 -199q-44 0 -87.5 7t-65.5 13l-21 7q-4 25 12 37q72 -21 160 -21q67 0 113 13t67.5 36.5t30 48.5t8.5 58q0 81 -50 119.5t-132 38.5h-88q-11 23 0 45h88q76 0 116.5 37
t40.5 102q0 67 -44 102t-128 35q-43 0 -84 -4.5t-61 -9.5l-20 -4q-14 18 -11 39q72 24 176 24q109 0 165.5 -46.5t56.5 -133.5q0 -60 -23.5 -98.5t-75.5 -63.5q61 -24 92 -64t31 -118zM1323 246q4 -9 4 -23l-4 -24h-88v-195q-7 -4 -23 -4l-24 4v195h-377q-4 4 -4 14l4 16
l375 469q6 4 24 4l25 -4v-452h88zM1188 629l-307 -383h307v383z" />
    <glyph glyph-name="questiondown" unicode="&#xbf;" horiz-adv-x="860" 
d="M477 1059q16 6 49 6q15 0 27 -1.5t17 -3.5l5 -1v-86q-16 -6 -49 -6q-15 0 -27 1.5t-17 3.5l-5 1v86zM106 -31q0 83 21.5 149t56 111t76.5 84.5t84 79.5t76.5 86.5t56 116t21.5 156.5q10 8 30 8q8 0 15 -2t11 -4l3 -2q0 -96 -21 -172.5t-54.5 -125.5t-73.5 -90t-80.5 -78
t-74 -77.5t-54.5 -100.5t-21 -135q0 -114 71.5 -186t227.5 -72q77 0 148 13t103 26l32 13q12 -7 18 -22.5t4 -29.5q-14 -7 -39.5 -17.5t-106.5 -28t-165 -17.5q-95 0 -167 26t-114 71t-63 100t-21 120z" />
    <glyph glyph-name="Agrave" unicode="&#xc0;" horiz-adv-x="1310" 
d="M451 1851q10 14 28 24.5t37 10.5l240 -307q-13 -26 -49 -29zM293 446l-176 -440q-10 -6 -37 -6q-12 0 -20 1.5t-10 2.5l-3 2l580 1462q8 7 28 7q8 0 15.5 -1.5t10.5 -3.5l3 -2l580 -1462q-10 -6 -37 -6q-10 0 -19.5 1.5t-13.5 2.5l-4 2l-174 440h-723zM989 512l-307 780
q-9 23 -15 42.5t-8 27.5l-2 8h-4q-8 -29 -26 -78l-310 -780h672z" />
    <glyph glyph-name="Aacute" unicode="&#xc1;" horiz-adv-x="1310" 
d="M616 1552q-36 3 -49 29l240 307q44 0 65 -35zM293 446l-176 -440q-10 -6 -37 -6q-12 0 -20 1.5t-10 2.5l-3 2l580 1462q8 7 28 7q8 0 15.5 -1.5t10.5 -3.5l3 -2l580 -1462q-10 -6 -37 -6q-10 0 -19.5 1.5t-13.5 2.5l-4 2l-174 440h-723zM989 512l-307 780q-9 23 -15 42.5
t-8 27.5l-2 8h-4q-8 -29 -26 -78l-310 -780h672z" />
    <glyph glyph-name="Acircumflex" unicode="&#xc2;" horiz-adv-x="1310" 
d="M934 1622q-7 -35 -33 -41l-248 184l-243 -186q-30 12 -35 43l254 207h53zM293 446l-176 -440q-10 -6 -37 -6q-12 0 -20 1.5t-10 2.5l-3 2l580 1462q8 7 28 7q8 0 15.5 -1.5t10.5 -3.5l3 -2l580 -1462q-10 -6 -37 -6q-10 0 -19.5 1.5t-13.5 2.5l-4 2l-174 440h-723z
M989 512l-307 780q-9 23 -15 42.5t-8 27.5l-2 8h-4q-8 -29 -26 -78l-310 -780h672z" />
    <glyph glyph-name="Atilde" unicode="&#xc3;" horiz-adv-x="1310" 
d="M770 1651q25 0 45 14.5t27 29.5l8 15q36 4 53 -22q-2 -4 -5 -10.5t-15.5 -23t-27.5 -29.5t-40.5 -23.5t-54.5 -10.5q-52 0 -117 37t-102 37q-25 0 -45 -15.5t-28 -30.5l-7 -15q-39 -3 -53 22q2 4 5 10.5t15.5 23.5t27.5 30t40.5 23.5t54.5 10.5q51 0 117 -36.5t102 -36.5
zM293 446l-176 -440q-10 -6 -37 -6q-12 0 -20 1.5t-10 2.5l-3 2l580 1462q8 7 28 7q8 0 15.5 -1.5t10.5 -3.5l3 -2l580 -1462q-10 -6 -37 -6q-10 0 -19.5 1.5t-13.5 2.5l-4 2l-174 440h-723zM989 512l-307 780q-9 23 -15 42.5t-8 27.5l-2 8h-4q-8 -29 -26 -78l-310 -780h672
z" />
    <glyph glyph-name="Adieresis" unicode="&#xc4;" horiz-adv-x="1310" 
d="M559 1624q-16 -6 -49 -6q-15 0 -27 1.5t-17 2.5l-5 2v86q16 6 49 6q15 0 27 -1.5t17 -2.5l5 -2v-86zM848 1624q-16 -6 -49 -6q-15 0 -27 1.5t-17 2.5l-5 2v86q16 6 49 6q15 0 27 -1.5t17 -2.5l5 -2v-86zM293 446l-176 -440q-10 -6 -37 -6q-12 0 -20 1.5t-10 2.5l-3 2
l580 1462q8 7 28 7q8 0 15.5 -1.5t10.5 -3.5l3 -2l580 -1462q-10 -6 -37 -6q-10 0 -19.5 1.5t-13.5 2.5l-4 2l-174 440h-723zM989 512l-307 780q-9 23 -15 42.5t-8 27.5l-2 8h-4q-8 -29 -26 -78l-310 -780h672z" />
    <glyph glyph-name="Aring" unicode="&#xc5;" horiz-adv-x="1310" 
d="M1264 6q-10 -6 -37 -6q-10 0 -19.5 1.5t-13.5 2.5l-4 2l-174 440h-723l-176 -440q-10 -6 -37 -6q-12 0 -20 1.5t-10 2.5l-3 2l563 1421q-77 13 -130.5 70t-53.5 143q0 99 67.5 156t161.5 57q93 0 162.5 -56.5t69.5 -156.5q0 -86 -54.5 -142t-132.5 -71zM653 1794
q-78 0 -119.5 -45t-41.5 -109q0 -65 41.5 -111t119.5 -46q80 0 124 46.5t44 110.5t-44 109t-124 45zM682 1292q-9 23 -15 42.5t-8 27.5l-2 8h-4q-8 -29 -26 -78l-310 -780h672z" />
    <glyph glyph-name="AE" unicode="&#xc6;" horiz-adv-x="1736" 
d="M104 6q-15 -6 -34 -6q-27 0 -39 6l887 1469h686q8 -12 8 -32.5t-8 -33.5h-603v-629h500q17 -34 0 -65h-500v-649h623q8 -13 8 -32.5t-8 -33.5h-692v420h-578zM932 1376l-539 -891h539v891z" />
    <glyph glyph-name="Ccedilla" unicode="&#xc7;" horiz-adv-x="1136" 
d="M1049 47q-5 -3 -14.5 -7.5t-43.5 -16t-72.5 -20.5t-101.5 -16t-131 -7h-10l-23 -97q232 0 232 -180q0 -96 -56.5 -138t-173.5 -42q-45 0 -89.5 11.5t-66.5 23.5l-22 12q3 28 23 45q67 -37 157 -37q81 0 122.5 28t41.5 97q0 59 -40 91t-113 32h-64l-14 16l35 140
q-240 20 -357.5 206t-117.5 549q0 379 133 568.5t403 189.5q99 0 184 -16.5t120 -32.5l36 -16q4 -15 -4 -31q-4 -8 -9 -14.5t-9 -8.5l-3 -2q-13 6 -38 16t-104.5 26t-162.5 16q-112 0 -195 -34t-147.5 -112t-97.5 -216t-33 -335q0 -158 22 -277.5t61.5 -197.5t99.5 -126.5
t130 -68.5t160 -20t172 14t119 29l37 14q12 -4 20 -22q4 -8 5 -16t1 -12z" />
    <glyph glyph-name="Egrave" unicode="&#xc8;" horiz-adv-x="1140" 
d="M383 1851q10 14 28.5 24.5t37.5 10.5l239 -307q-13 -26 -49 -29zM1008 1475q6 -12 6 -33t-6 -33h-719v-629h616q6 -12 6 -30t-6 -33h-616v-651h739q6 -15 6 -31q0 -20 -6 -35h-809v1475h789z" />
    <glyph glyph-name="Eacute" unicode="&#xc9;" horiz-adv-x="1140" 
d="M504 1554q-36 3 -49 29l239 307q45 0 66 -35zM1008 1475q6 -12 6 -33t-6 -33h-719v-629h616q6 -12 6 -30t-6 -33h-616v-651h739q6 -15 6 -31q0 -20 -6 -35h-809v1475h789z" />
    <glyph glyph-name="Ecircumflex" unicode="&#xca;" horiz-adv-x="1140" 
d="M883 1622q-7 -35 -33 -41l-248 184l-244 -186q-29 11 -34 43l254 207h53zM1008 1475q6 -12 6 -33t-6 -33h-719v-629h616q6 -12 6 -30t-6 -33h-616v-651h739q6 -15 6 -31q0 -20 -6 -35h-809v1475h789z" />
    <glyph glyph-name="Edieresis" unicode="&#xcb;" horiz-adv-x="1140" 
d="M532 1599q-16 -6 -49 -6q-15 0 -27 1.5t-17 3.5l-5 1v87q16 6 49 6q15 0 27 -1.5t17 -2.5l5 -2v-87zM821 1599q-16 -6 -49 -6q-15 0 -27 1.5t-17 3.5l-5 1v87q16 6 49 6q15 0 27 -1.5t17 -2.5l5 -2v-87zM1008 1475q6 -12 6 -33t-6 -33h-719v-629h616q6 -12 6 -30t-6 -33
h-616v-651h739q6 -15 6 -31q0 -20 -6 -35h-809v1475h789z" />
    <glyph glyph-name="Igrave" unicode="&#xcc;" horiz-adv-x="503" 
d="M59 1851q10 14 28.5 24.5t37.5 10.5l240 -307q-13 -26 -50 -29zM217 1468q10 7 35 7q11 0 20 -1.5t12 -3.5l3 -2v-1462q-10 -6 -35 -6q-11 0 -20 1.5t-12 2.5l-3 2v1462z" />
    <glyph glyph-name="Iacute" unicode="&#xcd;" horiz-adv-x="503" 
d="M160 1554q-36 3 -49 29l239 307q45 0 66 -35zM217 1468q10 7 35 7q11 0 20 -1.5t12 -3.5l3 -2v-1462q-10 -6 -35 -6q-11 0 -20 1.5t-12 2.5l-3 2v1462z" />
    <glyph glyph-name="Icircumflex" unicode="&#xce;" horiz-adv-x="503" 
d="M530 1622q-7 -35 -32 -41l-248 184l-244 -186q-30 12 -35 43l254 207h54zM217 1468q10 7 35 7q11 0 20 -1.5t12 -3.5l3 -2v-1462q-10 -6 -35 -6q-11 0 -20 1.5t-12 2.5l-3 2v1462z" />
    <glyph glyph-name="Idieresis" unicode="&#xcf;" horiz-adv-x="503" 
d="M158 1583q-16 -6 -49 -6q-15 0 -27.5 1.5t-17.5 3.5l-5 1v86q17 6 50 6q15 0 27 -1.5t17 -3.5l5 -1v-86zM446 1583q-16 -6 -49 -6q-15 0 -27 1.5t-17 3.5l-5 1v86q16 6 49 6q15 0 27 -1.5t17 -3.5l5 -1v-86zM217 1468q10 7 35 7q11 0 20 -1.5t12 -3.5l3 -2v-1462
q-10 -6 -35 -6q-11 0 -20 1.5t-12 2.5l-3 2v1462z" />
    <glyph glyph-name="Eth" unicode="&#xd0;" horiz-adv-x="1359" 
d="M618 1475q122 0 212.5 -22t163.5 -73.5t118.5 -136t69.5 -210.5t24 -296q0 -212 -35.5 -355.5t-112 -227.5t-182 -119t-258.5 -35h-387v700h-178q-6 11 -6 31q0 9 1.5 16.5t3.5 10.5l1 4h178v713h387zM610 66q107 0 186 18.5t145 64t107 121.5t63 192t22 275
q0 160 -22 276t-63 192.5t-107 121.5t-145 63.5t-186 18.5h-309v-647h315q7 -11 7 -31q0 -8 -1.5 -15.5t-3.5 -11.5l-2 -4h-315v-634h309z" />
    <glyph glyph-name="Ntilde" unicode="&#xd1;" horiz-adv-x="1413" 
d="M836 1636q25 0 45 15t27 30l7 15q36 4 54 -23q-2 -4 -5 -10.5t-15.5 -23t-27.5 -29t-41 -23t-55 -10.5q-41 0 -79.5 18.5t-73 37t-66.5 18.5q-25 0 -45 -15.5t-27 -31.5l-8 -15q-38 -3 -53 23q2 4 5 10.5t15.5 23.5t27.5 30t40.5 23.5t54.5 10.5q41 0 80 -18.5t73.5 -37
t66.5 -18.5zM377 1210q-31 48 -54.5 91t-31.5 62l-8 19h-4q6 -73 6 -266v-1110q-10 -6 -35 -6q-10 0 -18.5 1.5t-11.5 2.5l-3 2v1462q14 7 41 7q12 0 21.5 -1.5t13.5 -3.5l4 -2l733 -1187q27 -44 53 -90t38 -71l12 -24h4q-9 99 -9 246v1126q10 7 35 7q10 0 18.5 -1.5
t11.5 -3.5l3 -2v-1462q-12 -6 -39 -6q-13 0 -23 1.5t-14 2.5l-4 2z" />
    <glyph glyph-name="Ograve" unicode="&#xd2;" horiz-adv-x="1388" 
d="M532 1851q10 14 28.5 24.5t37.5 10.5l240 -307q-13 -26 -50 -29zM694 -20q-261 0 -401.5 185t-140.5 572t140.5 572.5t401.5 185.5q262 0 402.5 -185.5t140.5 -572.5t-140.5 -572t-402.5 -185zM694 1434q-469 0 -469 -697q0 -696 469 -696t469 696q0 697 -469 697z" />
    <glyph glyph-name="Oacute" unicode="&#xd3;" horiz-adv-x="1388" 
d="M715 1554q-36 3 -49 29l239 307q45 0 66 -35zM694 -20q-261 0 -401.5 185t-140.5 572t140.5 572.5t401.5 185.5q262 0 402.5 -185.5t140.5 -572.5t-140.5 -572t-402.5 -185zM694 1434q-469 0 -469 -697q0 -696 469 -696t469 696q0 697 -469 697z" />
    <glyph glyph-name="Ocircumflex" unicode="&#xd4;" horiz-adv-x="1388" 
d="M977 1622q-7 -35 -33 -41l-248 184l-243 -186q-30 12 -35 43l254 207h53zM694 -20q-261 0 -401.5 185t-140.5 572t140.5 572.5t401.5 185.5q262 0 402.5 -185.5t140.5 -572.5t-140.5 -572t-402.5 -185zM694 1434q-469 0 -469 -697q0 -696 469 -696t469 696
q0 697 -469 697z" />
    <glyph glyph-name="Otilde" unicode="&#xd5;" horiz-adv-x="1388" 
d="M834 1661q25 0 45 14.5t27 29.5l7 15q37 4 54 -22q-2 -4 -5 -10.5t-15.5 -23t-27.5 -29t-41 -23t-55 -10.5q-51 0 -117 36.5t-102 36.5q-25 0 -45 -15.5t-27 -30.5l-8 -15q-39 -3 -53 22q2 4 5 10.5t15.5 24t27.5 30.5t40.5 23.5t54.5 10.5q41 0 80 -18.5t73.5 -37
t66.5 -18.5zM694 -20q-261 0 -401.5 185t-140.5 572t140.5 572.5t401.5 185.5q262 0 402.5 -185.5t140.5 -572.5t-140.5 -572t-402.5 -185zM694 1434q-469 0 -469 -697q0 -696 469 -696t469 696q0 697 -469 697z" />
    <glyph glyph-name="Odieresis" unicode="&#xd6;" horiz-adv-x="1388" 
d="M596 1624q-16 -6 -49 -6q-15 0 -27 1.5t-17 2.5l-5 2v86q16 6 49 6q15 0 27 -1.5t17 -2.5l5 -2v-86zM885 1624q-16 -6 -49 -6q-15 0 -27.5 1.5t-17.5 2.5l-5 2v86q17 6 50 6q15 0 27 -1.5t17 -2.5l5 -2v-86zM694 -20q-261 0 -401.5 185t-140.5 572t140.5 572.5
t401.5 185.5q262 0 402.5 -185.5t140.5 -572.5t-140.5 -572t-402.5 -185zM694 1434q-469 0 -469 -697q0 -696 469 -696t469 696q0 697 -469 697z" />
    <glyph glyph-name="multiply" unicode="&#xd7;" horiz-adv-x="927" 
d="M229 305q-14 7 -28 23q-7 6 -13 13t-8 11l-2 4l236 236l-236 235q7 15 23 29q6 7 13 12.5t11 7.5l4 1l236 -234l235 234q15 -5 29 -21q7 -6 12.5 -13.5t6.5 -11.5l2 -4l-234 -235l234 -236q-5 -14 -21 -28q-6 -7 -13.5 -13t-11.5 -8l-4 -2l-235 236z" />
    <glyph glyph-name="Oslash" unicode="&#xd8;" horiz-adv-x="1388" 
d="M1057 1356q180 -183 180 -619q0 -387 -140.5 -572t-402.5 -185q-209 0 -338 114l-102 -184q-12 -6 -39 -6q-11 0 -20.5 1.5t-12.5 2.5l-4 2l129 235q-155 188 -155 592q0 387 140.5 572.5t401.5 185.5q189 0 312 -92l88 160q14 8 39 8q14 0 23.5 -2t11.5 -4l3 -2z
M694 1434q-469 0 -469 -697q0 -349 119 -526l629 1132q-113 91 -279 91zM391 156q112 -115 303 -115q469 0 469 696q0 381 -141 555z" />
    <glyph glyph-name="Ugrave" unicode="&#xd9;" horiz-adv-x="1357" 
d="M463 1851q10 14 28 24.5t37 10.5l240 -307q-13 -26 -49 -29zM1151 455q0 -225 -128.5 -350t-344.5 -125q-215 0 -343 125.5t-128 349.5v1013q12 7 35 7q11 0 19.5 -1.5t11.5 -3.5l3 -2v-1022q0 -193 107.5 -299t298.5 -106q190 0 295.5 106t105.5 299v1022q13 7 33 7
q10 0 19 -1.5t13 -3.5l3 -2v-1013z" />
    <glyph glyph-name="Uacute" unicode="&#xda;" horiz-adv-x="1357" 
d="M604 1554q-36 3 -49 29l240 307q44 0 65 -35zM1151 455q0 -225 -128.5 -350t-344.5 -125q-215 0 -343 125.5t-128 349.5v1013q12 7 35 7q11 0 19.5 -1.5t11.5 -3.5l3 -2v-1022q0 -193 107.5 -299t298.5 -106q190 0 295.5 106t105.5 299v1022q13 7 33 7q10 0 19 -1.5
t13 -3.5l3 -2v-1013z" />
    <glyph glyph-name="Ucircumflex" unicode="&#xdb;" horiz-adv-x="1357" 
d="M961 1622q-7 -35 -33 -41l-248 184l-244 -186q-30 12 -35 43l254 207h54zM1151 455q0 -225 -128.5 -350t-344.5 -125q-215 0 -343 125.5t-128 349.5v1013q12 7 35 7q11 0 19.5 -1.5t11.5 -3.5l3 -2v-1022q0 -193 107.5 -299t298.5 -106q190 0 295.5 106t105.5 299v1022
q13 7 33 7q10 0 19 -1.5t13 -3.5l3 -2v-1013z" />
    <glyph glyph-name="Udieresis" unicode="&#xdc;" horiz-adv-x="1357" 
d="M580 1542q-17 -6 -50 -6q-15 0 -27 1.5t-17 2.5l-5 2v86q16 6 49 6q15 0 27.5 -1.5t17.5 -2.5l5 -2v-86zM868 1542q-16 -6 -49 -6q-15 0 -27 1.5t-17 2.5l-5 2v86q16 6 49 6q15 0 27 -1.5t17 -2.5l5 -2v-86zM1151 455q0 -225 -128.5 -350t-344.5 -125q-215 0 -343 125.5
t-128 349.5v1013q12 7 35 7q11 0 19.5 -1.5t11.5 -3.5l3 -2v-1022q0 -193 107.5 -299t298.5 -106q190 0 295.5 106t105.5 299v1022q13 7 33 7q10 0 19 -1.5t13 -3.5l3 -2v-1013z" />
    <glyph glyph-name="Yacute" unicode="&#xdd;" horiz-adv-x="1257" 
d="M575 1554q-36 3 -49 29l240 307q44 0 65 -35zM57 1468q14 7 43 7q13 0 23 -1.5t14 -3.5l4 -2l486 -768l501 768q10 7 39 7q15 0 25.5 -1.5t13.5 -3.5l4 -2l-548 -843v-619q-12 -6 -35 -6q-10 0 -19 1.5t-12 2.5l-4 2v617z" />
    <glyph glyph-name="Thorn" unicode="&#xde;" horiz-adv-x="1226" 
d="M287 6q-8 -6 -35 -6q-8 0 -14 0.5t-10 1.5t-6.5 2t-3.5 2h-1v1462q8 7 35 7q12 0 20.5 -1.5t11.5 -3.5l3 -2v-299h426q187 0 292 -111t105 -298q0 -186 -105.5 -297t-291.5 -111h-426v-346zM715 418q153 0 237 90.5t84 249.5q0 163 -84 254.5t-237 91.5h-428v-686h428z
" />
    <glyph glyph-name="germandbls" unicode="&#xdf;" horiz-adv-x="1165" 
d="M186 1139q0 397 400 397q94 0 166 -30t114 -80t63 -110.5t21 -127.5q0 -52 -11 -101t-21 -73l-11 -23h-14.5t-36.5 -3.5t-51 -10.5t-54 -21.5t-51.5 -35t-36 -54t-14.5 -75.5q0 -47 23 -84t59.5 -63t81 -50.5t89 -53.5t81 -64.5t59.5 -90.5t23 -125q0 -128 -83 -204
t-239 -76q-63 0 -113.5 8.5t-69.5 17.5l-19 8q-4 37 18 52q29 -9 82 -17t92 -8q137 0 199.5 60t62.5 155q0 62 -23 110t-59.5 79.5t-80.5 58t-88.5 52t-81 55t-59.5 74.5t-23 103q0 50 15.5 91.5t40 67.5t54 46t59 30t54 15.5t39.5 7.5l16 1q21 61 21 141q0 59 -16.5 108.5
t-50 90.5t-92 64.5t-136.5 23.5q-175 0 -253.5 -86t-78.5 -250v-1133q-8 -6 -33 -6q-11 0 -19.5 1.5t-11.5 2.5l-2 2v1133z" />
    <glyph glyph-name="agrave" unicode="&#xe0;" horiz-adv-x="1044" 
d="M317 1532q10 14 28.5 24.5t37.5 10.5l240 -307q-13 -26 -50 -29zM801 741q0 158 -70.5 227.5t-214.5 69.5q-73 0 -148.5 -14t-115.5 -28l-39 -13q-27 20 -23 55q18 7 49 17t119 26.5t166 16.5q86 0 147 -19t99 -52.5t59.5 -90.5t29 -120t7.5 -154v-656q-8 -6 -26 -6
q-8 0 -15 1.5t-9 2.5l-3 2l-12 184v3q-47 -102 -145 -157.5t-230 -55.5q-143 0 -230 82.5t-87 226.5q0 149 93 231t283 82q173 0 316 -20v159zM178 289q0 -123 68.5 -185.5t187.5 -62.5q161 0 264 103.5t103 281.5v96q-3 0 -46 4.5t-75.5 7.5t-85 6t-96.5 3
q-163 0 -241.5 -63t-78.5 -191z" />
    <glyph glyph-name="aacute" unicode="&#xe1;" horiz-adv-x="1044" 
d="M430 1249q-36 3 -49 29l240 307q44 0 65 -35zM801 741q0 158 -70.5 227.5t-214.5 69.5q-73 0 -148.5 -14t-115.5 -28l-39 -13q-27 20 -23 55q18 7 49 17t119 26.5t166 16.5q86 0 147 -19t99 -52.5t59.5 -90.5t29 -120t7.5 -154v-656q-8 -6 -26 -6q-8 0 -15 1.5t-9 2.5
l-3 2l-12 184v3q-47 -102 -145 -157.5t-230 -55.5q-143 0 -230 82.5t-87 226.5q0 149 93 231t283 82q173 0 316 -20v159zM178 289q0 -123 68.5 -185.5t187.5 -62.5q161 0 264 103.5t103 281.5v96q-3 0 -46 4.5t-75.5 7.5t-85 6t-96.5 3q-163 0 -241.5 -63t-78.5 -191z" />
    <glyph glyph-name="acircumflex" unicode="&#xe2;" horiz-adv-x="1044" 
d="M788 1274q-7 -34 -32 -39l-242 180l-240 -182q-26 10 -32 41l247 203h52zM801 741q0 158 -70.5 227.5t-214.5 69.5q-73 0 -148.5 -14t-115.5 -28l-39 -13q-27 20 -23 55q18 7 49 17t119 26.5t166 16.5q86 0 147 -19t99 -52.5t59.5 -90.5t29 -120t7.5 -154v-656
q-8 -6 -26 -6q-8 0 -15 1.5t-9 2.5l-3 2l-12 184v3q-47 -102 -145 -157.5t-230 -55.5q-143 0 -230 82.5t-87 226.5q0 149 93 231t283 82q173 0 316 -20v159zM178 289q0 -123 68.5 -185.5t187.5 -62.5q161 0 264 103.5t103 281.5v96q-3 0 -46 4.5t-75.5 7.5t-85 6t-96.5 3
q-163 0 -241.5 -63t-78.5 -191z" />
    <glyph glyph-name="atilde" unicode="&#xe3;" horiz-adv-x="1044" 
d="M641 1352q25 0 45 15t28 29l7 15q36 4 53 -22q-2 -4 -5 -10.5t-15.5 -23t-27.5 -29.5t-40.5 -23.5t-54.5 -10.5q-41 0 -79.5 18.5t-73 37t-66.5 18.5q-25 0 -45 -15t-27 -31l-8 -15q-39 -3 -53 22q2 4 5 10.5t15.5 23.5t27.5 30t40.5 23.5t54.5 10.5q52 0 117 -36.5
t102 -36.5zM801 741q0 158 -70.5 227.5t-214.5 69.5q-73 0 -148.5 -14t-115.5 -28l-39 -13q-27 20 -23 55q18 7 49 17t119 26.5t166 16.5q86 0 147 -19t99 -52.5t59.5 -90.5t29 -120t7.5 -154v-656q-8 -6 -26 -6q-8 0 -15 1.5t-9 2.5l-3 2l-12 184v3q-47 -102 -145 -157.5
t-230 -55.5q-143 0 -230 82.5t-87 226.5q0 149 93 231t283 82q173 0 316 -20v159zM178 289q0 -123 68.5 -185.5t187.5 -62.5q161 0 264 103.5t103 281.5v96q-3 0 -46 4.5t-75.5 7.5t-85 6t-96.5 3q-163 0 -241.5 -63t-78.5 -191z" />
    <glyph glyph-name="adieresis" unicode="&#xe4;" horiz-adv-x="1044" 
d="M420 1321q-16 -6 -49 -6q-15 0 -27 1.5t-17 3.5l-5 1v86q16 6 49 6q15 0 27 -1.5t17 -3.5l5 -1v-86zM709 1321q-17 -6 -50 -6q-15 0 -27 1.5t-17 3.5l-5 1v86q16 6 49 6q15 0 27.5 -1.5t17.5 -3.5l5 -1v-86zM801 741q0 158 -70.5 227.5t-214.5 69.5q-73 0 -148.5 -14
t-115.5 -28l-39 -13q-27 20 -23 55q18 7 49 17t119 26.5t166 16.5q86 0 147 -19t99 -52.5t59.5 -90.5t29 -120t7.5 -154v-656q-8 -6 -26 -6q-8 0 -15 1.5t-9 2.5l-3 2l-12 184v3q-47 -102 -145 -157.5t-230 -55.5q-143 0 -230 82.5t-87 226.5q0 149 93 231t283 82
q173 0 316 -20v159zM178 289q0 -123 68.5 -185.5t187.5 -62.5q161 0 264 103.5t103 281.5v96q-3 0 -46 4.5t-75.5 7.5t-85 6t-96.5 3q-163 0 -241.5 -63t-78.5 -191z" />
    <glyph glyph-name="aring" unicode="&#xe5;" horiz-adv-x="1044" 
d="M518 1219q-100 0 -163.5 57.5t-63.5 159.5q0 99 67.5 156t161.5 57q93 0 162.5 -56.5t69.5 -156.5q0 -101 -67.5 -159t-166.5 -58zM686 1436q0 64 -44 108.5t-124 44.5q-78 0 -120 -44.5t-42 -108.5q0 -65 42 -111.5t120 -46.5q80 0 124 47t44 111zM801 741
q0 158 -70.5 227.5t-214.5 69.5q-73 0 -148.5 -14t-115.5 -28l-39 -13q-27 20 -23 55q18 7 49 17t119 26.5t166 16.5q86 0 147 -19t99 -52.5t59.5 -90.5t29 -120t7.5 -154v-656q-8 -6 -26 -6q-8 0 -15 1.5t-9 2.5l-3 2l-12 184v3q-47 -102 -145 -157.5t-230 -55.5
q-143 0 -230 82.5t-87 226.5q0 149 93 231t283 82q173 0 316 -20v159zM178 289q0 -123 68.5 -185.5t187.5 -62.5q161 0 264 103.5t103 281.5v96q-3 0 -46 4.5t-75.5 7.5t-85 6t-96.5 3q-163 0 -241.5 -63t-78.5 -191z" />
    <glyph glyph-name="ae" unicode="&#xe6;" horiz-adv-x="1595" 
d="M829 535q9 -249 87.5 -369.5t232.5 -120.5q71 0 131 20t84 40l25 20q31 -15 34 -51q-4 -4 -11 -10t-33.5 -22.5t-56.5 -29t-79 -22.5t-102 -10q-129 0 -217.5 72t-126.5 212q-35 -137 -136.5 -210.5t-254.5 -73.5q-135 0 -216 82.5t-81 226.5q0 307 356 307h295v145
q0 159 -64.5 228t-199.5 69q-68 0 -139 -14t-107 -28l-37 -13q-27 20 -23 55q17 7 46 17t111.5 26.5t156.5 16.5q135 0 210 -58.5t99 -173.5q42 116 126.5 174t201.5 58q165 0 250.5 -104t85.5 -273q0 -48 -5.5 -94.5t-11.5 -68.5l-6 -23h-625zM1407 731q0 134 -64 219.5
t-202 85.5q-136 0 -221 -106.5t-91 -333.5h568q10 39 10 135zM178 289q0 -123 63 -185.5t173 -62.5q153 0 249.5 103.5t96.5 281.5v109h-283q-156 0 -227.5 -59t-71.5 -187z" />
    <glyph glyph-name="ccedilla" unicode="&#xe7;" horiz-adv-x="911" 
d="M494 -123q225 0 225 -164q0 -93 -57 -142.5t-168 -49.5q-44 0 -88 11.5t-66 23.5l-21 12q3 28 23 45q66 -37 154 -37q76 0 116.5 35t40.5 102q0 111 -147 111h-62l-14 16l45 146q-164 28 -253 169.5t-89 383.5q0 272 110.5 415.5t313.5 143.5q69 0 128.5 -12t84.5 -24
l25 -11q0 -39 -25 -58q-9 5 -25 11.5t-67.5 18t-106.5 11.5q-187 0 -277.5 -124t-90.5 -371q0 -248 93 -370t284 -122q58 0 111 11.5t77 23.5l23 12q25 -15 28 -55q-11 -7 -32 -16.5t-89 -26t-141 -16.5l-35 2z" />
    <glyph glyph-name="egrave" unicode="&#xe8;" horiz-adv-x="1040" 
d="M346 1550q10 14 28.5 24.5t37.5 10.5l239 -307q-13 -26 -49 -29zM203 516q9 -248 96.5 -358.5t267.5 -110.5q48 0 92.5 8.5t74.5 20.5t53 24t33 20l11 9q32 -18 35 -55q-4 -4 -12.5 -10t-39 -22.5t-64.5 -29t-89 -22.5t-114 -10q-201 0 -307.5 144t-106.5 421
q0 279 113 416t307 137q177 0 272 -104.5t95 -272.5q0 -56 -6 -107t-12 -74l-5 -24h-694zM850 731q0 132 -74 218.5t-223 86.5q-161 0 -252.5 -113t-97.5 -345h635q12 57 12 153z" />
    <glyph glyph-name="eacute" unicode="&#xe9;" horiz-adv-x="1040" 
d="M449 1249q-37 3 -50 29l240 307q45 0 66 -35zM203 516q9 -248 96.5 -358.5t267.5 -110.5q48 0 92.5 8.5t74.5 20.5t53 24t33 20l11 9q32 -18 35 -55q-4 -4 -12.5 -10t-39 -22.5t-64.5 -29t-89 -22.5t-114 -10q-201 0 -307.5 144t-106.5 421q0 279 113 416t307 137
q177 0 272 -104.5t95 -272.5q0 -56 -6 -107t-12 -74l-5 -24h-694zM850 731q0 132 -74 218.5t-223 86.5q-161 0 -252.5 -113t-97.5 -345h635q12 57 12 153z" />
    <glyph glyph-name="ecircumflex" unicode="&#xea;" horiz-adv-x="1040" 
d="M825 1274q-7 -34 -32 -39l-242 180l-240 -182q-26 10 -32 41l247 203h52zM203 516q9 -248 96.5 -358.5t267.5 -110.5q48 0 92.5 8.5t74.5 20.5t53 24t33 20l11 9q32 -18 35 -55q-4 -4 -12.5 -10t-39 -22.5t-64.5 -29t-89 -22.5t-114 -10q-201 0 -307.5 144t-106.5 421
q0 279 113 416t307 137q177 0 272 -104.5t95 -272.5q0 -56 -6 -107t-12 -74l-5 -24h-694zM850 731q0 132 -74 218.5t-223 86.5q-161 0 -252.5 -113t-97.5 -345h635q12 57 12 153z" />
    <glyph glyph-name="edieresis" unicode="&#xeb;" horiz-adv-x="1040" 
d="M459 1321q-16 -6 -49 -6q-15 0 -27.5 1.5t-17.5 3.5l-5 1v86q17 6 50 6q15 0 27 -1.5t17 -3.5l5 -1v-86zM748 1321q-17 -6 -50 -6q-15 0 -27 1.5t-17 3.5l-5 1v86q16 6 49 6q15 0 27.5 -1.5t17.5 -3.5l5 -1v-86zM203 516q9 -248 96.5 -358.5t267.5 -110.5q48 0 92.5 8.5
t74.5 20.5t53 24t33 20l11 9q32 -18 35 -55q-4 -4 -12.5 -10t-39 -22.5t-64.5 -29t-89 -22.5t-114 -10q-201 0 -307.5 144t-106.5 421q0 279 113 416t307 137q177 0 272 -104.5t95 -272.5q0 -56 -6 -107t-12 -74l-5 -24h-694zM850 731q0 132 -74 218.5t-223 86.5
q-161 0 -252.5 -113t-97.5 -345h635q12 57 12 153z" />
    <glyph glyph-name="igrave" unicode="&#xec;" horiz-adv-x="450" 
d="M20 1554q10 14 28.5 24.5t37.5 10.5l240 -307q-13 -26 -50 -29zM258 6q-8 -6 -33 -6q-11 0 -19 1.5t-10 2.5l-3 2v1065q7 6 32 6q11 0 19.5 -1.5t11.5 -3.5l2 -1v-1065z" />
    <glyph glyph-name="iacute" unicode="&#xed;" horiz-adv-x="450" 
d="M154 1249q-37 3 -50 29l240 307q45 0 66 -35zM258 6q-8 -6 -33 -6q-11 0 -19 1.5t-10 2.5l-3 2v1065q7 6 32 6q11 0 19.5 -1.5t11.5 -3.5l2 -1v-1065z" />
    <glyph glyph-name="icircumflex" unicode="&#xee;" horiz-adv-x="454" 
d="M504 1274q-7 -33 -33 -39l-242 180l-239 -182q-27 11 -33 41l248 203h51zM260 6q-8 -6 -33 -6q-11 0 -19 1.5t-10 2.5l-3 2v1065q7 6 32 6q11 0 19.5 -1.5t11.5 -3.5l2 -1v-1065z" />
    <glyph glyph-name="idieresis" unicode="&#xef;" horiz-adv-x="454" 
d="M127 1239q-16 -6 -49 -6q-15 0 -27 1.5t-17 3.5l-5 1v86q16 6 49 6q15 0 27 -1.5t17 -3.5l5 -1v-86zM416 1239q-16 -6 -49 -6q-15 0 -27.5 1.5t-17.5 3.5l-5 1v86q17 6 50 6q15 0 27 -1.5t17 -3.5l5 -1v-86zM260 6q-8 -6 -33 -6q-11 0 -19 1.5t-10 2.5l-3 2v1065
q7 6 32 6q11 0 19.5 -1.5t11.5 -3.5l2 -1v-1065z" />
    <glyph glyph-name="eth" unicode="&#xf0;" horiz-adv-x="1130" 
d="M698 1356q140 -120 215.5 -303t75.5 -424q0 -182 -28.5 -309t-86 -201t-135 -106.5t-184.5 -32.5q-420 0 -420 536q0 276 106.5 406.5t295.5 130.5q135 0 228.5 -55.5t141.5 -153.5q-25 142 -92.5 264.5t-171.5 210.5l-278 -176q-31 16 -35 53l260 164q-128 87 -295 121
q-7 34 14 55q194 -38 336 -139l150 94q31 -15 34 -53zM555 39q81 0 143.5 24.5t111 78.5t74 148t25.5 226q0 134 -27 228.5t-78 147.5t-115.5 76t-149.5 23q-81 0 -140 -24t-104 -78t-67.5 -147.5t-22.5 -225.5t25 -226t73 -148t109.5 -78.5t142.5 -24.5z" />
    <glyph glyph-name="ntilde" unicode="&#xf1;" 
d="M688 1352q25 0 45 15t27 29l8 15q36 4 53 -22q-2 -4 -5 -10.5t-15.5 -23t-27.5 -29.5t-40.5 -23.5t-54.5 -10.5q-52 0 -117 37t-102 37q-25 0 -45 -15t-28 -31l-7 -15q-39 -3 -53 22q2 4 5 10.5t15.5 23.5t27.5 30t40.5 23.5t54.5 10.5q51 0 117 -36.5t102 -36.5z
M944 795q0 139 -82.5 221t-226.5 82q-124 0 -221.5 -54t-161.5 -153v180q-10 6 -33 6q-10 0 -18.5 -1.5t-11.5 -3.5l-3 -1v-1065q10 -6 33 -6q10 0 18.5 1.5t11.5 2.5l3 2v764q51 123 151.5 195.5t210.5 72.5q265 0 265 -260v-772q9 -6 32 -6q10 0 18.5 1.5t11.5 2.5l3 2
v789z" />
    <glyph glyph-name="ograve" unicode="&#xf2;" horiz-adv-x="1101" 
d="M289 1550q10 14 28 24.5t37 10.5l240 -307q-13 -26 -49 -29zM551 -20q-204 0 -310 132t-106 427t106 427t310 132t310 -132t106 -427t-106 -427t-310 -132zM551 1038q-83 0 -144.5 -25t-108 -81.5t-70 -154.5t-23.5 -238t23.5 -238.5t70 -155t108 -81.5t144.5 -25
t144.5 25t108 81.5t70 155t23.5 238.5t-23.5 238t-70 154.5t-108 81.5t-144.5 25z" />
    <glyph glyph-name="oacute" unicode="&#xf3;" horiz-adv-x="1101" 
d="M442 1249q-36 3 -49 29l240 307q44 0 65 -35zM551 -20q-204 0 -310 132t-106 427t106 427t310 132t310 -132t106 -427t-106 -427t-310 -132zM551 1038q-83 0 -144.5 -25t-108 -81.5t-70 -154.5t-23.5 -238t23.5 -238.5t70 -155t108 -81.5t144.5 -25t144.5 25t108 81.5
t70 155t23.5 238.5t-23.5 238t-70 154.5t-108 81.5t-144.5 25z" />
    <glyph glyph-name="ocircumflex" unicode="&#xf4;" horiz-adv-x="1101" 
d="M823 1274q-7 -34 -32 -39l-242 180l-240 -182q-27 11 -33 41l248 203h51zM551 -20q-204 0 -310 132t-106 427t106 427t310 132t310 -132t106 -427t-106 -427t-310 -132zM551 1038q-83 0 -144.5 -25t-108 -81.5t-70 -154.5t-23.5 -238t23.5 -238.5t70 -155t108 -81.5
t144.5 -25t144.5 25t108 81.5t70 155t23.5 238.5t-23.5 238t-70 154.5t-108 81.5t-144.5 25z" />
    <glyph glyph-name="otilde" unicode="&#xf5;" horiz-adv-x="1101" 
d="M674 1352q25 0 45 15t27 29l8 15q36 4 53 -22q-2 -4 -5 -10.5t-15.5 -23t-27.5 -29.5t-40.5 -23.5t-54.5 -10.5q-41 0 -80 18.5t-73.5 37t-66.5 18.5q-25 0 -45 -15t-27 -31l-7 -15q-39 -3 -54 22q2 4 5 10.5t15.5 23.5t27.5 30t41 23.5t55 10.5q51 0 117 -36.5
t102 -36.5zM551 -20q-204 0 -310 132t-106 427t106 427t310 132t310 -132t106 -427t-106 -427t-310 -132zM551 1038q-83 0 -144.5 -25t-108 -81.5t-70 -154.5t-23.5 -238t23.5 -238.5t70 -155t108 -81.5t144.5 -25t144.5 25t108 81.5t70 155t23.5 238.5t-23.5 238t-70 154.5
t-108 81.5t-144.5 25z" />
    <glyph glyph-name="odieresis" unicode="&#xf6;" horiz-adv-x="1101" 
d="M457 1321q-16 -6 -49 -6q-15 0 -27.5 1.5t-17.5 3.5l-5 1v86q17 6 50 6q15 0 27 -1.5t17 -3.5l5 -1v-86zM745 1321q-16 -6 -49 -6q-15 0 -27 1.5t-17 3.5l-5 1v86q16 6 49 6q15 0 27 -1.5t17 -3.5l5 -1v-86zM551 -20q-204 0 -310 132t-106 427t106 427t310 132t310 -132
t106 -427t-106 -427t-310 -132zM551 1038q-83 0 -144.5 -25t-108 -81.5t-70 -154.5t-23.5 -238t23.5 -238.5t70 -155t108 -81.5t144.5 -25t144.5 25t108 81.5t70 155t23.5 238.5t-23.5 238t-70 154.5t-108 81.5t-144.5 25z" />
    <glyph glyph-name="divide" unicode="&#xf7;" horiz-adv-x="1153" 
d="M627 881q-16 -7 -49 -7q-15 0 -27.5 2t-17.5 4l-5 1v86q17 6 50 6q15 0 27 -1.5t17 -3.5l5 -1v-86zM186 563q-6 8 -6 31q0 10 1.5 18t2.5 10l2 3h781q6 -8 6 -31q0 -10 -1.5 -18t-3.5 -10l-1 -3h-781zM627 221q-16 -6 -49 -6q-15 0 -27.5 1.5t-17.5 3.5l-5 1v86
q17 6 50 6q15 0 27 -1.5t17 -3.5l5 -1v-86z" />
    <glyph glyph-name="oslash" unicode="&#xf8;" horiz-adv-x="1099" 
d="M848 981q119 -134 119 -442q0 -295 -106 -427t-310 -132q-135 0 -227 57l-72 -131q-8 -6 -39 -6q-12 0 -20.5 1.5t-11.5 2.5l-3 2l94 170q-137 134 -137 463q0 295 106 427t310 132q150 0 250 -72l71 131q8 6 39 6q8 0 14 -0.5t10 -1.5t6.5 -2t3.5 -1l1 -1zM551 1038
q-83 0 -144.5 -25t-108 -81.5t-70 -154.5t-23.5 -238q0 -280 100 -404l463 834q-80 69 -217 69zM354 92q72 -53 197 -53q83 0 144.5 25t108 81.5t70 155t23.5 238.5q0 255 -84 379z" />
    <glyph glyph-name="ugrave" unicode="&#xf9;" 
d="M350 1550q10 14 28.5 24.5t37.5 10.5l239 -307q-13 -26 -49 -29zM178 283q0 -139 82.5 -221t226.5 -82q122 0 219.5 54t163.5 152v-180q10 -6 33 -6q10 0 18.5 1.5t11.5 2.5l3 2v1065q-10 6 -33 6q-10 0 -18.5 -1.5t-11.5 -3.5l-3 -1v-764q-53 -124 -153 -196t-209 -72
q-264 0 -264 260v772q-10 6 -33 6q-10 0 -18.5 -1.5t-11.5 -3.5l-3 -1v-788z" />
    <glyph glyph-name="uacute" unicode="&#xfa;" 
d="M469 1249q-36 3 -49 29l239 307q45 0 66 -35zM178 1071q10 6 33 6q10 0 18.5 -1.5t11.5 -3.5l3 -1v-772q0 -260 264 -260q109 0 209 72t153 196v764q10 6 33 6q10 0 18.5 -1.5t11.5 -3.5l3 -1v-1065q-10 -6 -33 -6q-10 0 -18.5 1.5t-11.5 2.5l-3 2v180
q-66 -98 -163.5 -152t-219.5 -54q-144 0 -226.5 82t-82.5 221v788z" />
    <glyph glyph-name="ucircumflex" unicode="&#xfb;" 
d="M829 1274q-7 -34 -32 -39l-242 180l-240 -182q-26 10 -32 41l247 203h52zM178 1071q10 6 33 6q10 0 18.5 -1.5t11.5 -3.5l3 -1v-772q0 -260 264 -260q109 0 209 72t153 196v764q10 6 33 6q10 0 18.5 -1.5t11.5 -3.5l3 -1v-1065q-10 -6 -33 -6q-10 0 -18.5 1.5t-11.5 2.5
l-3 2v180q-66 -98 -163.5 -152t-219.5 -54q-144 0 -226.5 82t-82.5 221v788z" />
    <glyph glyph-name="udieresis" unicode="&#xfc;" 
d="M469 1321q-16 -6 -49 -6q-15 0 -27 1.5t-17 3.5l-5 1v86q16 6 49 6q15 0 27 -1.5t17 -3.5l5 -1v-86zM758 1321q-16 -6 -49 -6q-15 0 -27.5 1.5t-17.5 3.5l-5 1v86q17 6 50 6q15 0 27 -1.5t17 -3.5l5 -1v-86zM178 283q0 -139 82.5 -221t226.5 -82q122 0 219.5 54
t163.5 152v-180q10 -6 33 -6q10 0 18.5 1.5t11.5 2.5l3 2v1065q-10 6 -33 6q-10 0 -18.5 -1.5t-11.5 -3.5l-3 -1v-764q-53 -124 -153 -196t-209 -72q-264 0 -264 260v772q-10 6 -33 6q-10 0 -18.5 -1.5t-11.5 -3.5l-3 -1v-788z" />
    <glyph glyph-name="yacute" unicode="&#xfd;" horiz-adv-x="1062" 
d="M446 1249q-36 3 -49 29l240 307q44 0 65 -35zM508 -260q-46 -128 -100 -190t-146 -62q-24 0 -47.5 3t-34.5 6l-12 3q-6 12 -6 29q0 20 8 31q33 -11 86 -11q59 0 102.5 48t85.5 165l88 240q-22 11 -26 14l-440 1055q11 6 36 6q11 0 20.5 -1.5t13.5 -3.5l3 -1l340 -815
q20 -47 38.5 -94.5t26.5 -71.5l9 -24h6q27 82 66 188l299 817q7 6 34 6q12 0 21.5 -1.5t12.5 -3.5l3 -1z" />
    <glyph glyph-name="thorn" unicode="&#xfe;" horiz-adv-x="1134" 
d="M252 -506q-8 -6 -33 -6q-11 0 -19.5 1.5t-11.5 2.5l-2 2v2036q8 6 33 6q11 0 19.5 -1.5t11.5 -2.5l2 -2v-631q100 199 342 199q97 0 169 -29t125.5 -93.5t81 -173.5t27.5 -263t-27.5 -263t-81 -173.5t-125.5 -93.5t-169 -29q-242 0 -342 198v-684zM252 410q0 -66 21 -130
t60 -118t103 -87.5t142 -33.5q188 0 269 117t81 381t-81 380.5t-269 116.5q-77 0 -140 -32t-102 -84t-60.5 -114t-23.5 -126v-270z" />
    <glyph glyph-name="ydieresis" unicode="&#xff;" horiz-adv-x="1062" 
d="M430 1300q-16 -6 -49 -6q-15 0 -27 1.5t-17 2.5l-5 2v86q16 7 49 7q15 0 27 -1.5t17 -3.5l5 -2v-86zM719 1300q-16 -6 -49 -6q-15 0 -27 1.5t-17 2.5l-5 2v86q16 7 49 7q15 0 27 -1.5t17 -3.5l5 -2v-86zM508 -260q-46 -128 -100 -190t-146 -62q-24 0 -47.5 3t-34.5 6
l-12 3q-6 12 -6 29q0 20 8 31q33 -11 86 -11q59 0 102.5 48t85.5 165l88 240q-22 11 -26 14l-440 1055q11 6 36 6q11 0 20.5 -1.5t13.5 -3.5l3 -1l340 -815q20 -47 38.5 -94.5t26.5 -71.5l9 -24h6q27 82 66 188l299 817q7 6 34 6q12 0 21.5 -1.5t12.5 -3.5l3 -1z" />
    <glyph glyph-name="Amacron" unicode="&#x100;" horiz-adv-x="1310" 
d="M391 1653q-8 13 -8 30q0 18 8 31h514q8 -11 8 -28q0 -20 -8 -33h-514zM293 446l-176 -440q-10 -6 -37 -6q-12 0 -20 1.5t-10 2.5l-3 2l580 1462q8 7 28 7q8 0 15.5 -1.5t10.5 -3.5l3 -2l580 -1462q-10 -6 -37 -6q-10 0 -19.5 1.5t-13.5 2.5l-4 2l-174 440h-723zM989 512
l-307 780q-9 23 -15 42.5t-8 27.5l-2 8h-4q-8 -29 -26 -78l-310 -780h672z" />
    <glyph glyph-name="amacron" unicode="&#x101;" horiz-adv-x="1044" 
d="M272 1317q-6 15 -6 29q0 16 6 28h492q8 -8 8 -26t-8 -31h-492zM801 741q0 158 -70.5 227.5t-214.5 69.5q-73 0 -148.5 -14t-115.5 -28l-39 -13q-27 20 -23 55q18 7 49 17t119 26.5t166 16.5q86 0 147 -19t99 -52.5t59.5 -90.5t29 -120t7.5 -154v-656q-8 -6 -26 -6
q-8 0 -15 1.5t-9 2.5l-3 2l-12 184v3q-47 -102 -145 -157.5t-230 -55.5q-143 0 -230 82.5t-87 226.5q0 149 93 231t283 82q173 0 316 -20v159zM178 289q0 -123 68.5 -185.5t187.5 -62.5q161 0 264 103.5t103 281.5v96q-3 0 -46 4.5t-75.5 7.5t-85 6t-96.5 3
q-163 0 -241.5 -63t-78.5 -191z" />
    <glyph glyph-name="Abreve" unicode="&#x102;" horiz-adv-x="1310" 
d="M922 1720q-4 -4 -11.5 -11t-33.5 -25t-55.5 -32t-77 -25t-97.5 -11q-51 0 -98 10.5t-77.5 26t-54 31t-33.5 26.5l-11 10q9 29 37 39q4 -3 11.5 -9t31.5 -21t50 -26t65.5 -20.5t78.5 -9.5t78 9t66.5 21.5t49 25t31.5 21.5l11 9q34 -8 39 -39zM293 446l-176 -440
q-10 -6 -37 -6q-12 0 -20 1.5t-10 2.5l-3 2l580 1462q8 7 28 7q8 0 15.5 -1.5t10.5 -3.5l3 -2l580 -1462q-10 -6 -37 -6q-10 0 -19.5 1.5t-13.5 2.5l-4 2l-174 440h-723zM989 512l-307 780q-9 23 -15 42.5t-8 27.5l-2 8h-4q-8 -29 -26 -78l-310 -780h672z" />
    <glyph glyph-name="abreve" unicode="&#x103;" horiz-adv-x="1044" 
d="M782 1409q-4 -5 -11 -12t-32 -26.5t-53.5 -34t-74.5 -26.5t-95 -12t-94.5 11.5t-75.5 28t-52.5 32.5t-33.5 28l-10 11q9 29 37 39q4 -4 11 -9.5t30 -21t48 -27t63.5 -21t76.5 -9.5q61 0 118 22t84 44l27 22q18 -4 26 -12.5t11 -26.5zM801 741q0 158 -70.5 227.5
t-214.5 69.5q-73 0 -148.5 -14t-115.5 -28l-39 -13q-27 20 -23 55q18 7 49 17t119 26.5t166 16.5q86 0 147 -19t99 -52.5t59.5 -90.5t29 -120t7.5 -154v-656q-8 -6 -26 -6q-8 0 -15 1.5t-9 2.5l-3 2l-12 184v3q-47 -102 -145 -157.5t-230 -55.5q-143 0 -230 82.5t-87 226.5
q0 149 93 231t283 82q173 0 316 -20v159zM178 289q0 -123 68.5 -185.5t187.5 -62.5q161 0 264 103.5t103 281.5v96q-3 0 -46 4.5t-75.5 7.5t-85 6t-96.5 3q-163 0 -241.5 -63t-78.5 -191z" />
    <glyph glyph-name="Aogonek" unicode="&#x104;" horiz-adv-x="1308" 
d="M1141 -297q23 0 44.5 5.5t31.5 10.5l10 5q18 -15 18 -46q-43 -32 -117 -32q-79 0 -122 41t-43 108q0 89 60 150t155 86l-164 415h-723l-176 -440q-10 -6 -37 -6q-12 0 -20 1.5t-10 2.5l-3 2l580 1462q8 7 28 7q8 0 15.5 -1.5t10.5 -3.5l3 -2l580 -1462l-25 -6
q-54 -11 -98 -33.5t-76.5 -65.5t-32.5 -98q0 -49 29.5 -74.5t81.5 -25.5zM987 512l-307 780q-9 23 -15 42.5t-8 27.5l-2 8h-4q-8 -29 -26 -78l-310 -780h672z" />
    <glyph glyph-name="aogonek" unicode="&#x105;" horiz-adv-x="1044" 
d="M786 -295q23 0 44.5 5.5t31.5 10.5l10 5q19 -16 19 -45q-43 -33 -117 -33q-75 0 -120.5 39t-45.5 104q0 88 58.5 151.5t144.5 90.5l-10 160q-47 -102 -145 -157.5t-230 -55.5q-143 0 -230 82.5t-87 226.5q0 149 93 231t283 82q173 0 316 -20v159q0 158 -70.5 227.5
t-214.5 69.5q-73 0 -148.5 -14t-115.5 -28l-39 -13q-27 20 -23 55q18 7 49 17t119 26.5t166 16.5q86 0 147 -19t99 -52.5t59.5 -90.5t29 -120t7.5 -154v-658q-76 -16 -133 -68.5t-57 -136.5q0 -47 31 -70.5t79 -23.5zM801 522q-3 0 -46 4.5t-75.5 7.5t-85 6t-96.5 3
q-163 0 -241.5 -63t-78.5 -191q0 -123 68.5 -185.5t187.5 -62.5q161 0 264 103.5t103 281.5v96z" />
    <glyph glyph-name="Cacute" unicode="&#x106;" horiz-adv-x="1138" 
d="M629 1554q-36 3 -49 29l239 307q45 0 66 -35zM688 -20q-271 0 -403.5 186.5t-132.5 570.5q0 379 133 568.5t403 189.5q99 0 184 -16.5t120 -32.5l36 -16q4 -15 -4 -31q-4 -8 -9 -14.5t-8 -8.5l-3 -2q-13 6 -38.5 16t-105 26t-162.5 16q-112 0 -195 -34t-147.5 -112
t-97.5 -216t-33 -335q0 -158 22 -277.5t61.5 -197.5t99.5 -126.5t130 -68.5t160 -20t172 14t119 29l37 14q13 -4 21 -22q4 -8 5 -16.5t0 -12.5l-1 -4q-5 -3 -14.5 -7.5t-43.5 -16t-72.5 -20.5t-101.5 -16t-131 -7z" />
    <glyph glyph-name="cacute" unicode="&#x107;" horiz-adv-x="911" 
d="M436 1249q-36 3 -49 29l240 307q44 0 65 -35zM571 1034q-187 0 -277.5 -124t-90.5 -371q0 -248 93 -370t284 -122q58 0 111 11.5t77 23.5l23 12q25 -15 28 -55q-11 -7 -32 -16.5t-89 -26t-141 -16.5q-203 0 -313.5 143.5t-110.5 415.5t110.5 415.5t313.5 143.5
q69 0 128.5 -12t84.5 -24l25 -11q0 -39 -25 -58q-9 5 -25 11.5t-67.5 18t-106.5 11.5z" />
    <glyph glyph-name="Ccircumflex" unicode="&#x108;" horiz-adv-x="1138" 
d="M983 1597q-7 -35 -33 -41l-248 185l-243 -187q-30 12 -35 43l254 207h53zM688 -20q-271 0 -403.5 186.5t-132.5 570.5q0 379 133 568.5t403 189.5q99 0 184 -16.5t120 -32.5l36 -16q4 -15 -4 -31q-4 -8 -9 -14.5t-8 -8.5l-3 -2q-13 6 -38.5 16t-105 26t-162.5 16
q-112 0 -195 -34t-147.5 -112t-97.5 -216t-33 -335q0 -158 22 -277.5t61.5 -197.5t99.5 -126.5t130 -68.5t160 -20t172 14t119 29l37 14q13 -4 21 -22q4 -8 5 -16.5t0 -12.5l-1 -4q-5 -3 -14.5 -7.5t-43.5 -16t-72.5 -20.5t-101.5 -16t-131 -7z" />
    <glyph glyph-name="ccircumflex" unicode="&#x109;" horiz-adv-x="911" 
d="M819 1274q-7 -33 -33 -39l-241 180l-240 -182q-27 11 -33 41l248 203h51zM571 1034q-187 0 -277.5 -124t-90.5 -371q0 -248 93 -370t284 -122q58 0 111 11.5t77 23.5l23 12q25 -15 28 -55q-11 -7 -32 -16.5t-89 -26t-141 -16.5q-203 0 -313.5 143.5t-110.5 415.5
t110.5 415.5t313.5 143.5q69 0 128.5 -12t84.5 -24l25 -11q0 -39 -25 -58q-9 5 -25 11.5t-67.5 18t-106.5 11.5z" />
    <glyph glyph-name="Cdotaccent" unicode="&#x10a;" horiz-adv-x="1138" 
d="M745 1620q-16 -6 -49 -6q-15 0 -27 1.5t-17 2.5l-5 2v86q16 6 49 6q15 0 27 -1.5t17 -2.5l5 -2v-86zM688 -20q-271 0 -403.5 186.5t-132.5 570.5q0 379 133 568.5t403 189.5q99 0 184 -16.5t120 -32.5l36 -16q4 -15 -4 -31q-4 -8 -9 -14.5t-8 -8.5l-3 -2q-13 6 -38.5 16
t-105 26t-162.5 16q-112 0 -195 -34t-147.5 -112t-97.5 -216t-33 -335q0 -158 22 -277.5t61.5 -197.5t99.5 -126.5t130 -68.5t160 -20t172 14t119 29l37 14q13 -4 21 -22q4 -8 5 -16.5t0 -12.5l-1 -4q-5 -3 -14.5 -7.5t-43.5 -16t-72.5 -20.5t-101.5 -16t-131 -7z" />
    <glyph glyph-name="cdotaccent" unicode="&#x10b;" horiz-adv-x="911" 
d="M602 1298q-16 -6 -49 -6q-15 0 -27 1.5t-17 2.5l-5 2v86q16 7 49 7q15 0 27 -1.5t17 -3.5l5 -2v-86zM571 1034q-187 0 -277.5 -124t-90.5 -371q0 -248 93 -370t284 -122q58 0 111 11.5t77 23.5l23 12q25 -15 28 -55q-11 -7 -32 -16.5t-89 -26t-141 -16.5
q-203 0 -313.5 143.5t-110.5 415.5t110.5 415.5t313.5 143.5q69 0 128.5 -12t84.5 -24l25 -11q0 -39 -25 -58q-9 5 -25 11.5t-67.5 18t-106.5 11.5z" />
    <glyph glyph-name="Ccaron" unicode="&#x10c;" horiz-adv-x="1140" 
d="M403 1786q5 31 35 43l248 -187l244 185q26 -6 33 -41l-252 -207h-54zM688 -20q-271 0 -403.5 186.5t-132.5 570.5q0 379 133 568.5t403 189.5q99 0 184 -16.5t120 -32.5l36 -16q4 -15 -4 -31q-4 -8 -9 -14.5t-8 -8.5l-3 -2q-13 6 -38.5 16t-105 26t-162.5 16
q-112 0 -195 -34t-147.5 -112t-97.5 -216t-33 -335q0 -158 22 -277.5t61.5 -197.5t99.5 -126.5t130 -68.5t160 -20t172 14t119 29l37 14q13 -4 21 -22q4 -8 5 -16.5t0 -12.5l-1 -4q-5 -3 -14.5 -7.5t-43.5 -16t-72.5 -20.5t-101.5 -16t-131 -7z" />
    <glyph glyph-name="ccaron" unicode="&#x10d;" horiz-adv-x="913" 
d="M295 1423q5 30 31 41l227 -172l223 170q24 -5 31 -39l-232 -190h-47zM573 1034q-187 0 -277.5 -124t-90.5 -371q0 -248 93 -370t284 -122q58 0 111 11.5t77 23.5l23 12q25 -15 28 -55q-11 -7 -32 -16.5t-89 -26t-141 -16.5q-203 0 -313.5 143.5t-110.5 415.5t110.5 415.5
t313.5 143.5q69 0 128.5 -12t84.5 -24l25 -11q0 -39 -25 -58q-9 5 -25 11.5t-67.5 18t-106.5 11.5z" />
    <glyph glyph-name="Dcaron" unicode="&#x10e;" horiz-adv-x="1347" 
d="M309 1786q5 31 35 43l248 -187l244 185q25 -6 32 -41l-252 -207h-53zM219 1475h387q122 0 212.5 -22t163.5 -73.5t118.5 -136t69.5 -210.5t24 -296q0 -212 -35.5 -355.5t-112 -227.5t-182 -119t-258.5 -35h-387v1475zM289 66h309q107 0 186 18.5t145 64t106.5 121.5
t62.5 192t22 275q0 160 -22 276t-62.5 192.5t-106.5 121.5t-145 63.5t-186 18.5h-309v-1343z" />
    <glyph glyph-name="dcaron" unicode="&#x10f;" horiz-adv-x="1157" 
d="M1104 1204q-31 0 -39 23q126 109 117 307q46 9 69 -8q0 -92 -39 -183.5t-108 -138.5zM883 1530q7 6 32 6q11 0 19.5 -1.5t11.5 -2.5l2 -2v-1524q-8 -6 -26 -6q-8 0 -15 1.5t-9 2.5l-3 2l-10 174q-101 -200 -344 -200q-97 0 -169 29t-126 93t-81.5 173.5t-27.5 263.5
t27.5 263.5t81.5 173.5t126 93t169 29q242 0 342 -199v631zM883 668q0 65 -21 129.5t-60 118t-103 87t-142 33.5q-188 0 -269 -116.5t-81 -380.5t81 -381t269 -117q78 0 142 33.5t103 87.5t60 118t21 130v258z" />
    <glyph glyph-name="Dcroat" unicode="&#x110;" horiz-adv-x="1359" 
d="M618 1475q122 0 212.5 -22t163.5 -73.5t118.5 -136t69.5 -210.5t24 -296q0 -212 -35.5 -355.5t-112 -227.5t-182 -119t-258.5 -35h-387v700h-178q-6 11 -6 31q0 9 1.5 16.5t3.5 10.5l1 4h178v713h387zM610 66q107 0 186 18.5t145 64t107 121.5t63 192t22 275
q0 160 -22 276t-63 192.5t-107 121.5t-145 63.5t-186 18.5h-309v-647h315q7 -11 7 -31q0 -8 -1.5 -15.5t-3.5 -11.5l-2 -4h-315v-634h309z" />
    <glyph glyph-name="dcroat" unicode="&#x111;" horiz-adv-x="1134" 
d="M1102 1319q0 -10 -1.5 -17.5t-2.5 -9.5l-2 -2h-148v-1284q-8 -6 -26 -6q-8 0 -15 1.5t-9 2.5l-3 2l-10 174q-101 -200 -344 -200q-97 0 -169 29t-126 93t-81.5 173.5t-27.5 263.5t27.5 263.5t81.5 173.5t126 93t169 29q242 0 342 -199v391h-320q-6 6 -6 29q0 10 1.5 17.5
t3.5 9.5l1 2h320v182q7 6 32 6q11 0 19.5 -1.5t11.5 -2.5l2 -2v-182h148q6 -6 6 -29zM883 668q0 65 -21 129.5t-60 118t-103 87t-142 33.5q-188 0 -269 -116.5t-81 -380.5t81 -381t269 -117q78 0 142 33.5t103 87.5t60 118t21 130v258z" />
    <glyph glyph-name="Emacron" unicode="&#x112;" horiz-adv-x="1140" 
d="M356 1642q-8 13 -8 33t8 33h531q8 -11 8 -31q0 -22 -8 -35h-531zM1008 1475q6 -12 6 -33t-6 -33h-719v-629h616q6 -12 6 -30t-6 -33h-616v-651h739q6 -15 6 -31q0 -20 -6 -35h-809v1475h789z" />
    <glyph glyph-name="emacron" unicode="&#x113;" horiz-adv-x="1040" 
d="M324 1315q-9 15 -9 31q0 15 9 30h491q6 -8 6 -28q0 -23 -6 -33h-491zM203 516q9 -248 96.5 -358.5t267.5 -110.5q48 0 92.5 8.5t74.5 20.5t53 24t33 20l11 9q32 -18 35 -55q-4 -4 -12.5 -10t-39 -22.5t-64.5 -29t-89 -22.5t-114 -10q-201 0 -307.5 144t-106.5 421
q0 279 113 416t307 137q177 0 272 -104.5t95 -272.5q0 -56 -6 -107t-12 -74l-5 -24h-694zM850 731q0 132 -74 218.5t-223 86.5q-161 0 -252.5 -113t-97.5 -345h635q12 57 12 153z" />
    <glyph glyph-name="Ebreve" unicode="&#x114;" horiz-adv-x="1140" 
d="M885 1743q-4 -4 -11.5 -11t-33.5 -25.5t-55.5 -32t-77 -25t-97.5 -11.5q-51 0 -98 11t-77.5 26t-54 30.5t-34.5 26.5l-10 11q9 29 37 39q4 -3 11.5 -9t31.5 -21t50 -26t65.5 -20.5t78.5 -9.5t78 9t66.5 21.5t49 25t32.5 21.5l10 9q34 -8 39 -39zM1008 1475q6 -12 6 -33
t-6 -33h-719v-629h616q6 -12 6 -30t-6 -33h-616v-651h739q6 -15 6 -31q0 -20 -6 -35h-809v1475h789z" />
    <glyph glyph-name="ebreve" unicode="&#x115;" horiz-adv-x="1040" 
d="M815 1409q-4 -5 -11 -12t-32 -26.5t-53.5 -34t-74.5 -26.5t-95 -12t-94.5 11.5t-75.5 28t-52.5 32.5t-32.5 28l-11 11q9 30 36 39q4 -4 11 -9.5t30.5 -21t48.5 -27t63.5 -21t76.5 -9.5q61 0 118 22t84 44l27 22q18 -4 26 -12.5t11 -26.5zM203 516q9 -248 96.5 -358.5
t267.5 -110.5q48 0 92.5 8.5t74.5 20.5t53 24t33 20l11 9q32 -18 35 -55q-4 -4 -12.5 -10t-39 -22.5t-64.5 -29t-89 -22.5t-114 -10q-201 0 -307.5 144t-106.5 421q0 279 113 416t307 137q177 0 272 -104.5t95 -272.5q0 -56 -6 -107t-12 -74l-5 -24h-694zM850 731
q0 132 -74 218.5t-223 86.5q-161 0 -252.5 -113t-97.5 -345h635q12 57 12 153z" />
    <glyph glyph-name="Edotaccent" unicode="&#x116;" horiz-adv-x="1140" 
d="M670 1620q-16 -6 -49 -6q-15 0 -27.5 1.5t-17.5 2.5l-5 2v86q17 6 50 6q15 0 27 -1.5t17 -2.5l5 -2v-86zM1008 1475q6 -12 6 -33t-6 -33h-719v-629h616q6 -12 6 -30t-6 -33h-616v-651h739q6 -15 6 -31q0 -20 -6 -35h-809v1475h789z" />
    <glyph glyph-name="edotaccent" unicode="&#x117;" horiz-adv-x="1040" 
d="M606 1319q-16 -6 -49 -6q-15 0 -27 1.5t-17 3.5l-5 1v86q16 6 49 6q15 0 27 -1.5t17 -3.5l5 -1v-86zM203 516q9 -248 96.5 -358.5t267.5 -110.5q48 0 92.5 8.5t74.5 20.5t53 24t33 20l11 9q32 -18 35 -55q-4 -4 -12.5 -10t-39 -22.5t-64.5 -29t-89 -22.5t-114 -10
q-201 0 -307.5 144t-106.5 421q0 279 113 416t307 137q177 0 272 -104.5t95 -272.5q0 -56 -6 -107t-12 -74l-5 -24h-694zM850 731q0 132 -74 218.5t-223 86.5q-161 0 -252.5 -113t-97.5 -345h635q12 57 12 153z" />
    <glyph glyph-name="Eogonek" unicode="&#x118;" horiz-adv-x="1140" 
d="M1028 66q6 -15 6 -31q0 -20 -6 -35h-20q-88 -16 -151.5 -66t-63.5 -133q0 -49 29 -74.5t81 -25.5q23 0 44.5 5t31.5 10l10 5q19 -16 19 -45q-43 -32 -117 -32q-79 0 -122.5 41t-43.5 108q0 73 41.5 125.5t112.5 81.5h-660v1475h789q6 -12 6 -33t-6 -33h-719v-629h616
q6 -12 6 -30t-6 -33h-616v-651h739z" />
    <glyph glyph-name="eogonek" unicode="&#x119;" horiz-adv-x="1040" 
d="M553 1098q177 0 272 -104.5t95 -272.5q0 -56 -6 -107t-12 -74l-5 -24h-694q9 -248 96.5 -358.5t267.5 -110.5q48 0 92.5 8.5t74.5 20.5t53 24t33 20l11 9q32 -18 35 -55q-7 -6 -21.5 -16.5t-64.5 -32.5t-106 -33q-75 -23 -123.5 -70t-48.5 -119q0 -49 29 -74.5t81 -25.5
q23 0 44.5 5.5t31.5 10.5l10 5q19 -16 19 -46q-43 -32 -117 -32q-79 0 -122.5 41t-43.5 108q0 116 103 185q-196 5 -300 149t-104 416q0 279 113 416t307 137zM838 578q12 57 12 153q0 132 -74 218.5t-223 86.5q-161 0 -252.5 -113t-97.5 -345h635z" />
    <glyph glyph-name="Ecaron" unicode="&#x11a;" horiz-adv-x="1140" 
d="M309 1786q5 31 35 43l248 -187l244 185q25 -6 32 -41l-252 -207h-53zM1008 1475q6 -12 6 -33t-6 -33h-719v-629h616q6 -12 6 -30t-6 -33h-616v-651h739q6 -15 6 -31q0 -20 -6 -35h-809v1475h789z" />
    <glyph glyph-name="ecaron" unicode="&#x11b;" horiz-adv-x="1042" 
d="M283 1430q6 28 32 40l236 -178l233 176q24 -6 31 -38l-240 -197h-51zM205 516q9 -248 96.5 -358.5t267.5 -110.5q76 0 142 20.5t95 40.5l28 21q31 -17 34 -55q-4 -4 -12.5 -10t-39 -22.5t-64.5 -29t-89 -22.5t-114 -10q-201 0 -307.5 144t-106.5 421q0 279 113 416
t307 137q177 0 272 -104.5t95 -272.5q0 -56 -6 -107t-12 -74l-5 -24h-694zM852 731q0 132 -74 218.5t-223 86.5q-161 0 -252.5 -113t-97.5 -345h635q12 57 12 153z" />
    <glyph glyph-name="Gcircumflex" unicode="&#x11c;" horiz-adv-x="1267" 
d="M1036 1622q-7 -35 -32 -41l-248 184l-244 -186q-30 12 -35 43l254 207h53zM711 -20q-271 0 -415 188.5t-144 568.5q0 375 144 566.5t415 191.5q103 0 195.5 -16.5t133.5 -32.5l41 -16q4 -15 -4 -31q-4 -8 -9 -13.5t-8 -7.5l-3 -2q-17 6 -47 15.5t-118 25t-171 15.5
q-88 0 -160 -20.5t-135.5 -70.5t-107 -128.5t-68.5 -199.5t-25 -278t25 -277.5t68 -198t106.5 -126t135.5 -68.5t161 -20q143 0 313 39v616h-395q-6 13 -6 33q0 11 1.5 19.5t3.5 11.5l1 2h465v-721q-17 -7 -48.5 -18t-134 -29t-210.5 -18z" />
    <glyph glyph-name="gcircumflex" unicode="&#x11d;" horiz-adv-x="1056" 
d="M776 1274q-7 -33 -33 -39l-241 180l-240 -182q-27 11 -33 41l248 203h51zM315 440q-85 40 -129.5 120t-44.5 190q0 163 97 255.5t268 92.5q123 0 213 -49l264 47q15 -35 0 -74l-203 -23q90 -90 90 -249q0 -163 -95.5 -255t-268.5 -92q-69 0 -135 17q-78 -92 -78 -195
q0 -49 38 -77.5t98.5 -39.5t134 -18t147 -20.5t134 -38t98.5 -79t38 -136.5q0 -66 -30.5 -124t-89 -104t-154 -73t-215.5 -27q-199 0 -298.5 83.5t-99.5 215.5q0 59 20 114t52.5 94.5t57.5 63t50 41.5q-53 43 -53 119q0 97 94 221zM506 1040q-134 0 -214.5 -74.5
t-80.5 -213.5q0 -141 80 -216t215 -75q136 0 215.5 75t79.5 216q0 139 -80 213.5t-215 74.5zM492 -453q189 0 305 73t116 190q0 75 -40.5 121t-109.5 64.5t-141 26.5t-156.5 18.5t-133.5 29.5q-79 -51 -121.5 -125t-42.5 -148q0 -117 84 -183.5t240 -66.5z" />
    <glyph glyph-name="Gbreve" unicode="&#x11e;" horiz-adv-x="1267" 
d="M991 1720q-4 -4 -11.5 -11t-33.5 -25t-55 -32t-76.5 -25t-97.5 -11q-51 0 -98 10.5t-78 26t-54.5 31t-34.5 26.5l-10 10q9 29 37 39q4 -3 11.5 -9t31.5 -21t50 -26t66 -20.5t79 -9.5q63 0 121.5 21.5t85.5 43.5l28 21q34 -8 39 -39zM711 -20q-271 0 -415 188.5
t-144 568.5q0 375 144 566.5t415 191.5q103 0 195.5 -16.5t133.5 -32.5l41 -16q4 -15 -4 -31q-4 -8 -9 -13.5t-8 -7.5l-3 -2q-17 6 -47 15.5t-118 25t-171 15.5q-88 0 -160 -20.5t-135.5 -70.5t-107 -128.5t-68.5 -199.5t-25 -278t25 -277.5t68 -198t106.5 -126t135.5 -68.5
t161 -20q143 0 313 39v616h-395q-6 13 -6 33q0 11 1.5 19.5t3.5 11.5l1 2h465v-721q-17 -7 -48.5 -18t-134 -29t-210.5 -18z" />
    <glyph glyph-name="gbreve" unicode="&#x11f;" horiz-adv-x="1056" 
d="M778 1409q-4 -5 -11 -12t-32 -26.5t-53.5 -34t-74.5 -26.5t-95 -12t-94.5 11.5t-75.5 28t-52.5 32.5t-33.5 28l-10 11q9 29 37 39q4 -4 11 -9.5t30 -21t48 -27t63.5 -21t76.5 -9.5q61 0 118 22t84 44l27 22q18 -4 26 -12.5t11 -26.5zM315 440q-85 40 -129.5 120
t-44.5 190q0 163 97 255.5t268 92.5q123 0 213 -49l264 47q15 -35 0 -74l-203 -23q90 -90 90 -249q0 -163 -95.5 -255t-268.5 -92q-69 0 -135 17q-78 -92 -78 -195q0 -49 38 -77.5t98.5 -39.5t134 -18t147 -20.5t134 -38t98.5 -79t38 -136.5q0 -66 -30.5 -124t-89 -104
t-154 -73t-215.5 -27q-199 0 -298.5 83.5t-99.5 215.5q0 59 20 114t52.5 94.5t57.5 63t50 41.5q-53 43 -53 119q0 97 94 221zM506 1040q-134 0 -214.5 -74.5t-80.5 -213.5q0 -141 80 -216t215 -75q136 0 215.5 75t79.5 216q0 139 -80 213.5t-215 74.5zM492 -453
q189 0 305 73t116 190q0 75 -40.5 121t-109.5 64.5t-141 26.5t-156.5 18.5t-133.5 29.5q-79 -51 -121.5 -125t-42.5 -148q0 -117 84 -183.5t240 -66.5z" />
    <glyph glyph-name="Gdotaccent" unicode="&#x120;" horiz-adv-x="1267" 
d="M766 1620q-16 -6 -49 -6q-15 0 -27 1.5t-17 2.5l-5 2v86q16 6 49 6q15 0 27 -1.5t17 -2.5l5 -2v-86zM711 -20q-271 0 -415 188.5t-144 568.5q0 375 144 566.5t415 191.5q103 0 195.5 -16.5t133.5 -32.5l41 -16q4 -15 -4 -31q-4 -8 -9 -13.5t-8 -7.5l-3 -2q-17 6 -47 15.5
t-118 25t-171 15.5q-88 0 -160 -20.5t-135.5 -70.5t-107 -128.5t-68.5 -199.5t-25 -278t25 -277.5t68 -198t106.5 -126t135.5 -68.5t161 -20q143 0 313 39v616h-395q-6 13 -6 33q0 11 1.5 19.5t3.5 11.5l1 2h465v-721q-17 -7 -48.5 -18t-134 -29t-210.5 -18z" />
    <glyph glyph-name="gdotaccent" unicode="&#x121;" horiz-adv-x="1056" 
d="M563 1237q-16 -6 -49 -6q-15 0 -27 1.5t-17 3.5l-5 1v86q16 6 49 6q15 0 27 -1.5t17 -3.5l5 -1v-86zM315 440q-85 40 -129.5 120t-44.5 190q0 163 97 255.5t268 92.5q123 0 213 -49l264 47q15 -35 0 -74l-203 -23q90 -90 90 -249q0 -163 -95.5 -255t-268.5 -92
q-69 0 -135 17q-78 -92 -78 -195q0 -49 38 -77.5t98.5 -39.5t134 -18t147 -20.5t134 -38t98.5 -79t38 -136.5q0 -66 -30.5 -124t-89 -104t-154 -73t-215.5 -27q-199 0 -298.5 83.5t-99.5 215.5q0 59 20 114t52.5 94.5t57.5 63t50 41.5q-53 43 -53 119q0 97 94 221zM506 1040
q-134 0 -214.5 -74.5t-80.5 -213.5q0 -141 80 -216t215 -75q136 0 215.5 75t79.5 216q0 139 -80 213.5t-215 74.5zM492 -453q189 0 305 73t116 190q0 75 -40.5 121t-109.5 64.5t-141 26.5t-156.5 18.5t-133.5 29.5q-79 -51 -121.5 -125t-42.5 -148q0 -117 84 -183.5
t240 -66.5z" />
    <glyph glyph-name="Gcommaaccent" unicode="&#x122;" horiz-adv-x="1267" 
d="M711 -20q-271 0 -415 188.5t-144 568.5q0 375 144 566.5t415 191.5q103 0 195.5 -16.5t133.5 -32.5l41 -16q4 -15 -4 -31q-4 -8 -9 -13.5t-8 -7.5l-3 -2q-17 6 -47 15.5t-118 25t-171 15.5q-88 0 -160 -20.5t-135.5 -70.5t-107 -128.5t-68.5 -199.5t-25 -278t25 -277.5
t68 -198t106.5 -126t135.5 -68.5t161 -20q143 0 313 39v616h-395q-6 13 -6 33q0 11 1.5 19.5t3.5 11.5l1 2h465v-721q-17 -7 -48.5 -18t-134 -29t-210.5 -18zM641 -358q7 6 17.5 17.5t30.5 52.5t24 87q-12 0 -21.5 1.5t-13.5 3.5l-4 1v80q18 6 53 6q16 0 28.5 -1.5
t17.5 -3.5l5 -1v-61q0 -37 -10.5 -72t-25.5 -58t-30 -41t-26 -26l-10 -8z" />
    <glyph glyph-name="gcommaaccent" unicode="&#x123;" horiz-adv-x="1056" 
d="M592 1468q-7 -6 -17 -17t-29.5 -49.5t-23.5 -82.5q11 0 20.5 -1.5t13.5 -3.5l3 -1v-76q-16 -4 -49 -4l-51 4v59q0 35 10 68t24.5 54.5t29 38t24.5 24.5l10 8zM315 440q-85 40 -129.5 120t-44.5 190q0 163 97 255.5t268 92.5q123 0 213 -49l264 47q15 -35 0 -74l-203 -23
q90 -90 90 -249q0 -163 -95.5 -255t-268.5 -92q-69 0 -135 17q-78 -92 -78 -195q0 -49 38 -77.5t98.5 -39.5t134 -18t147 -20.5t134 -38t98.5 -79t38 -136.5q0 -66 -30.5 -124t-89 -104t-154 -73t-215.5 -27q-199 0 -298.5 83.5t-99.5 215.5q0 59 20 114t52.5 94.5t57.5 63
t50 41.5q-53 43 -53 119q0 97 94 221zM506 1040q-134 0 -214.5 -74.5t-80.5 -213.5q0 -141 80 -216t215 -75q136 0 215.5 75t79.5 216q0 139 -80 213.5t-215 74.5zM492 -453q189 0 305 73t116 190q0 75 -40.5 121t-109.5 64.5t-141 26.5t-156.5 18.5t-133.5 29.5
q-79 -51 -121.5 -125t-42.5 -148q0 -117 84 -183.5t240 -66.5z" />
    <glyph glyph-name="Hcircumflex" unicode="&#x124;" horiz-adv-x="1376" 
d="M981 1622q-7 -35 -33 -41l-248 184l-243 -186q-30 12 -35 43l254 207h53zM1090 1468q11 7 34 7q10 0 19 -1.5t13 -3.5l3 -2v-1462q-10 -6 -35 -6q-12 0 -20.5 1.5t-11.5 2.5l-2 2v717h-803v-717q-12 -6 -35 -6q-8 0 -14 0.5t-10 1.5t-6.5 2t-3.5 2h-1v1462q12 7 35 7
q10 0 19 -1.5t13 -3.5l3 -2v-680h803v680z" />
    <glyph glyph-name="hcircumflex" unicode="&#x125;" 
d="M815 1606q-7 -33 -33 -39l-237 178l-234 -180q-29 12 -32 41l243 198h51zM944 6q-10 -6 -33 -6q-10 0 -18 1.5t-11 2.5l-3 2v772q0 260 -265 260q-110 0 -210.5 -72.5t-151.5 -195.5v-764q-10 -6 -33 -6q-10 0 -18.5 1.5t-11.5 2.5l-3 2v1524q10 6 33 6q10 0 18.5 -1.5
t11.5 -2.5l3 -2v-639q64 99 161.5 153t221.5 54q144 0 226.5 -82t82.5 -221v-789z" />
    <glyph glyph-name="Hbar" unicode="&#x126;" horiz-adv-x="1396" 
d="M1327 1204q6 -9 6 -28t-6 -31h-153v-1139q-10 -6 -35 -6q-12 0 -20.5 1.5t-11.5 2.5l-3 2v717h-803v-717q-12 -6 -35 -6q-8 0 -14 0.5t-10 1.5t-6.5 2t-3.5 2h-1v1139h-133q-6 15 -6 31t6 28h133v264q12 7 35 7q10 0 19 -1.5t13 -3.5l3 -2v-264h803v264q12 7 35 7
q10 0 19 -1.5t12 -3.5l4 -2v-264h153zM301 1145v-357h803v357h-803z" />
    <glyph glyph-name="hbar" unicode="&#x127;" 
d="M635 1098q144 0 226.5 -82t82.5 -221v-789q-10 -6 -33 -6q-10 0 -18 1.5t-11 2.5l-3 2v772q0 260 -265 260q-110 0 -210.5 -72.5t-151.5 -195.5v-764q-10 -6 -33 -6q-10 0 -18.5 1.5t-11.5 2.5l-3 2v1282h-147q-11 32 0 60h147v182q10 6 33 6q10 0 18.5 -1.5t11.5 -2.5
l3 -2v-182h422q14 -28 0 -60h-422v-397q64 99 161.5 153t221.5 54z" />
    <glyph glyph-name="Itilde" unicode="&#x128;" horiz-adv-x="503" 
d="M385 1634q24 0 43.5 15t27.5 30l7 15q33 3 51 -23l-5 -10t-14.5 -22.5t-26 -29t-39.5 -22.5t-54 -10q-51 0 -114 36t-99 36q-24 0 -43.5 -15t-26.5 -30l-8 -15q-17 -1 -31.5 5.5t-19.5 17.5l5 10t14.5 22.5t26 29t39.5 22.5t54 10q49 0 113 -36t100 -36zM217 1468
q10 7 35 7q11 0 20 -1.5t12 -3.5l3 -2v-1462q-10 -6 -35 -6q-11 0 -20 1.5t-12 2.5l-3 2v1462z" />
    <glyph glyph-name="itilde" unicode="&#x129;" horiz-adv-x="454" 
d="M340 1288q21 0 37.5 14t22.5 28l6 13q28 4 43 -20q-1 -4 -3.5 -10t-12.5 -22t-22.5 -28t-33.5 -22t-45 -10q-41 0 -93.5 34.5t-82.5 34.5q-21 0 -37.5 -14t-22.5 -28l-6 -15q-12 -2 -24.5 4.5t-18.5 16.5q1 4 4 10t13 22.5t22.5 29t33 22.5t44.5 10q42 0 95 -35t81 -35z
M260 6q-8 -6 -33 -6q-11 0 -19 1.5t-10 2.5l-3 2v1065q7 6 32 6q11 0 19.5 -1.5t11.5 -3.5l2 -1v-1065z" />
    <glyph glyph-name="Imacron" unicode="&#x12a;" horiz-adv-x="503" 
d="M-18 1599q-9 15 -9 33t9 33h546q9 -12 9 -31q0 -20 -9 -35h-546zM217 1468q10 7 35 7q11 0 20 -1.5t12 -3.5l3 -2v-1462q-10 -6 -35 -6q-11 0 -20 1.5t-12 2.5l-3 2v1462z" />
    <glyph glyph-name="imacron" unicode="&#x12b;" horiz-adv-x="454" 
d="M49 1233q-4 10 -4 31q0 22 4 30h361q4 -6 4 -28q0 -23 -4 -33h-361zM260 6q-8 -6 -33 -6q-11 0 -19 1.5t-10 2.5l-3 2v1065q7 6 32 6q11 0 19.5 -1.5t11.5 -3.5l2 -1v-1065z" />
    <glyph glyph-name="Ibreve" unicode="&#x12c;" horiz-adv-x="503" 
d="M522 1720q-4 -4 -11.5 -11t-33.5 -25t-55 -32t-76.5 -25t-97.5 -11q-51 0 -98 10.5t-78 26t-54.5 31t-33.5 26.5l-11 10q9 29 37 39q4 -3 11.5 -9t31.5 -21t50 -26t66 -20.5t79 -9.5q63 0 121.5 21.5t86.5 43.5l27 21q34 -8 39 -39zM217 1468q10 7 35 7q11 0 20 -1.5
t12 -3.5l3 -2v-1462q-10 -6 -35 -6q-11 0 -20 1.5t-12 2.5l-3 2v1462z" />
    <glyph glyph-name="ibreve" unicode="&#x12d;" horiz-adv-x="454" 
d="M492 1409q-4 -5 -11 -12t-32 -26.5t-54 -34t-75 -26.5t-95 -12t-94.5 11.5t-75.5 28t-52.5 32.5t-32.5 28l-11 11q9 29 37 39q4 -4 11 -9.5t30 -21t48 -27t63.5 -21t76.5 -9.5q61 0 118.5 22t84.5 44l27 22q18 -4 26 -12.5t11 -26.5zM260 6q-8 -6 -33 -6q-11 0 -19 1.5
t-10 2.5l-3 2v1065q7 6 32 6q11 0 19.5 -1.5t11.5 -3.5l2 -1v-1065z" />
    <glyph glyph-name="Iogonek" unicode="&#x12e;" horiz-adv-x="505" 
d="M225 -295q23 0 44.5 5.5t31.5 10.5l10 5q19 -16 19 -45q-43 -33 -117 -33q-79 0 -122.5 41t-43.5 108q0 69 47.5 135.5t124.5 96.5v1439q10 7 35 7q11 0 20 -1.5t12 -3.5l3 -2v-1464q-74 -13 -124 -71t-50 -128q0 -49 29 -74.5t81 -25.5z" />
    <glyph glyph-name="iogonek" unicode="&#x12f;" horiz-adv-x="456" 
d="M231 1339q15 0 27.5 -1.5t17.5 -3.5l5 -1v-86q-17 -6 -50 -6q-15 0 -27 1.5t-17 3.5l-5 1v86q16 6 49 6zM199 1071q7 6 32 6q11 0 19.5 -1.5t11.5 -3.5l2 -1v-1067q-88 -16 -151.5 -66t-63.5 -133q0 -49 29.5 -74.5t81.5 -25.5q23 0 44.5 5.5t31.5 10.5l10 5
q18 -15 18 -45q-43 -33 -117 -33q-79 0 -122 41t-43 108q0 89 61 150t156 86v1038z" />
    <glyph glyph-name="Idotaccent" unicode="&#x130;" horiz-adv-x="503" 
d="M301 1620q-16 -6 -49 -6q-15 0 -27 1.5t-17 2.5l-5 2v86q16 6 49 6q15 0 27 -1.5t17 -2.5l5 -2v-86zM217 1468q10 7 35 7q11 0 20 -1.5t12 -3.5l3 -2v-1462q-10 -6 -35 -6q-11 0 -20 1.5t-12 2.5l-3 2v1462z" />
    <glyph glyph-name="dotlessi" unicode="&#x131;" horiz-adv-x="450" 
d="M258 6q-8 -6 -33 -6q-11 0 -19 1.5t-10 2.5l-3 2v1065q7 6 32 6q11 0 19.5 -1.5t11.5 -3.5l2 -1v-1065z" />
    <glyph glyph-name="IJ" unicode="&#x132;" horiz-adv-x="1259" 
d="M217 1468q10 7 35 7q11 0 20 -1.5t12 -3.5l3 -2v-1462q-10 -6 -35 -6q-11 0 -20 1.5t-12 2.5l-3 2v1462zM981 1468q8 7 35 7q10 0 19 -1.5t13 -3.5l3 -2v-1153q0 -174 -74 -254.5t-238 -80.5q-68 0 -136.5 15t-102.5 31l-35 15q-3 38 22 57q13 -6 36.5 -15t90 -23.5
t125.5 -14.5q118 0 180 62t62 208v1153z" />
    <glyph glyph-name="ij" unicode="&#x133;" horiz-adv-x="768" 
d="M274 1247q-16 -6 -49 -6q-15 0 -27 1.5t-17 3.5l-5 1v86q16 6 49 6q15 0 27 -1.5t17 -3.5l5 -1v-86zM590 1247q-16 -6 -49 -6q-15 0 -27 1.5t-17 3.5l-5 1v86q16 6 49 6q15 0 27 -1.5t17 -3.5l5 -1v-86zM508 1071q8 6 33 6q11 0 19 -1.5t10 -3.5l3 -1v-1251
q0 -168 -70.5 -250t-197.5 -82q-38 0 -67 4.5t-38 9.5l-10 4q-2 7 -2 17t2 18.5t4 11.5l3 3q33 -9 92 -9q112 0 165.5 63t53.5 202v1259zM258 6q-8 -6 -33 -6q-11 0 -19 1.5t-10 2.5l-3 2v1065q7 6 32 6q11 0 19.5 -1.5t11.5 -3.5l2 -1v-1065z" />
    <glyph glyph-name="Jcircumflex" unicode="&#x134;" horiz-adv-x="856" 
d="M891 1622q-7 -35 -33 -41l-248 184l-243 -186q-30 12 -35 43l254 207h53zM578 1468q7 7 34 7q10 0 19 -1.5t13 -3.5l3 -2v-1153q0 -174 -74 -254.5t-237 -80.5q-68 0 -136.5 15t-103.5 31l-35 15q-3 37 23 57q13 -6 36.5 -15t90 -23.5t125.5 -14.5q118 0 180 62t62 208
v1153z" />
    <glyph glyph-name="jcircumflex" unicode="&#x135;" horiz-adv-x="454" 
d="M500 1237q-7 -35 -33 -41l-242 180l-239 -182q-28 12 -33 43l248 201h53zM195 1071q7 6 32 6q11 0 19.5 -1.5t11.5 -3.5l2 -1v-1251q0 -168 -70.5 -250t-197.5 -82q-38 0 -67 4.5t-39 9.5l-9 4q-2 7 -2 17t2 18.5t4 11.5l2 3q33 -9 92 -9q112 0 166 63t54 202v1259z" />
    <glyph glyph-name="Kcommaaccent" unicode="&#x136;" horiz-adv-x="1243" 
d="M582 799l471 669q12 7 39 7q11 0 20.5 -1.5t13.5 -3.5l4 -2l-489 -696l547 -766q-12 -6 -39 -6q-12 0 -23.5 1.5t-16.5 2.5l-5 2l-520 727h-297v-727q-12 -6 -35 -6q-10 0 -19 1.5t-13 2.5l-3 2v1462q12 7 35 7q10 0 19 -1.5t13 -3.5l3 -2v-669h295zM565 -348
q6 6 16 18.5t29 56.5t23 93q-11 0 -20.5 1.5t-12.5 2.5l-4 2v86q16 6 49 6q15 0 27 -1.5t17 -2.5l5 -2v-66q0 -40 -10 -77.5t-24 -62t-28 -43.5t-24 -27l-10 -9z" />
    <glyph glyph-name="kcommaaccent" unicode="&#x137;" horiz-adv-x="1011" 
d="M504 594l336 477q12 6 43 6q8 0 14.5 -0.5t9.5 -1t5 -1l2 -0.5l1 -1l-356 -506l406 -559q-10 -8 -39 -8q-13 0 -23.5 2t-14.5 4l-5 2l-379 524h-252v-526q-8 -6 -33 -6q-11 0 -19.5 1.5t-11.5 2.5l-2 2v1524q8 6 33 6q11 0 19.5 -1.5t11.5 -2.5l2 -2v-936h252zM483 -348
q6 6 16 18.5t29 56.5t23 93q-11 0 -20.5 1.5t-12.5 2.5l-4 2v86q16 6 49 6q15 0 27 -1.5t17 -2.5l5 -2v-66q0 -40 -10 -77.5t-24 -62t-28 -43.5t-24 -27l-10 -9z" />
    <glyph glyph-name="kgreenlandic" unicode="&#x138;" horiz-adv-x="1026" 
d="M975 6q-12 -6 -39 -6q-15 0 -26 1.5t-15 2.5l-4 2l-420 553l-219 -246v-307q-12 -6 -33 -6t-33 6v1067q12 4 33 4q25 0 33 -4v-670l596 668q15 6 43 6q26 0 41 -6l-412 -459z" />
    <glyph glyph-name="Lacute" unicode="&#x139;" horiz-adv-x="1028" 
d="M215 1554q-36 3 -49 29l240 307q44 0 65 -35zM217 1468q12 7 35 7q11 0 20 -1.5t12 -3.5l3 -2v-1402h678q6 -13 6 -33q0 -9 -1.5 -17t-3.5 -12l-1 -4h-748v1468z" />
    <glyph glyph-name="lacute" unicode="&#x13a;" horiz-adv-x="458" 
d="M156 1597q-37 3 -50 29l240 307q45 0 66 -35zM262 6q-8 -6 -33 -6q-11 0 -19 1.5t-10 2.5l-3 2v1524q7 6 32 6q11 0 19.5 -1.5t11.5 -2.5l2 -2v-1524z" />
    <glyph glyph-name="Lcommaaccent" unicode="&#x13b;" horiz-adv-x="1028" 
d="M217 1468q12 7 35 7q11 0 20 -1.5t12 -3.5l3 -2v-1402h678q6 -13 6 -33q0 -9 -1.5 -17t-3.5 -12l-1 -4h-748v1468zM504 -389q6 6 16 18.5t28.5 56.5t22.5 93q-11 0 -20 1.5t-13 3.5l-3 1v86q16 6 49 6q15 0 27 -1.5t17 -3.5l5 -1v-66q0 -40 -10 -77.5t-24 -62t-28 -43.5
t-24 -28l-10 -8z" />
    <glyph glyph-name="lcommaaccent" unicode="&#x13c;" horiz-adv-x="458" 
d="M262 6q-8 -6 -33 -6q-11 0 -19 1.5t-10 2.5l-3 2v1524q7 6 32 6q11 0 19.5 -1.5t11.5 -2.5l2 -2v-1524zM150 -348q6 6 16 18.5t28.5 56.5t22.5 93q-11 0 -20.5 1.5t-12.5 2.5l-4 2v86q16 6 49 6q15 0 27.5 -1.5t17.5 -2.5l5 -2v-66q0 -64 -24.5 -118.5t-48.5 -77.5
l-24 -23z" />
    <glyph glyph-name="Lcaron" unicode="&#x13d;" horiz-adv-x="1030" 
d="M623 1165q-31 0 -39 23q125 108 116 307q47 10 70 -8q0 -92 -39 -183.5t-108 -138.5zM219 1468q12 7 35 7q11 0 20 -1.5t12 -3.5l3 -2v-1402h678q6 -13 6 -33q0 -9 -1.5 -17t-3.5 -12l-1 -4h-748v1468z" />
    <glyph glyph-name="lcaron" unicode="&#x13e;" horiz-adv-x="471" 
d="M262 6q-8 -6 -33 -6q-11 0 -19 1.5t-10 2.5l-3 2v1524q7 6 32 6q11 0 19.5 -1.5t11.5 -2.5l2 -2v-1524zM416 1210q-30 3 -37 25q133 99 139 299q47 6 68 -12q-6 -92 -51.5 -181t-118.5 -131z" />
    <glyph glyph-name="Ldot" unicode="&#x13f;" horiz-adv-x="1030" 
d="M217 1468q12 7 35 7q11 0 20 -1.5t12 -3.5l3 -2v-1402h678q6 -13 6 -33q0 -9 -1.5 -17t-3.5 -12l-1 -4h-748v1468zM713 641q-16 -6 -49 -6q-15 0 -27.5 1.5t-17.5 3.5l-5 1v86q17 6 50 6q15 0 27 -1.5t17 -3.5l5 -1v-86z" />
    <glyph glyph-name="ldot" unicode="&#x140;" horiz-adv-x="526" 
d="M262 6q-8 -6 -33 -6q-11 0 -19 1.5t-10 2.5l-3 2v1524q7 6 32 6q11 0 19.5 -1.5t11.5 -2.5l2 -2v-1524zM535 641q-17 -6 -50 -6q-15 0 -27 1.5t-17 3.5l-5 1v86q16 6 49 6q15 0 27.5 -1.5t17.5 -3.5l5 -1v-86z" />
    <glyph glyph-name="Lslash" unicode="&#x141;" horiz-adv-x="1056" 
d="M993 66q6 -13 6 -33q0 -9 -1.5 -17t-3.5 -12l-1 -4h-747v682l-146 -84q-30 15 -30 51l176 103v716q12 7 35 7q11 0 19.5 -1.5t11.5 -3.5l3 -2v-677l230 133q27 -13 30 -52l-260 -149v-657h678z" />
    <glyph glyph-name="lslash" unicode="&#x142;" horiz-adv-x="643" 
d="M352 6q-8 -6 -33 -6q-11 0 -19 1.5t-10 2.5l-3 2v762l-174 -100q-31 14 -31 53l205 119v690q7 6 32 6q11 0 19.5 -1.5t11.5 -2.5l2 -2v-651l180 104q13 -6 22 -21t9 -32l-211 -123v-801z" />
    <glyph glyph-name="Nacute" unicode="&#x143;" horiz-adv-x="1413" 
d="M696 1554q-36 3 -49 29l240 307q44 0 65 -35zM377 1210q-31 48 -54.5 91t-31.5 62l-8 19h-4q6 -73 6 -266v-1110q-10 -6 -35 -6q-10 0 -18.5 1.5t-11.5 2.5l-3 2v1462q14 7 41 7q12 0 21.5 -1.5t13.5 -3.5l4 -2l733 -1187q27 -44 53 -90t38 -71l12 -24h4q-9 99 -9 246
v1126q10 7 35 7q10 0 18.5 -1.5t11.5 -3.5l3 -2v-1462q-12 -6 -39 -6q-13 0 -23 1.5t-14 2.5l-4 2z" />
    <glyph glyph-name="nacute" unicode="&#x144;" 
d="M457 1249q-36 3 -49 29l239 307q45 0 66 -35zM944 6q-10 -6 -33 -6q-10 0 -18 1.5t-11 2.5l-3 2v772q0 260 -265 260q-110 0 -210.5 -72.5t-151.5 -195.5v-764q-10 -6 -33 -6q-10 0 -18.5 1.5t-11.5 2.5l-3 2v1065q10 6 33 6q10 0 18.5 -1.5t11.5 -3.5l3 -1v-180
q64 99 161.5 153t221.5 54q144 0 226.5 -82t82.5 -221v-789z" />
    <glyph glyph-name="Ncommaaccent" unicode="&#x145;" horiz-adv-x="1413" 
d="M377 1210q-31 48 -54.5 91t-31.5 62l-8 19h-4q6 -73 6 -266v-1110q-10 -6 -35 -6q-10 0 -18.5 1.5t-11.5 2.5l-3 2v1462q14 7 41 7q12 0 21.5 -1.5t13.5 -3.5l4 -2l733 -1187q27 -44 53 -90t38 -71l12 -24h4q-9 99 -9 246v1126q10 7 35 7q10 0 18.5 -1.5t11.5 -3.5l3 -2
v-1462q-12 -6 -39 -6q-13 0 -23 1.5t-14 2.5l-4 2zM637 -369q6 6 16 18.5t29 56.5t23 93q-11 0 -20.5 1.5t-12.5 3.5l-4 1v86q16 7 49 7q15 0 27 -2t17 -4l5 -1v-65q0 -40 -10 -77.5t-24 -62t-28 -43.5t-24 -27l-10 -9z" />
    <glyph glyph-name="ncommaaccent" unicode="&#x146;" 
d="M944 6q-10 -6 -33 -6q-10 0 -18 1.5t-11 2.5l-3 2v772q0 260 -265 260q-110 0 -210.5 -72.5t-151.5 -195.5v-764q-10 -6 -33 -6q-10 0 -18.5 1.5t-11.5 2.5l-3 2v1065q10 6 33 6q10 0 18.5 -1.5t11.5 -3.5l3 -1v-180q64 99 161.5 153t221.5 54q144 0 226.5 -82t82.5 -221
v-789zM496 -348q6 6 16 18.5t28.5 56.5t22.5 93q-11 0 -20.5 1.5t-12.5 2.5l-4 2v86q16 6 49 6q15 0 27.5 -1.5t17.5 -2.5l5 -2v-66q0 -64 -24.5 -118.5t-48.5 -77.5l-24 -23z" />
    <glyph glyph-name="Ncaron" unicode="&#x147;" horiz-adv-x="1413" 
d="M440 1786q5 31 35 43l248 -187l244 185q25 -6 32 -41l-251 -207h-54zM377 1210q-31 48 -54.5 91t-31.5 62l-8 19h-4q6 -73 6 -266v-1110q-10 -6 -35 -6q-10 0 -18.5 1.5t-11.5 2.5l-3 2v1462q14 7 41 7q12 0 21.5 -1.5t13.5 -3.5l4 -2l733 -1187q27 -44 53 -90t38 -71
l12 -24h4q-9 99 -9 246v1126q10 7 35 7q10 0 18.5 -1.5t11.5 -3.5l3 -2v-1462q-12 -6 -39 -6q-13 0 -23 1.5t-14 2.5l-4 2z" />
    <glyph glyph-name="ncaron" unicode="&#x148;" horiz-adv-x="1124" 
d="M322 1423q5 30 30 41l228 -172l223 170q24 -5 31 -39l-232 -190h-47zM944 795q0 139 -82.5 221t-226.5 82q-124 0 -221.5 -54t-161.5 -153v180q-10 6 -33 6q-10 0 -18.5 -1.5t-11.5 -3.5l-3 -1v-1065q10 -6 33 -6q10 0 18.5 1.5t11.5 2.5l3 2v764q51 123 151.5 195.5
t210.5 72.5q265 0 265 -260v-772q9 -6 32 -6q10 0 18.5 1.5t11.5 2.5l3 2v789z" />
    <glyph glyph-name="napostrophe" unicode="&#x149;" 
d="M199 1210q-30 3 -37 25q133 99 139 299q47 6 68 -12q-6 -92 -51.5 -181t-118.5 -131zM944 6q-10 -6 -33 -6q-10 0 -18 1.5t-11 2.5l-3 2v772q0 260 -265 260q-110 0 -210.5 -72.5t-151.5 -195.5v-764q-10 -6 -33 -6q-10 0 -18.5 1.5t-11.5 2.5l-3 2v1065q10 6 33 6
q10 0 18.5 -1.5t11.5 -3.5l3 -1v-180q64 99 161.5 153t221.5 54q144 0 226.5 -82t82.5 -221v-789z" />
    <glyph glyph-name="Eng" unicode="&#x14a;" horiz-adv-x="1413" 
d="M1128 1468q10 7 35 7q10 0 18.5 -1.5t11.5 -3.5l3 -2v-1583q0 -73 -8 -123t-30 -96.5t-65 -78.5t-110 -54q-27 15 -20 53q92 32 128.5 97.5t36.5 197.5v121l-12 4l-739 1204q-31 48 -54.5 91t-31.5 62l-8 19h-4q6 -73 6 -266v-1110q-10 -6 -35 -6q-10 0 -18.5 1.5
t-11.5 2.5l-3 2v1462q14 7 41 7q12 0 21.5 -1.5t13.5 -3.5l4 -2l733 -1187q27 -44 53 -90t38 -71l12 -24h4q-9 99 -9 246v1126z" />
    <glyph glyph-name="eng" unicode="&#x14b;" 
d="M252 891q64 99 161.5 153t221.5 54q144 0 226.5 -82t82.5 -221v-910q0 -73 -8 -123t-30 -96.5t-65 -78.5t-110 -54q-23 16 -20 51q94 32 131 99t37 198v897q0 260 -265 260q-110 0 -210.5 -72.5t-151.5 -195.5v-764q-10 -6 -33 -6q-10 0 -18.5 1.5t-11.5 2.5l-3 2v1065
q10 6 33 6q10 0 18.5 -1.5t11.5 -3.5l3 -1v-180z" />
    <glyph glyph-name="Omacron" unicode="&#x14c;" horiz-adv-x="1388" 
d="M434 1634q-8 13 -8 33t8 33h531q8 -11 8 -31q0 -22 -8 -35h-531zM694 -20q-261 0 -401.5 185t-140.5 572t140.5 572.5t401.5 185.5q262 0 402.5 -185.5t140.5 -572.5t-140.5 -572t-402.5 -185zM694 1434q-469 0 -469 -697q0 -696 469 -696t469 696q0 697 -469 697z" />
    <glyph glyph-name="omacron" unicode="&#x14d;" horiz-adv-x="1101" 
d="M346 1317q-6 15 -6 31q0 15 6 30h438q7 -14 7 -28q0 -16 -7 -33h-438zM551 -20q-204 0 -310 132t-106 427t106 427t310 132t310 -132t106 -427t-106 -427t-310 -132zM551 1038q-83 0 -144.5 -25t-108 -81.5t-70 -154.5t-23.5 -238t23.5 -238.5t70 -155t108 -81.5
t144.5 -25t144.5 25t108 81.5t70 155t23.5 238.5t-23.5 238t-70 154.5t-108 81.5t-144.5 25z" />
    <glyph glyph-name="Obreve" unicode="&#x14e;" horiz-adv-x="1388" 
d="M973 1720q-4 -4 -11.5 -11t-33.5 -25t-55.5 -32t-77 -25t-97.5 -11q-51 0 -98 10.5t-77.5 26t-54 31t-34.5 26.5l-10 10q9 29 37 39q4 -3 11.5 -9t31.5 -21t50 -26t65.5 -20.5t78.5 -9.5t78 9t66.5 21.5t49 25t32.5 21.5l10 9q34 -8 39 -39zM694 -20q-261 0 -401.5 185
t-140.5 572t140.5 572.5t401.5 185.5q262 0 402.5 -185.5t140.5 -572.5t-140.5 -572t-402.5 -185zM694 1434q-469 0 -469 -697q0 -696 469 -696t469 696q0 697 -469 697z" />
    <glyph glyph-name="obreve" unicode="&#x14f;" horiz-adv-x="1101" 
d="M815 1409q-4 -5 -11 -12t-32 -26.5t-53.5 -34t-74.5 -26.5t-95 -12t-94.5 11.5t-75.5 28t-52.5 32.5t-32.5 28l-11 11q9 30 36 39q4 -4 11 -9.5t30.5 -21t48.5 -27t63.5 -21t76.5 -9.5q61 0 118 22t84 44l27 22q18 -4 26 -12.5t11 -26.5zM551 -20q-204 0 -310 132
t-106 427t106 427t310 132t310 -132t106 -427t-106 -427t-310 -132zM551 1038q-83 0 -144.5 -25t-108 -81.5t-70 -154.5t-23.5 -238t23.5 -238.5t70 -155t108 -81.5t144.5 -25t144.5 25t108 81.5t70 155t23.5 238.5t-23.5 238t-70 154.5t-108 81.5t-144.5 25z" />
    <glyph glyph-name="Ohungarumlaut" unicode="&#x150;" horiz-adv-x="1388" 
d="M526 1573q-38 3 -47 26l201 277q50 0 74 -35zM819 1573q-36 3 -47 26l203 277q47 0 74 -35zM694 -20q-261 0 -401.5 185t-140.5 572t140.5 572.5t401.5 185.5q262 0 402.5 -185.5t140.5 -572.5t-140.5 -572t-402.5 -185zM694 1434q-469 0 -469 -697q0 -696 469 -696
t469 696q0 697 -469 697z" />
    <glyph glyph-name="ohungarumlaut" unicode="&#x151;" horiz-adv-x="1101" 
d="M406 1223q-34 3 -46 24l197 242q47 0 72 -31zM688 1223q-33 3 -45 24l197 242q46 0 71 -31zM551 -20q-204 0 -310 132t-106 427t106 427t310 132t310 -132t106 -427t-106 -427t-310 -132zM551 1038q-83 0 -144.5 -25t-108 -81.5t-70 -154.5t-23.5 -238t23.5 -238.5
t70 -155t108 -81.5t144.5 -25t144.5 25t108 81.5t70 155t23.5 238.5t-23.5 238t-70 154.5t-108 81.5t-144.5 25z" />
    <glyph glyph-name="OE" unicode="&#x152;" horiz-adv-x="1695" 
d="M887 0q-78 -20 -172 -20q-270 0 -416.5 185.5t-146.5 571.5t146.5 572t416.5 186q77 0 174 -20h674q6 -12 6 -33t-6 -33h-617v-629h514q6 -12 6 -30t-6 -33h-514v-651h637q6 -15 6 -31q0 -20 -6 -35h-696zM225 737q0 -696 490 -696q83 0 162 27v1341q-77 25 -162 25
q-490 0 -490 -697z" />
    <glyph glyph-name="oe" unicode="&#x153;" horiz-adv-x="1705" 
d="M928 516q9 -250 84.5 -360.5t238.5 -110.5q67 0 128 20t89 40l27 20q32 -16 35 -51q-4 -4 -12 -10t-35.5 -22.5t-59.5 -29t-84 -22.5t-108 -10q-257 0 -340 286q-41 -152 -124 -219t-226 -67q-199 0 -301.5 132t-102.5 427t102.5 427t301.5 132q141 0 226 -68t126 -219
q85 287 344 287q169 0 257.5 -104t88.5 -273q0 -56 -5.5 -107t-11.5 -74l-5 -24h-633zM541 1038q-64 0 -114.5 -15t-92.5 -51t-69.5 -93t-42.5 -142t-15 -198q0 -140 22.5 -238.5t67.5 -155t104 -81.5t140 -25q107 0 174 46t103 158t36 300q0 141 -19.5 237.5t-60 153
t-97 80.5t-136.5 24zM1513 731q0 133 -67.5 219t-208.5 86q-142 0 -222.5 -112.5t-86.5 -345.5h573q12 57 12 153z" />
    <glyph glyph-name="Racute" unicode="&#x154;" horiz-adv-x="1259" 
d="M504 1554q-36 3 -49 29l239 307q45 0 66 -35zM799 676l352 -670q-14 -6 -39 -6q-12 0 -22.5 1.5t-15.5 2.5l-5 2l-348 662h-432v-662q-10 -6 -35 -6q-11 0 -20 1.5t-12 2.5l-3 2v1469h483q187 0 293.5 -110t106.5 -294q0 -158 -79.5 -262.5t-223.5 -132.5zM707 733
q149 0 235 89.5t86 248.5t-86 248.5t-235 89.5h-418v-676h418z" />
    <glyph glyph-name="racute" unicode="&#x155;" horiz-adv-x="788" 
d="M354 1249q-36 3 -49 29l240 307q44 0 65 -35zM252 866q130 230 313 230q47 0 89.5 -11t61.5 -23l19 -11q-3 -40 -35 -56q-73 37 -153 37q-152 0 -295 -278v-748q-8 -6 -33 -6q-11 0 -19.5 1.5t-11.5 2.5l-2 2v1065q8 6 33 6q11 0 19.5 -1.5t11.5 -3.5l2 -1v-205z" />
    <glyph glyph-name="Rcommaaccent" unicode="&#x156;" horiz-adv-x="1259" 
d="M799 676l352 -670q-14 -6 -39 -6q-12 0 -22.5 1.5t-15.5 2.5l-5 2l-348 662h-432v-662q-10 -6 -35 -6q-11 0 -20 1.5t-12 2.5l-3 2v1469h483q187 0 293.5 -110t106.5 -294q0 -158 -79.5 -262.5t-223.5 -132.5zM707 733q149 0 235 89.5t86 248.5t-86 248.5t-235 89.5h-418
v-676h418zM598 -88q16 6 49 6q15 0 27 -1.5t17 -2.5l5 -2v-66q0 -40 -10 -77.5t-24 -62t-28 -43.5t-24 -27l-10 -9l-33 25q6 6 16 18.5t29 56.5t23 93q-11 0 -20.5 1.5t-12.5 2.5l-4 2v86z" />
    <glyph glyph-name="rcommaaccent" unicode="&#x157;" horiz-adv-x="788" 
d="M252 866q130 230 313 230q47 0 89.5 -11t61.5 -23l19 -11q-3 -40 -35 -56q-73 37 -153 37q-152 0 -295 -278v-748q-8 -6 -33 -6q-11 0 -19.5 1.5t-11.5 2.5l-2 2v1065q8 6 33 6q11 0 19.5 -1.5t11.5 -3.5l2 -1v-205zM139 -348q6 6 16 18.5t29 56.5t23 93q-11 0 -20.5 1.5
t-12.5 2.5l-4 2v86q16 6 49 6q15 0 27 -1.5t17 -2.5l5 -2v-66q0 -40 -10 -77.5t-24 -62t-28 -43.5t-24 -27l-10 -9z" />
    <glyph glyph-name="Rcaron" unicode="&#x158;" horiz-adv-x="1259" 
d="M616 1579h-53l-254 207q5 31 35 43l248 -187l244 185q25 -6 32 -41zM799 676l352 -670q-14 -6 -39 -6q-12 0 -22.5 1.5t-15.5 2.5l-5 2l-348 662h-432v-662q-10 -6 -35 -6q-11 0 -20 1.5t-12 2.5l-3 2v1469h483q187 0 293.5 -110t106.5 -294q0 -158 -79.5 -262.5
t-223.5 -132.5zM707 733q149 0 235 89.5t86 248.5t-86 248.5t-235 89.5h-418v-676h418z" />
    <glyph glyph-name="rcaron" unicode="&#x159;" horiz-adv-x="788" 
d="M158 1423q5 30 30 41l228 -172l223 170q24 -5 31 -39l-232 -190h-47zM252 866q130 230 313 230q47 0 89.5 -11t61.5 -23l19 -11q-3 -40 -35 -56q-73 37 -153 37q-152 0 -295 -278v-748q-8 -6 -33 -6q-11 0 -19.5 1.5t-11.5 2.5l-2 2v1065q8 6 33 6q11 0 19.5 -1.5
t11.5 -3.5l2 -1v-205z" />
    <glyph glyph-name="Sacute" unicode="&#x15a;" horiz-adv-x="1146" 
d="M516 1554q-36 3 -49 29l240 307q44 0 65 -35zM610 1432q-197 0 -297 -85.5t-100 -236.5q0 -37 6.5 -69t16.5 -57.5t29.5 -47.5t36.5 -38t47.5 -32t53 -25.5t62 -22t65.5 -19.5t72 -19q55 -14 90.5 -24.5t84.5 -29.5t80.5 -38.5t66 -50.5t54.5 -67t33 -85.5t13 -109.5
q0 -185 -126.5 -290t-350.5 -105q-69 0 -136 7.5t-113.5 19t-83.5 22.5t-55 19l-18 7q-2 15 4.5 32t16.5 26q20 -7 55 -18t133.5 -29.5t186.5 -18.5q197 0 306 84t109 242q0 48 -11 88t-27.5 69.5t-46 55t-57 42t-70.5 33t-75.5 26t-82.5 22.5q-174 47 -246 82
q-153 76 -186 222q-9 43 -9 93q0 181 120.5 285t340.5 104q99 0 191.5 -12.5t134.5 -24.5l43 -12q3 -36 -21 -57q-158 43 -340 43z" />
    <glyph glyph-name="sacute" unicode="&#x15b;" horiz-adv-x="903" 
d="M371 1249q-36 3 -49 29l239 307q45 0 66 -35zM127 803q0 135 90.5 215t263.5 80q68 0 132.5 -11t94.5 -23l31 -11q2 -14 -5 -30.5t-17 -23.5q-103 37 -230 37q-142 0 -216 -59t-74 -172q0 -48 20 -85.5t59 -62.5t78 -40.5t95 -30.5q6 -2 19 -5q141 -40 200 -75
q125 -75 125 -230q0 -139 -91 -217.5t-266 -78.5q-86 0 -163 15.5t-111 31.5l-35 16q-4 34 20 51q15 -6 41 -15t100.5 -23.5t141.5 -14.5q130 0 210.5 57t80.5 174q0 34 -8.5 63t-20.5 50t-34.5 39t-42 29.5t-51.5 23.5t-54.5 19t-59.5 17q-12 3 -18 5q-52 14 -89 27.5
t-81 37.5t-71 52t-45.5 71.5t-18.5 96.5z" />
    <glyph glyph-name="Scircumflex" unicode="&#x15c;" horiz-adv-x="1146" 
d="M895 1622q-7 -35 -33 -41l-248 184l-243 -186q-30 12 -35 43l254 207h53zM610 1432q-197 0 -297 -85.5t-100 -236.5q0 -37 6.5 -69t16.5 -57.5t29.5 -47.5t36.5 -38t47.5 -32t53 -25.5t62 -22t65.5 -19.5t72 -19q55 -14 90.5 -24.5t84.5 -29.5t80.5 -38.5t66 -50.5
t54.5 -67t33 -85.5t13 -109.5q0 -185 -126.5 -290t-350.5 -105q-69 0 -136 7.5t-113.5 19t-83.5 22.5t-55 19l-18 7q-2 15 4.5 32t16.5 26q20 -7 55 -18t133.5 -29.5t186.5 -18.5q197 0 306 84t109 242q0 48 -11 88t-27.5 69.5t-46 55t-57 42t-70.5 33t-75.5 26t-82.5 22.5
q-174 47 -246 82q-153 76 -186 222q-9 43 -9 93q0 181 120.5 285t340.5 104q99 0 191.5 -12.5t134.5 -24.5l43 -12q3 -36 -21 -57q-158 43 -340 43z" />
    <glyph glyph-name="scircumflex" unicode="&#x15d;" horiz-adv-x="903" 
d="M741 1274q-7 -34 -32 -39l-242 180l-240 -182q-26 10 -32 41l247 203h52zM127 803q0 135 90.5 215t263.5 80q68 0 132.5 -11t94.5 -23l31 -11q2 -14 -5 -30.5t-17 -23.5q-103 37 -230 37q-142 0 -216 -59t-74 -172q0 -48 20 -85.5t59 -62.5t78 -40.5t95 -30.5q6 -2 19 -5
q141 -40 200 -75q125 -75 125 -230q0 -139 -91 -217.5t-266 -78.5q-86 0 -163 15.5t-111 31.5l-35 16q-4 34 20 51q15 -6 41 -15t100.5 -23.5t141.5 -14.5q130 0 210.5 57t80.5 174q0 34 -8.5 63t-20.5 50t-34.5 39t-42 29.5t-51.5 23.5t-54.5 19t-59.5 17q-12 3 -18 5
q-52 14 -89 27.5t-81 37.5t-71 52t-45.5 71.5t-18.5 96.5z" />
    <glyph glyph-name="Scedilla" unicode="&#x15e;" horiz-adv-x="1144" 
d="M600 780q55 -14 90.5 -24.5t84.5 -29.5t80.5 -38.5t66 -50.5t54.5 -67t33 -85.5t13 -109.5q0 -177 -116.5 -281.5t-325.5 -113.5l-19 -109q119 0 175.5 -42t56.5 -128q0 -199 -230 -199q-45 0 -89.5 12t-66.5 24l-22 11q3 28 23 45q67 -36 157 -36q78 0 119 36t41 107
q0 113 -150 113h-63l-14 16l24 150q-104 2 -199.5 20.5t-139.5 36.5l-44 18q-2 15 4.5 32t16.5 26q20 -7 55 -18t133.5 -29.5t186.5 -18.5q197 0 306 84t109 242q0 48 -11 88t-27.5 69.5t-46 55t-57 42t-70.5 33t-75.5 26t-82.5 22.5q-174 47 -246 82q-153 76 -186 222
q-9 43 -9 93q0 181 120.5 285t340.5 104q99 0 191.5 -12.5t134.5 -24.5l43 -12q3 -36 -21 -57q-158 43 -340 43q-197 0 -297 -85.5t-100 -236.5q0 -37 6.5 -69t16.5 -57.5t29.5 -47.5t36.5 -38t47.5 -32t53 -25.5t62 -22t65.5 -19.5t72 -19z" />
    <glyph glyph-name="scedilla" unicode="&#x15f;" horiz-adv-x="903" 
d="M449 586q6 -2 19 -5q141 -40 200 -75q125 -75 125 -230q0 -136 -86.5 -214t-253.5 -82l-17 -111q226 0 226 -164q0 -178 -224 -178q-44 0 -87.5 11.5t-64.5 22.5l-22 11q3 28 23 45q65 -37 153 -37q156 0 156 125q0 109 -145 109h-64l-12 16l22 150q-76 4 -143.5 19.5
t-97.5 29.5l-29 14q-4 34 20 51q15 -6 41 -15t100.5 -23.5t141.5 -14.5q130 0 210.5 57t80.5 174q0 34 -8.5 63t-20.5 50t-34.5 39t-42 29.5t-51.5 23.5t-54.5 19t-59.5 17q-12 3 -18 5q-52 14 -89 27.5t-81 37.5t-71 52t-45.5 71.5t-18.5 96.5q0 135 90.5 215t263.5 80
q68 0 132.5 -11t94.5 -23l31 -11q2 -14 -5 -30.5t-17 -23.5q-103 37 -230 37q-142 0 -216 -59t-74 -172q0 -48 20 -85.5t59 -62.5t78 -40.5t95 -30.5z" />
    <glyph glyph-name="Scaron" unicode="&#x160;" horiz-adv-x="1146" 
d="M322 1786q5 32 34 43l248 -187l244 185q26 -6 33 -41l-252 -207h-54zM610 1432q-197 0 -297 -85.5t-100 -236.5q0 -37 6.5 -69t16.5 -57.5t29.5 -47.5t36.5 -38t47.5 -32t53 -25.5t62 -22t65.5 -19.5t72 -19q55 -14 90.5 -24.5t84.5 -29.5t80.5 -38.5t66 -50.5t54.5 -67
t33 -85.5t13 -109.5q0 -185 -126.5 -290t-350.5 -105q-69 0 -136 7.5t-113.5 19t-83.5 22.5t-55 19l-18 7q-2 15 4.5 32t16.5 26q20 -7 55 -18t133.5 -29.5t186.5 -18.5q197 0 306 84t109 242q0 48 -11 88t-27.5 69.5t-46 55t-57 42t-70.5 33t-75.5 26t-82.5 22.5
q-174 47 -246 82q-153 76 -186 222q-9 43 -9 93q0 181 120.5 285t340.5 104q99 0 191.5 -12.5t134.5 -24.5l43 -12q3 -36 -21 -57q-158 43 -340 43z" />
    <glyph glyph-name="scaron" unicode="&#x161;" horiz-adv-x="907" 
d="M229 1419q6 31 33 39l223 -168l222 166q21 -5 28 -37l-227 -186h-49zM129 803q0 135 90.5 215t263.5 80q68 0 132.5 -11t94.5 -23l31 -11q2 -14 -5 -30.5t-17 -23.5q-103 37 -230 37q-142 0 -216 -59t-74 -172q0 -48 20 -85.5t59 -62.5t78 -40.5t95 -30.5q6 -2 19 -5
q141 -40 200 -75q125 -75 125 -230q0 -139 -91 -217.5t-266 -78.5q-86 0 -163 15.5t-111 31.5l-35 16q-2 14 4.5 29t16.5 22q15 -6 41 -15t100 -23.5t141 -14.5q130 0 210.5 57t80.5 174q0 34 -8.5 63t-20.5 50t-34.5 39t-42 29.5t-51.5 23.5t-54.5 19t-59.5 17q-12 3 -18 5
q-52 14 -89 27.5t-81 37.5t-71 52t-45.5 71.5t-18.5 96.5z" />
    <glyph glyph-name="uni0162" unicode="&#x162;" horiz-adv-x="1081" 
d="M1010 1475q6 -8 6 -31q0 -9 -1.5 -17t-2.5 -12l-2 -4h-428v-1405q-10 -6 -35 -6q-11 0 -20 1.5t-12 2.5l-3 2v1405h-438q-6 13 -6 33q0 9 1.5 16.5t2.5 11.5l2 3h936zM467 -348q6 6 16 18.5t29 56.5t23 93q-11 0 -20.5 1.5t-12.5 2.5l-4 2v86q16 6 49 6q15 0 27 -1.5
t17 -2.5l5 -2v-66q0 -40 -10 -77.5t-24 -62t-28 -43.5t-24 -27l-10 -9z" />
    <glyph glyph-name="uni0163" unicode="&#x163;" horiz-adv-x="716" 
d="M305 352q0 -165 50.5 -238t183.5 -73q29 0 59 3t46 6l15 3q9 -10 9 -30l-4 -27q-56 -16 -138 -16q-161 0 -223.5 91.5t-62.5 280.5v664h-166q-6 8 -6 31q0 10 1.5 17.5t2.5 9.5l2 3h166v209q25 22 65 19v-228h330q8 -7 8 -30q0 -10 -2 -18t-4 -11l-2 -2h-330v-664z
M395 -410q6 6 16 18.5t29 56.5t23 93q-11 0 -20.5 1.5t-12.5 2.5l-4 2v86q16 7 49 7q15 0 27 -1.5t17 -3.5l5 -2v-65q0 -40 -10 -77.5t-24 -62t-28 -43.5t-24 -28l-10 -8z" />
    <glyph glyph-name="Tcaron" unicode="&#x164;" horiz-adv-x="1081" 
d="M268 1786q5 31 35 43l248 -187l244 185q25 -6 32 -41l-252 -207h-53zM1010 1475q6 -8 6 -31q0 -9 -1.5 -17t-2.5 -12l-2 -4h-428v-1405q-10 -6 -35 -6q-11 0 -20 1.5t-12 2.5l-3 2v1405h-438q-6 13 -6 33q0 9 1.5 16.5t2.5 11.5l2 3h936z" />
    <glyph glyph-name="tcaron" unicode="&#x165;" horiz-adv-x="696" 
d="M586 1149q-30 3 -37 25q133 99 139 299q46 6 68 -13q-6 -92 -51.5 -180.5t-118.5 -130.5zM307 352q0 -165 50.5 -238t183.5 -73q29 0 59.5 3t45.5 6l16 3q8 -10 8 -30l-4 -27q-56 -16 -138 -16q-161 0 -223.5 91.5t-62.5 280.5v664h-166q-6 8 -6 31q0 10 1.5 17.5
t2.5 9.5l2 3h166v209q25 22 65 19v-228h203q8 -7 8 -30q0 -10 -2 -18t-4 -11l-2 -2h-203v-664z" />
    <glyph glyph-name="Tbar" unicode="&#x166;" horiz-adv-x="1107" 
d="M594 735h266q6 -10 6 -30q0 -8 -1.5 -15.5t-2.5 -11.5l-2 -4h-266v-668q-10 -6 -35 -6q-11 0 -20 1.5t-12 2.5l-3 2v668h-266q-6 11 -6 31q0 9 1.5 16.5t2.5 10.5l2 3h266v676h-438q-6 13 -6 33q0 9 1.5 16.5t2.5 11.5l2 3h936q6 -8 6 -31q0 -9 -1.5 -17t-2.5 -12l-2 -4
h-428v-676z" />
    <glyph glyph-name="tbar" unicode="&#x167;" horiz-adv-x="724" 
d="M545 41q29 0 59.5 3t45.5 6l16 3q8 -10 8 -30l-4 -27q-56 -16 -138 -16q-161 0 -223.5 91.5t-62.5 280.5v205h-140q-6 9 -6 25q0 8 1.5 14.5t2.5 9.5l2 2h140v408h-166q-6 8 -6 31q0 10 1.5 17.5t2.5 9.5l2 3h166v209q25 22 65 19v-228h330q8 -7 8 -30q0 -10 -2 -18
t-4 -11l-2 -2h-330v-408h256q6 -8 6 -26q0 -7 -1.5 -13.5t-3.5 -8.5l-1 -3h-256v-205q0 -165 50.5 -238t183.5 -73z" />
    <glyph glyph-name="Utilde" unicode="&#x168;" horiz-adv-x="1357" 
d="M801 1655q25 0 45 13.5t28 27.5l7 14q37 4 53 -20l-5 -10t-15.5 -22t-27.5 -28.5t-40.5 -22.5t-54.5 -10q-51 0 -117 35t-103 35q-25 0 -45 -14.5t-27 -29.5l-7 -15q-39 -3 -54 22l5 10t15.5 22.5t27.5 29t41 22.5t55 10q52 0 117 -34.5t102 -34.5zM1151 455
q0 -225 -128.5 -350t-344.5 -125q-215 0 -343 125.5t-128 349.5v1013q12 7 35 7q11 0 19.5 -1.5t11.5 -3.5l3 -2v-1022q0 -193 107.5 -299t298.5 -106q190 0 295.5 106t105.5 299v1022q13 7 33 7q10 0 19 -1.5t13 -3.5l3 -2v-1013z" />
    <glyph glyph-name="utilde" unicode="&#x169;" 
d="M684 1350q25 0 45 15t27 29l8 15q35 4 53 -23q-2 -4 -5 -10.5t-15.5 -23t-27.5 -29t-40.5 -23t-54.5 -10.5q-52 0 -117 37t-102 37q-25 0 -45 -15t-28 -31l-7 -15q-39 -3 -53 22q2 4 5 10.5t15.5 23.5t27.5 30t40.5 23.5t54.5 10.5q51 0 117 -36.5t102 -36.5zM178 283
q0 -139 82.5 -221t226.5 -82q122 0 219.5 54t163.5 152v-180q10 -6 33 -6q10 0 18.5 1.5t11.5 2.5l3 2v1065q-10 6 -33 6q-10 0 -18.5 -1.5t-11.5 -3.5l-3 -1v-764q-53 -124 -153 -196t-209 -72q-264 0 -264 260v772q-10 6 -33 6q-10 0 -18.5 -1.5t-11.5 -3.5l-3 -1v-788z
" />
    <glyph glyph-name="Umacron" unicode="&#x16a;" horiz-adv-x="1357" 
d="M412 1579q-9 15 -9 33t9 33h546q9 -12 9 -31q0 -20 -9 -35h-546zM1151 455q0 -225 -128.5 -350t-344.5 -125q-215 0 -343 125.5t-128 349.5v1013q12 7 35 7q11 0 19.5 -1.5t11.5 -3.5l3 -2v-1022q0 -193 107.5 -299t298.5 -106q190 0 295.5 106t105.5 299v1022q13 7 33 7
q10 0 19 -1.5t13 -3.5l3 -2v-1013z" />
    <glyph glyph-name="umacron" unicode="&#x16b;" 
d="M342 1315q-6 15 -6 31q0 15 6 30h440q6 -12 6 -28q0 -18 -6 -33h-440zM178 283q0 -139 82.5 -221t226.5 -82q122 0 219.5 54t163.5 152v-180q10 -6 33 -6q10 0 18.5 1.5t11.5 2.5l3 2v1065q-10 6 -33 6q-10 0 -18.5 -1.5t-11.5 -3.5l-3 -1v-764q-53 -124 -153 -196
t-209 -72q-264 0 -264 260v772q-10 6 -33 6q-10 0 -18.5 -1.5t-11.5 -3.5l-3 -1v-788z" />
    <glyph glyph-name="Ubreve" unicode="&#x16c;" horiz-adv-x="1357" 
d="M944 1720q-4 -4 -11.5 -11t-33.5 -25t-55 -32t-76.5 -25t-97.5 -11q-51 0 -98 10.5t-78 26t-54.5 31t-33.5 26.5l-11 10q9 29 37 39q4 -3 11.5 -9t31.5 -21t50 -26t66 -20.5t79 -9.5q63 0 121.5 21.5t86.5 43.5l27 21q34 -8 39 -39zM1151 455q0 -225 -128.5 -350
t-344.5 -125q-215 0 -343 125.5t-128 349.5v1013q12 7 35 7q11 0 19.5 -1.5t11.5 -3.5l3 -2v-1022q0 -193 107.5 -299t298.5 -106q190 0 295.5 106t105.5 299v1022q13 7 33 7q10 0 19 -1.5t13 -3.5l3 -2v-1013z" />
    <glyph glyph-name="ubreve" unicode="&#x16d;" 
d="M825 1409q-4 -5 -11 -12t-32 -26.5t-53.5 -34t-74.5 -26.5t-95 -12t-94.5 11.5t-75.5 28t-52.5 32.5t-32.5 28l-11 11q9 29 37 39q4 -4 11 -9.5t30 -21t48 -27t63.5 -21t76.5 -9.5q61 0 118 22t84 44l27 22q18 -4 26 -12.5t11 -26.5zM178 283q0 -139 82.5 -221t226.5 -82
q122 0 219.5 54t163.5 152v-180q10 -6 33 -6q10 0 18.5 1.5t11.5 2.5l3 2v1065q-10 6 -33 6q-10 0 -18.5 -1.5t-11.5 -3.5l-3 -1v-764q-53 -124 -153 -196t-209 -72q-264 0 -264 260v772q-10 6 -33 6q-10 0 -18.5 -1.5t-11.5 -3.5l-3 -1v-788z" />
    <glyph glyph-name="Uring" unicode="&#x16e;" horiz-adv-x="1357" 
d="M678 1575q-100 0 -163.5 57.5t-63.5 159.5q0 99 67.5 156t161.5 57q93 0 162 -56.5t69 -156.5q0 -101 -67 -159t-166 -58zM846 1792q0 64 -44 109t-124 45q-78 0 -120 -45t-42 -109q0 -65 42 -111.5t120 -46.5q80 0 124 47t44 111zM1151 455q0 -225 -128.5 -350
t-344.5 -125q-215 0 -343 125.5t-128 349.5v1013q12 7 35 7q11 0 19.5 -1.5t11.5 -3.5l3 -2v-1022q0 -193 107.5 -299t298.5 -106q190 0 295.5 106t105.5 299v1022q13 7 33 7q10 0 19 -1.5t13 -3.5l3 -2v-1013z" />
    <glyph glyph-name="uring" unicode="&#x16f;" 
d="M557 1214q-92 0 -150.5 53.5t-58.5 147.5q0 92 62 144.5t149 52.5q86 0 149.5 -52t63.5 -145t-61.5 -147t-153.5 -54zM713 1415q0 59 -41 100t-115 41q-72 0 -110.5 -41t-38.5 -100q0 -60 38.5 -102.5t110.5 -42.5q74 0 115 43t41 102zM178 283q0 -139 82.5 -221
t226.5 -82q122 0 219.5 54t163.5 152v-180q10 -6 33 -6q10 0 18.5 1.5t11.5 2.5l3 2v1065q-10 6 -33 6q-10 0 -18.5 -1.5t-11.5 -3.5l-3 -1v-764q-53 -124 -153 -196t-209 -72q-264 0 -264 260v772q-10 6 -33 6q-10 0 -18.5 -1.5t-11.5 -3.5l-3 -1v-788z" />
    <glyph glyph-name="Uhungarumlaut" unicode="&#x170;" horiz-adv-x="1357" 
d="M502 1552q-34 3 -47 29l219 299q49 0 76 -35zM799 1552q-34 3 -47 29l219 299q49 0 76 -35zM1151 455q0 -225 -128.5 -350t-344.5 -125q-215 0 -343 125.5t-128 349.5v1013q12 7 35 7q11 0 19.5 -1.5t11.5 -3.5l3 -2v-1022q0 -193 107.5 -299t298.5 -106q190 0 295.5 106
t105.5 299v1022q13 7 33 7q10 0 19 -1.5t13 -3.5l3 -2v-1013z" />
    <glyph glyph-name="uhungarumlaut" unicode="&#x171;" 
d="M389 1247q-31 3 -45 27l211 280q45 0 72 -30zM674 1247q-33 3 -47 27l211 280q44 0 71 -30zM178 1071q10 6 33 6q10 0 18.5 -1.5t11.5 -3.5l3 -1v-772q0 -260 264 -260q109 0 209 72t153 196v764q10 6 33 6q10 0 18.5 -1.5t11.5 -3.5l3 -1v-1065q-10 -6 -33 -6
q-10 0 -18.5 1.5t-11.5 2.5l-3 2v180q-66 -98 -163.5 -152t-219.5 -54q-144 0 -226.5 82t-82.5 221v788z" />
    <glyph glyph-name="Uogonek" unicode="&#x172;" horiz-adv-x="1357" 
d="M1083 1468q13 7 33 7q10 0 19 -1.5t13 -3.5l3 -2v-1013q0 -170 -76 -285t-211 -162q-141 -53 -141 -180q0 -49 29.5 -74.5t81.5 -25.5q23 0 44.5 5.5t31.5 10.5l10 6q18 -15 18 -49q-43 -31 -117 -31q-79 0 -122.5 41.5t-43.5 108.5q0 102 80 162q-18 -2 -57 -2
q-215 0 -343 125.5t-128 349.5v1013q12 7 35 7q11 0 19.5 -1.5t11.5 -3.5l3 -2v-1022q0 -193 107.5 -299t298.5 -106q190 0 295.5 106t105.5 299v1022z" />
    <glyph glyph-name="uogonek" unicode="&#x173;" 
d="M872 -295q23 0 44.5 5.5t31.5 10.5l10 5q19 -16 19 -45q-43 -33 -117 -33q-79 0 -122.5 41t-43.5 108q0 68 51 135.5t132 100.5l-7 153q-66 -98 -163.5 -152t-219.5 -54q-144 0 -226.5 82t-82.5 221v788q10 6 33 6q10 0 18.5 -1.5t11.5 -3.5l3 -1v-772q0 -260 264 -260
q109 0 209 72t153 196v764q10 6 33 6q10 0 18.5 -1.5t11.5 -3.5l3 -1v-1067q-80 -21 -127 -78.5t-47 -120.5q0 -49 29 -74.5t81 -25.5z" />
    <glyph glyph-name="Wcircumflex" unicode="&#x174;" horiz-adv-x="1931" 
d="M1257 1622q-7 -35 -32 -41l-248 184l-244 -186q-30 12 -35 43l254 207h54zM1014 1188q-16 54 -25.5 97t-11.5 59l-2 16h-4q-4 -51 -39 -172l-363 -1182q-10 -6 -28 -6q-9 0 -16 1.5t-10 2.5l-3 2l-446 1462q9 7 34 7q11 0 20.5 -1.5t13.5 -3.5l3 -2l359 -1175
q16 -50 27 -97.5t15 -69.5l3 -22h4q6 76 41 189l360 1175q6 7 29 7q10 0 17.5 -1.5t9.5 -3.5l2 -2l358 -1175q15 -50 24.5 -97.5t11.5 -69.5l3 -22h4q8 76 43 189l340 1175q8 7 35 7q10 0 18 -1.5t11 -3.5l3 -2l-423 -1462q-9 -6 -29 -6q-9 0 -16 1.5t-10 2.5l-3 2z" />
    <glyph glyph-name="wcircumflex" unicode="&#x175;" horiz-adv-x="1619" 
d="M1085 1274q-7 -34 -32 -39l-242 180l-240 -182q-26 10 -32 41l247 203h52zM887 737q-27 83 -45 144t-22 81l-5 19h-6q-12 -60 -78 -244l-252 -731q-8 -6 -26 -6q-8 0 -14.5 1.5t-9.5 2.5l-3 2l-354 1065q9 6 34 6q11 0 20 -1.5t12 -3.5l3 -1l269 -809q16 -46 26 -86.5
t12 -57.5l3 -18h6q10 62 45 162l278 809q8 6 31 6q11 0 19.5 -1.5t11.5 -3.5l2 -1l278 -805q16 -46 26.5 -87.5t12.5 -60.5l2 -18h6q10 57 45 166l267 805q9 6 32 6q11 0 19.5 -1.5t11.5 -3.5l2 -1l-352 -1065q-9 -6 -27 -6q-8 0 -14.5 1.5t-8.5 2.5l-3 2z" />
    <glyph glyph-name="Ycircumflex" unicode="&#x176;" horiz-adv-x="1257" 
d="M922 1622q-7 -35 -33 -41l-248 184l-244 -186q-30 12 -35 43l254 207h54zM57 1468q14 7 43 7q13 0 23 -1.5t14 -3.5l4 -2l486 -768l501 768q10 7 39 7q15 0 25.5 -1.5t13.5 -3.5l4 -2l-548 -843v-619q-12 -6 -35 -6q-10 0 -19 1.5t-12 2.5l-4 2v617z" />
    <glyph glyph-name="ycircumflex" unicode="&#x177;" horiz-adv-x="1062" 
d="M801 1274q-7 -33 -33 -39l-242 180l-239 -182q-27 11 -33 41l248 203h51zM508 -260q-46 -128 -100 -190t-146 -62q-24 0 -47.5 3t-34.5 6l-12 3q-6 12 -6 29q0 20 8 31q33 -11 86 -11q59 0 102.5 48t85.5 165l88 240q-22 11 -26 14l-440 1055q11 6 36 6q11 0 20.5 -1.5
t13.5 -3.5l3 -1l340 -815q20 -47 38.5 -94.5t26.5 -71.5l9 -24h6q27 82 66 188l299 817q7 6 34 6q12 0 21.5 -1.5t12.5 -3.5l3 -1z" />
    <glyph glyph-name="Ydieresis" unicode="&#x178;" horiz-adv-x="1257" 
d="M530 1585q-16 -6 -49 -6q-15 0 -27 1.5t-17 3.5l-5 1v86q16 6 49 6q15 0 27 -1.5t17 -3.5l5 -1v-86zM819 1585q-16 -6 -49 -6q-15 0 -27 1.5t-17 3.5l-5 1v86q16 6 49 6q15 0 27 -1.5t17 -3.5l5 -1v-86zM57 1468q14 7 43 7q13 0 23 -1.5t14 -3.5l4 -2l486 -768l501 768
q10 7 39 7q15 0 25.5 -1.5t13.5 -3.5l4 -2l-548 -843v-619q-12 -6 -35 -6q-10 0 -19 1.5t-12 2.5l-4 2v617z" />
    <glyph glyph-name="Zacute" unicode="&#x179;" horiz-adv-x="1177" 
d="M532 1554q-36 3 -49 29l240 307q44 0 65 -35zM1049 1475q6 -13 6 -33q0 -9 -1.5 -17t-3.5 -12l-1 -4l-873 -1343h899q6 -10 6 -33q0 -10 -1.5 -18.5t-3.5 -11.5l-1 -3h-981q-6 10 -6 33q0 9 1.5 17t2.5 12l2 4l875 1343h-819q-7 10 -7 33q0 10 1.5 18.5t3.5 11.5l2 3h899
z" />
    <glyph glyph-name="zacute" unicode="&#x17a;" horiz-adv-x="917" 
d="M430 1249q-36 3 -49 29l240 307q44 0 65 -35zM809 61q6 -5 6 -30q0 -7 -0.5 -13t-1.5 -9t-2 -5t-1 -3l-1 -1h-715q-6 6 -6 31q0 11 1.5 18.5t2.5 9.5l2 2l633 955h-582q-6 6 -6 31q0 11 1.5 18.5t3.5 9.5l1 2h656q6 -7 6 -30q0 -10 -1.5 -18t-3.5 -11l-1 -2l-631 -955
h639z" />
    <glyph glyph-name="Zdotaccent" unicode="&#x17b;" horiz-adv-x="1177" 
d="M641 1620q-16 -6 -49 -6q-15 0 -27 1.5t-17 2.5l-5 2v86q16 6 49 6q15 0 27 -1.5t17 -2.5l5 -2v-86zM1049 1475q6 -13 6 -33q0 -9 -1.5 -17t-3.5 -12l-1 -4l-873 -1343h899q6 -10 6 -33q0 -10 -1.5 -18.5t-3.5 -11.5l-1 -3h-981q-6 10 -6 33q0 9 1.5 17t2.5 12l2 4
l875 1343h-819q-7 10 -7 33q0 10 1.5 18.5t3.5 11.5l2 3h899z" />
    <glyph glyph-name="zdotaccent" unicode="&#x17c;" horiz-adv-x="917" 
d="M530 1298q-16 -6 -49 -6q-15 0 -27 1.5t-17 2.5l-5 2v86q16 7 49 7q15 0 27 -1.5t17 -3.5l5 -2v-86zM809 61q6 -5 6 -30q0 -7 -0.5 -13t-1.5 -9t-2 -5t-1 -3l-1 -1h-715q-6 6 -6 31q0 11 1.5 18.5t2.5 9.5l2 2l633 955h-582q-6 6 -6 31q0 11 1.5 18.5t3.5 9.5l1 2h656
q6 -7 6 -30q0 -10 -1.5 -18t-3.5 -11l-1 -2l-631 -955h639z" />
    <glyph glyph-name="Zcaron" unicode="&#x17d;" horiz-adv-x="1177" 
d="M317 1786q5 31 35 43l248 -187l244 185q26 -6 33 -41l-252 -207h-54zM1049 1475q6 -13 6 -33q0 -9 -1.5 -17t-3.5 -12l-1 -4l-873 -1343h899q6 -10 6 -33q0 -10 -1.5 -18.5t-3.5 -11.5l-1 -3h-981q-6 10 -6 33q0 9 1.5 17t2.5 12l2 4l875 1343h-819q-7 10 -7 33
q0 10 1.5 18.5t3.5 11.5l2 3h899z" />
    <glyph glyph-name="zcaron" unicode="&#x17e;" horiz-adv-x="919" 
d="M225 1419q6 31 31 39l223 -168l221 166q21 -3 29 -37l-227 -186h-47zM809 61q6 -5 6 -30q0 -7 -0.5 -13t-1.5 -9t-2 -5t-1 -3l-1 -1h-715q-6 6 -6 31q0 11 1.5 18.5t2.5 9.5l2 2l633 955h-582q-6 6 -6 31q0 11 1.5 18.5t3.5 9.5l1 2h656q6 -7 6 -30q0 -10 -1.5 -18
t-3.5 -11l-1 -2l-631 -955h639z" />
    <glyph glyph-name="longs" unicode="&#x17f;" horiz-adv-x="514" 
d="M287 6q-8 -6 -33 -6q-11 0 -19.5 1.5t-10.5 2.5l-3 2v1010h-131q-6 8 -6 31q0 10 1.5 17.5t2.5 9.5l2 3h131v123q0 80 13 137.5t45 104.5t91.5 70.5t147.5 23.5q44 0 89.5 -6t68.5 -12l24 -7q7 -35 -18 -57q-66 21 -154 21q-75 0 -123.5 -17t-73.5 -53.5t-34.5 -81.5
t-9.5 -113v-1204z" />
    <glyph glyph-name="florin" unicode="&#x192;" horiz-adv-x="874" 
d="M362 23q-17 -164 -84.5 -238t-191.5 -74q-38 0 -79 9.5t-63 18.5l-22 9q-4 32 19 49q71 -24 141 -24q95 0 148.5 55t66.5 192l84 840h-205q-6 11 -6 31q0 8 1.5 14.5t2.5 9.5l2 3h211l19 184q17 169 80.5 241t189.5 72q44 0 85.5 -7.5t60.5 -15.5l20 -8q3 -27 -19 -49
q-71 23 -145 23q-95 0 -144.5 -56.5t-62.5 -197.5l-18 -186h213q6 -9 6 -29q0 -9 -1.5 -16t-2.5 -10l-2 -3h-220z" />
    <glyph glyph-name="Aringacute" unicode="&#x1fa;" horiz-adv-x="1310" 
d="M643 1905q-34 3 -45 20l223 229q43 0 62 -26zM1264 6q-10 -6 -37 -6q-10 0 -19.5 1.5t-13.5 2.5l-4 2l-174 440h-723l-176 -440q-10 -6 -37 -6q-12 0 -20 1.5t-10 2.5l-3 2l563 1419q-85 12 -135.5 68t-50.5 147q0 99 67.5 156t161.5 57q93 0 162.5 -56.5t69.5 -156.5
q0 -87 -51.5 -143t-133.5 -70zM819 1640q0 64 -44 109t-124 45q-78 0 -120 -45t-42 -109q0 -65 42 -111t120 -46q80 0 124 46.5t44 110.5zM989 512l-307 780q-9 23 -15 42.5t-8 27.5l-2 8h-4q-8 -29 -26 -78l-310 -780h672z" />
    <glyph glyph-name="aringacute" unicode="&#x1fb;" horiz-adv-x="1044" 
d="M455 1655q-34 3 -45 20l223 230q41 0 61 -27zM520 1159q-100 0 -163.5 57.5t-63.5 159.5q0 99 67.5 156t161.5 57q93 0 162.5 -56.5t69.5 -156.5q0 -101 -67.5 -159t-166.5 -58zM688 1376q0 64 -44 109t-124 45q-78 0 -120 -45t-42 -109q0 -65 42 -111t120 -46
q80 0 124 46.5t44 110.5zM801 741q0 158 -70.5 227.5t-214.5 69.5q-73 0 -148.5 -14t-115.5 -28l-39 -13q-27 20 -23 55q18 7 49 17t119 26.5t166 16.5q86 0 147 -19t99 -52.5t59.5 -90.5t29 -120t7.5 -154v-656q-8 -6 -26 -6q-8 0 -15 1.5t-9 2.5l-3 2l-12 184v3
q-47 -102 -145 -157.5t-230 -55.5q-143 0 -230 82.5t-87 226.5q0 149 93 231t283 82q173 0 316 -20v159zM178 289q0 -123 68.5 -185.5t187.5 -62.5q161 0 264 103.5t103 281.5v96q-3 0 -46 4.5t-75.5 7.5t-85 6t-96.5 3q-163 0 -241.5 -63t-78.5 -191z" />
    <glyph glyph-name="AEacute" unicode="&#x1fc;" horiz-adv-x="1736" 
d="M1180 1554q-37 3 -50 29l240 307q45 0 66 -35zM104 6q-15 -6 -34 -6q-27 0 -39 6l887 1469h686q8 -12 8 -32.5t-8 -33.5h-603v-629h500q17 -34 0 -65h-500v-649h623q8 -13 8 -32.5t-8 -33.5h-692v420h-578zM932 1376l-539 -891h539v891z" />
    <glyph glyph-name="aeacute" unicode="&#x1fd;" horiz-adv-x="1595" 
d="M715 1249q-36 3 -49 29l239 307q45 0 66 -35zM829 535q9 -249 87.5 -369.5t232.5 -120.5q71 0 131 20t84 40l25 20q31 -15 34 -51q-4 -4 -11 -10t-33.5 -22.5t-56.5 -29t-79 -22.5t-102 -10q-129 0 -217.5 72t-126.5 212q-35 -137 -136.5 -210.5t-254.5 -73.5
q-135 0 -216 82.5t-81 226.5q0 307 356 307h295v145q0 159 -64.5 228t-199.5 69q-68 0 -139 -14t-107 -28l-37 -13q-27 20 -23 55q17 7 46 17t111.5 26.5t156.5 16.5q135 0 210 -58.5t99 -173.5q42 116 126.5 174t201.5 58q165 0 250.5 -104t85.5 -273q0 -48 -5.5 -94.5
t-11.5 -68.5l-6 -23h-625zM1407 731q0 134 -64 219.5t-202 85.5q-136 0 -221 -106.5t-91 -333.5h568q10 39 10 135zM178 289q0 -123 63 -185.5t173 -62.5q153 0 249.5 103.5t96.5 281.5v109h-283q-156 0 -227.5 -59t-71.5 -187z" />
    <glyph glyph-name="Oslashacute" unicode="&#x1fe;" horiz-adv-x="1388" 
d="M668 1571q-38 3 -50 28l226 291q44 0 65 -35zM1057 1356q180 -186 180 -619q0 -387 -140.5 -572t-402.5 -185q-209 0 -338 114l-102 -186q-12 -6 -39 -6q-11 0 -20.5 1.5t-12.5 2.5l-4 2l131 235q-157 189 -157 594q0 387 140.5 572.5t401.5 185.5q185 0 312 -92l88 158
q14 8 39 8q14 0 23.5 -2t11.5 -4l3 -2zM694 1434q-469 0 -469 -697q0 -354 121 -526l627 1130q-112 93 -279 93zM391 156q112 -115 303 -115q469 0 469 696q0 381 -141 555z" />
    <glyph glyph-name="oslashacute" unicode="&#x1ff;" horiz-adv-x="1099" 
d="M473 1249q-36 3 -49 29l240 307q44 0 65 -35zM848 981q119 -134 119 -442q0 -295 -106 -427t-310 -132q-138 0 -227 57l-68 -123q-8 -6 -39 -6q-12 0 -20.5 1.5t-11.5 2.5l-3 2l90 162q-137 134 -137 463q0 295 106 427t310 132q151 0 248 -72l78 139q7 6 38 6
q8 0 14 -0.5t10 -1.5t6.5 -2t3.5 -1l1 -1zM551 1038q-83 0 -144.5 -25t-108 -81.5t-70 -154.5t-23.5 -238q0 -281 100 -402l463 832q-80 69 -217 69zM354 92q76 -53 197 -53q83 0 144.5 25t108 81.5t70 155t23.5 238.5q0 255 -84 379z" />
    <glyph glyph-name="Scommaaccent" unicode="&#x218;" horiz-adv-x="1146" 
d="M610 1432q-197 0 -297 -85.5t-100 -236.5q0 -37 6.5 -69t16.5 -57.5t29.5 -47.5t36.5 -38t47.5 -32t53 -25.5t62 -22t65.5 -19.5t72 -19q55 -14 90.5 -24.5t84.5 -29.5t80.5 -38.5t66 -50.5t54.5 -67t33 -85.5t13 -109.5q0 -185 -126.5 -290t-350.5 -105q-69 0 -136 7.5
t-113.5 19t-83.5 22.5t-55 19l-18 7q-2 15 4.5 32t16.5 26q20 -7 55 -18t133.5 -29.5t186.5 -18.5q197 0 306 84t109 242q0 48 -11 88t-27.5 69.5t-46 55t-57 42t-70.5 33t-75.5 26t-82.5 22.5q-174 47 -246 82q-153 76 -186 222q-9 43 -9 93q0 181 120.5 285t340.5 104
q99 0 191.5 -12.5t134.5 -24.5l43 -12q3 -36 -21 -57q-158 43 -340 43zM489 -395q6 6 16 18.5t29 56.5t23 93q-11 0 -20.5 1.5t-12.5 3.5l-4 1v86q16 6 49 6q15 0 27 -1.5t17 -3.5l5 -1v-66q0 -40 -10 -77.5t-24 -62t-28 -43.5t-24 -28l-10 -8z" />
    <glyph glyph-name="scommaaccent" unicode="&#x219;" horiz-adv-x="907" 
d="M129 803q0 135 90.5 215t263.5 80q68 0 132.5 -11t94.5 -23l31 -11q2 -14 -5 -30.5t-17 -23.5q-103 37 -230 37q-142 0 -216 -59t-74 -172q0 -48 20 -85.5t59 -62.5t78 -40.5t95 -30.5q6 -2 19 -5q141 -40 200 -75q125 -75 125 -230q0 -139 -91 -217.5t-266 -78.5
q-86 0 -163 15.5t-111 31.5l-35 16q-2 14 4.5 29t16.5 22q15 -6 41 -15t100 -23.5t141 -14.5q130 0 210.5 57t80.5 174q0 34 -8.5 63t-20.5 50t-34.5 39t-42 29.5t-51.5 23.5t-54.5 19t-59.5 17q-12 3 -18 5q-52 14 -89 27.5t-81 37.5t-71 52t-45.5 71.5t-18.5 96.5z
M375 -389q6 6 16 18.5t28.5 56.5t22.5 93q-11 0 -20 1.5t-12 3.5l-4 1v86q16 6 49 6q15 0 27 -1.5t17 -3.5l5 -1v-66q0 -40 -10 -77.5t-24 -62t-28 -43.5t-24 -28l-10 -8z" />
    <glyph glyph-name="uni0237" unicode="&#x237;" horiz-adv-x="450" 
d="M193 1071q7 6 32 6q11 0 19.5 -1.5t11.5 -3.5l2 -1v-1251q0 -168 -70.5 -250t-197.5 -82q-38 0 -67 4.5t-39 9.5l-9 4q-2 7 -2 17t2 18.5t4 11.5l2 3q33 -9 92 -9q112 0 166 63t54 202v1259z" />
    <glyph glyph-name="circumflex" unicode="&#x2c6;" horiz-adv-x="811" 
d="M684 1192q-7 -35 -33 -41l-248 184l-243 -186q-30 12 -35 43l254 207h53z" />
    <glyph glyph-name="caron" unicode="&#x2c7;" horiz-adv-x="827" 
d="M125 1333q5 31 35 43l248 -186l243 184q26 -6 33 -41l-252 -207h-53z" />
    <glyph glyph-name="breve" unicode="&#x2d8;" horiz-adv-x="663" 
d="M594 1397q-4 -5 -11 -12t-32 -26.5t-53.5 -34t-74.5 -26.5t-95 -12t-95 11.5t-75.5 28t-52.5 32.5t-33 28l-11 11q9 29 37 39q4 -4 11 -9.5t30.5 -21t48.5 -27t63.5 -21t76.5 -9.5q61 0 118 22t84 44l27 22q18 -4 26 -12.5t11 -26.5z" />
    <glyph glyph-name="dotaccent" unicode="&#x2d9;" horiz-adv-x="360" 
d="M227 1241q-16 -6 -49 -6q-15 0 -27 1.5t-17 3.5l-5 1v86q16 6 49 6q15 0 27 -1.5t17 -3.5l5 -1v-86z" />
    <glyph glyph-name="ring" unicode="&#x2da;" horiz-adv-x="704" 
d="M348 1042q-100 0 -163.5 58t-63.5 160q0 99 67.5 156t161.5 57q93 0 162.5 -56.5t69.5 -156.5q0 -101 -67.5 -159.5t-166.5 -58.5zM516 1260q0 64 -44 108.5t-124 44.5q-78 0 -120 -44.5t-42 -108.5q0 -65 42 -111.5t120 -46.5q80 0 124 47t44 111z" />
    <glyph glyph-name="ogonek" unicode="&#x2db;" horiz-adv-x="579" 
d="M330 -348q18 -15 18 -45q-43 -33 -117 -33q-79 0 -122 41.5t-43 108.5q0 104 81.5 169t200.5 78v-41q-88 -16 -151.5 -65.5t-63.5 -132.5q0 -49 29.5 -75t81.5 -26q23 0 44.5 5.5t31.5 10.5z" />
    <glyph glyph-name="tilde" unicode="&#x2dc;" horiz-adv-x="669" 
d="M475 1323q25 0 45 14.5t28 29.5l7 15q36 4 53 -22q-2 -4 -5 -10.5t-15.5 -23t-27.5 -29t-40.5 -23t-54.5 -10.5q-51 0 -117 36.5t-102 36.5q-25 0 -45 -15.5t-27 -30.5l-8 -15q-39 -3 -53 22q2 4 5 10.5t15.5 24t27.5 30.5t40.5 23.5t54.5 10.5q52 0 117 -37t102 -37z
" />
    <glyph glyph-name="hungarumlaut" unicode="&#x2dd;" horiz-adv-x="790" 
d="M117 1317q-36 3 -49 29l227 307q51 0 78 -35zM424 1317q-36 3 -49 29l227 307q51 0 78 -35z" />
    <glyph glyph-name="pi" unicode="&#x3c0;" horiz-adv-x="1222" 
d="M295 1016v-1010q-8 -6 -33 -6q-11 0 -19.5 1.5t-10.5 2.5l-3 2v1010q-39 -2 -75.5 -6.5t-53.5 -8.5l-16 -4q-6 12 -6 33q0 18 6 27q69 20 268 20h783q6 -12 6 -30q0 -19 -6 -31h-152v-533q0 -101 8 -185.5t19 -133.5t22 -83.5t19 -47.5l8 -13q-13 -20 -51 -20
q-13 0 -19 2q-3 5 -8 15t-18 50t-22.5 90t-17.5 137.5t-8 188.5v533h-620z" />
    <glyph glyph-name="uni0401" unicode="&#x401;" horiz-adv-x="1140" 
d="M535 1614q-17 -6 -50 -6q-15 0 -27 1.5t-17 2.5l-5 2v86q16 6 49 6q15 0 27.5 -1.5t17.5 -2.5l5 -2v-86zM823 1614q-16 -6 -49 -6q-15 0 -27 1.5t-17 2.5l-5 2v86q16 6 49 6q15 0 27 -1.5t17 -2.5l5 -2v-86zM1008 1475q6 -12 6 -33t-6 -33h-719v-629h616q6 -12 6 -30
t-6 -33h-616v-651h739q6 -15 6 -31q0 -20 -6 -35h-809v1475h789z" />
    <glyph glyph-name="uni0410" unicode="&#x410;" horiz-adv-x="1310" 
d="M293 446l-176 -440q-10 -6 -37 -6q-12 0 -20 1.5t-10 2.5l-3 2l580 1462q8 7 28 7q8 0 15.5 -1.5t10.5 -3.5l3 -2l580 -1462q-10 -6 -37 -6q-10 0 -19.5 1.5t-13.5 2.5l-4 2l-174 440h-723zM989 512l-307 780q-9 23 -15 42.5t-8 27.5l-2 8h-4q-8 -29 -26 -78l-310 -780
h672z" />
    <glyph glyph-name="uni0411" unicode="&#x411;" horiz-adv-x="1245" 
d="M289 815h436q187 0 297.5 -109t110.5 -294q0 -187 -110.5 -299.5t-297.5 -112.5h-506v1475h762q6 -13 6 -33q0 -9 -1.5 -17t-3.5 -12l-1 -4h-692v-594zM719 63q161 0 250.5 94.5t89.5 252.5q0 159 -89 250.5t-251 91.5h-430v-689h430z" />
    <glyph glyph-name="uni0412" unicode="&#x412;" horiz-adv-x="1282" 
d="M219 1475h475q111 0 191 -31t124 -86.5t63.5 -120t19.5 -143.5q0 -76 -19.5 -139t-44 -98t-57 -62t-48.5 -35t-28 -12h2q102 -25 168 -111q74 -97 74 -250q0 -183 -105 -285t-332 -102h-483v1475zM684 776q177 0 255.5 83t78.5 235q0 153 -77.5 234t-262.5 81h-389v-633
h395zM289 66h411q197 0 281 81t84 240q0 167 -88.5 245.5t-278.5 78.5h-409v-645z" />
    <glyph glyph-name="uni0413" unicode="&#x413;" horiz-adv-x="1007" 
d="M946 1475q6 -13 6 -33l-6 -33h-657v-1403q-12 -6 -35 -6q-10 0 -19 1.5t-13 2.5l-3 2v1469h727z" />
    <glyph glyph-name="uni0414" unicode="&#x414;" horiz-adv-x="1368" 
d="M1268 -283q-13 -6 -33 -6q-10 0 -19 1.5t-12 3.5l-4 1v283h-1091v-283q-12 -6 -35 -6q-9 0 -17 1.5t-12 3.5l-4 1v349h129q70 97 108 265.5t58 420.5l55 723h717v-1409h160v-349zM403 739q-38 -499 -155 -673h790v1345h-585z" />
    <glyph glyph-name="uni0415" unicode="&#x415;" horiz-adv-x="1140" 
d="M1008 1475q6 -12 6 -33t-6 -33h-719v-629h616q6 -12 6 -30t-6 -33h-616v-651h739q6 -15 6 -31q0 -20 -6 -35h-809v1475h789z" />
    <glyph glyph-name="uni0416" unicode="&#x416;" horiz-adv-x="1947" 
d="M940 1468q12 7 35 7q10 0 19 -1.5t12 -3.5l4 -2v-671h321l424 671q12 7 39 7q11 0 20.5 -1.5t13.5 -3.5l3 -2l-436 -690l497 -772q-14 -6 -41 -6q-13 0 -24.5 1.5t-16.5 2.5l-6 2l-469 727h-325v-727q-12 -6 -35 -6q-10 0 -19 1.5t-12 2.5l-4 2v727h-338l-467 -727
q-14 -6 -41 -6q-12 0 -21 1.5t-13 2.5l-3 2l494 768l-436 694q14 7 39 7q12 0 21.5 -1.5t13.5 -3.5l4 -2l421 -671h326v671z" />
    <glyph glyph-name="uni0417" unicode="&#x417;" horiz-adv-x="1114" 
d="M969 371q0 -82 -26.5 -150t-83.5 -123.5t-158 -86.5t-238 -31q-98 0 -190 15t-135 29l-42 15q0 14 6.5 31t16.5 24q162 -49 338 -49q121 0 208 25t136 71t71.5 102.5t22.5 127.5q0 350 -442 350h-103q-17 34 0 65h103q399 0 399 332q0 144 -95 228t-282 84
q-84 0 -166.5 -14.5t-122.5 -29.5l-41 -14q-30 15 -26 58q17 7 48 18t126 29t190 18q217 0 330 -102t113 -273q0 -65 -14 -120t-36 -91.5t-49 -65t-54 -44t-49 -25.5t-36 -13l-14 -3q6 -1 16.5 -3t41.5 -13t58.5 -27t61.5 -46.5t58.5 -69t41.5 -98t17 -130.5z" />
    <glyph glyph-name="uni0418" unicode="&#x418;" horiz-adv-x="1396" 
d="M297 6q-16 -6 -43 -6q-11 0 -20.5 1.5t-13.5 2.5l-3 2v1462q12 7 35 7q11 0 20 -1.5t12 -3.5l3 -2v-1126q0 -65 -2 -126.5t-4 -90.5l-2 -29h4q41 87 100 185l717 1187q12 7 41 7q12 0 21.5 -1.5t13.5 -3.5l4 -2v-1462q-10 -6 -35 -6q-11 0 -20 1.5t-12 2.5l-3 2v1110
q0 95 2 161.5t4 85.5l2 19h-4q-24 -63 -92 -174z" />
    <glyph glyph-name="uni0419" unicode="&#x419;" horiz-adv-x="1396" 
d="M989 1804q-5 -4 -13.5 -11t-37 -25t-60 -32t-80 -25t-98.5 -11q-49 0 -97 10.5t-81.5 26t-59.5 31t-39 26.5l-13 10q10 32 36 41q5 -3 13.5 -8.5t36 -20t56 -25t69.5 -19.5t79 -9q61 0 124.5 20.5t96.5 40.5l33 21q29 -9 35 -41zM1022 1208q30 49 53 92.5t31 62.5l8 19h4
q-8 -53 -8 -266v-1110q10 -6 35 -6q11 0 20 1.5t12 2.5l3 2v1462q-12 7 -39 7q-13 0 -23 -1.5t-14 -3.5l-4 -2l-717 -1187q-26 -44 -51 -90t-37 -71l-12 -24h-4q8 99 8 246v1126q-10 7 -35 7q-10 0 -19 -1.5t-13 -3.5l-3 -2v-1462q12 -6 37 -6q12 0 23 1.5t15 2.5l5 2z" />
    <glyph glyph-name="uni041A" unicode="&#x41a;" horiz-adv-x="1243" 
d="M582 799l471 669q12 7 39 7q11 0 20.5 -1.5t13.5 -3.5l4 -2l-489 -696l547 -766q-12 -6 -39 -6q-12 0 -23.5 1.5t-16.5 2.5l-5 2l-520 727h-297v-727q-12 -6 -35 -6q-10 0 -19 1.5t-13 2.5l-3 2v1462q12 7 35 7q10 0 19 -1.5t13 -3.5l3 -2v-669h295z" />
    <glyph glyph-name="uni041B" unicode="&#x41b;" horiz-adv-x="1335" 
d="M102 -12q-32 0 -55 10q-6 11 -6 29q0 8 1.5 15.5t3.5 11.5l1 3q28 -4 41 -4q24 0 40 2.5t41.5 18t44 43.5t41.5 83.5t40 133.5t34 199t29 274l52 668h706v-1469q-12 -6 -35 -6q-27 0 -34 6v1403h-576l-45 -606q-12 -159 -30 -285t-37.5 -210t-45.5 -145t-49.5 -94.5
t-54 -52t-53.5 -23.5t-54 -5z" />
    <glyph glyph-name="uni041C" unicode="&#x41c;" horiz-adv-x="1724" 
d="M1438 1186q0 62 2.5 115t5.5 75l2 23h-4q-23 -56 -76 -142l-487 -833q-13 -6 -33 -6l-33 6l-467 833q-21 36 -39 71.5t-25 53.5l-8 17h-4q13 -80 13 -234v-1159q-8 -6 -33 -6q-11 0 -20 1.5t-12 2.5l-3 2v1462q16 7 45 7q13 0 24.5 -1.5t17.5 -3.5l5 -2l479 -856
q18 -31 32.5 -58t19.5 -38l6 -12h4q18 38 61 108l502 856q12 7 47 7q15 0 26.5 -1.5t15.5 -3.5l5 -2v-1462q-9 -6 -34 -6q-11 0 -20 1.5t-12 2.5l-3 2v1180z" />
    <glyph glyph-name="uni041D" unicode="&#x41d;" horiz-adv-x="1376" 
d="M1090 1468q11 7 34 7q10 0 19 -1.5t13 -3.5l3 -2v-1462q-10 -6 -35 -6q-12 0 -20.5 1.5t-11.5 2.5l-2 2v717h-803v-717q-12 -6 -35 -6q-8 0 -14 0.5t-10 1.5t-6.5 2t-3.5 2h-1v1462q12 7 35 7q10 0 19 -1.5t13 -3.5l3 -2v-680h803v680z" />
    <glyph glyph-name="uni041E" unicode="&#x41e;" horiz-adv-x="1388" 
d="M694 -20q-261 0 -401.5 185t-140.5 572t140.5 572.5t401.5 185.5q262 0 402.5 -185.5t140.5 -572.5t-140.5 -572t-402.5 -185zM694 1434q-469 0 -469 -697q0 -696 469 -696t469 696q0 697 -469 697z" />
    <glyph glyph-name="uni041F" unicode="&#x41f;" horiz-adv-x="1355" 
d="M1137 6q-13 -6 -33 -6q-11 0 -20.5 1.5t-13.5 2.5l-3 2v1403h-778v-1403q-12 -6 -35 -6q-10 0 -19 1.5t-13 2.5l-3 2v1469h918v-1469z" />
    <glyph glyph-name="uni0420" unicode="&#x420;" horiz-adv-x="1224" 
d="M289 6q-10 -6 -35 -6q-11 0 -20 1.5t-12 2.5l-3 2v1469h496q186 0 291.5 -115t105.5 -307q0 -191 -105.5 -305.5t-291.5 -114.5h-426v-627zM717 698q152 0 236.5 94.5t84.5 258.5q0 168 -84 263t-237 95h-428v-711h428z" />
    <glyph glyph-name="uni0421" unicode="&#x421;" horiz-adv-x="1138" 
d="M688 -20q-271 0 -403.5 186.5t-132.5 570.5q0 379 133 568.5t403 189.5q99 0 184 -16.5t120 -32.5l36 -16q4 -15 -4 -31q-4 -8 -9 -14.5t-8 -8.5l-3 -2q-13 6 -38.5 16t-105 26t-162.5 16q-112 0 -195 -34t-147.5 -112t-97.5 -216t-33 -335q0 -158 22 -277.5t61.5 -197.5
t99.5 -126.5t130 -68.5t160 -20t172 14t119 29l37 14q13 -4 21 -22q4 -8 5 -16.5t0 -12.5l-1 -4q-5 -3 -14.5 -7.5t-43.5 -16t-72.5 -20.5t-101.5 -16t-131 -7z" />
    <glyph glyph-name="uni0422" unicode="&#x422;" horiz-adv-x="1081" 
d="M1010 1475q6 -8 6 -31q0 -9 -1.5 -17t-2.5 -12l-2 -4h-428v-1405q-10 -6 -35 -6q-11 0 -20 1.5t-12 2.5l-3 2v1405h-438q-6 13 -6 33q0 9 1.5 16.5t2.5 11.5l2 3h936z" />
    <glyph glyph-name="uni0423" unicode="&#x423;" horiz-adv-x="1243" 
d="M55 1468q10 7 39 7q11 0 20.5 -1.5t13.5 -3.5l3 -2l498 -1032q32 -70 39 -92h4l39 98l403 1026q8 7 35 7q12 0 21.5 -1.5t12.5 -3.5l3 -2l-422 -1073q-50 -128 -94.5 -207.5t-92 -120t-92 -54t-108.5 -13.5q-28 0 -54.5 3t-39.5 6l-13 3q-11 33 2 62q45 -8 82 -8
q40 0 65 2.5t58.5 14.5t58 34.5t53.5 63.5t56 102h-18z" />
    <glyph glyph-name="uni0424" unicode="&#x424;" horiz-adv-x="1617" 
d="M772 1487q12 6 35 6q10 0 19 -1.5t12 -3.5l4 -1v-164q95 0 175 -11t156 -35t134 -66.5t102 -102t67 -145.5t23 -193q0 -128 -34 -225.5t-92 -159.5t-143.5 -100.5t-179.5 -54t-208 -15.5v-209q-15 -6 -35 -6q-11 0 -20 1.5t-12 2.5l-3 2v209q-114 0 -207.5 15.5
t-178.5 54t-142 100.5t-91 159.5t-34 225.5t34 225.5t91 159t142 100t178.5 53.5t207.5 15v164zM772 1262q-107 0 -191.5 -13.5t-159 -47.5t-123.5 -89t-77 -141t-28 -201q0 -143 41.5 -242t122 -153t180.5 -76.5t235 -22.5v986zM842 276q107 0 191.5 13.5t160 48t125 89.5
t78 141.5t28.5 201.5t-28.5 201.5t-78 141.5t-125 89t-160 47t-191.5 13v-986z" />
    <glyph glyph-name="uni0425" unicode="&#x425;" horiz-adv-x="1210" 
d="M1137 6q-14 -6 -43 -6q-15 0 -26 1.5t-15 2.5l-4 2l-453 699l-436 -699q-16 -6 -45 -6q-12 0 -21.5 1.5t-13.5 2.5l-4 2l471 748l-461 714q14 7 45 7q12 0 22 -1.5t15 -3.5l4 -2l428 -665l434 665q14 7 43 7q13 0 23.5 -1.5t15.5 -3.5l4 -2l-469 -712z" />
    <glyph glyph-name="uni0426" unicode="&#x426;" horiz-adv-x="1415" 
d="M217 0v1468q12 7 35 7q10 0 19 -1.5t13 -3.5l3 -2v-1402h798v1402q12 7 35 7q10 0 19 -1.5t13 -3.5l3 -2v-1402h158v-349q-12 -6 -35 -6q-21 0 -33 6v283h-1028z" />
    <glyph glyph-name="uni0427" unicode="&#x427;" horiz-adv-x="1288" 
d="M1001 1468q12 7 35 7q10 0 19 -1.5t13 -3.5l3 -2v-1462q-12 -6 -35 -6q-10 0 -19 1.5t-13 2.5l-3 2v705q-7 -3 -21 -8.5t-58 -19.5t-90.5 -24.5t-116 -19t-137.5 -8.5q-104 0 -181.5 22t-138.5 74t-92 145t-31 226v370q12 7 35 7q10 0 19 -1.5t13 -3.5l3 -2v-368
q0 -225 91 -314.5t300 -89.5q106 0 207 21t149 42l49 21v688z" />
    <glyph glyph-name="uni0428" unicode="&#x428;" horiz-adv-x="1953" 
d="M217 1468q10 7 35 7q11 0 20 -1.5t12 -3.5l3 -2v-1402h655v1402q6 7 35 7q13 0 21.5 -1.5t11.5 -3.5l2 -2v-1402h655v1402q10 7 35 7q11 0 20 -1.5t12 -3.5l3 -2v-1468h-1520v1468z" />
    <glyph glyph-name="uni0429" unicode="&#x429;" horiz-adv-x="1996" 
d="M217 0v1468q10 7 35 7q10 0 19 -1.5t13 -3.5l3 -2v-1402h655v1402q12 7 35 7q10 0 19 -1.5t12 -3.5l4 -2v-1402h655v1402q12 7 35 7q10 0 19 -1.5t13 -3.5l3 -2v-1402h157v-349q-15 -6 -32 -6q-20 0 -35 6v283h-1610z" />
    <glyph glyph-name="uni042A" unicode="&#x42a;" horiz-adv-x="1406" 
d="M66 1409q-7 13 -7 33q0 10 2 18.5t3 11.5l2 3h385v-660h436q187 0 297 -109t110 -294q0 -187 -110 -299.5t-297 -112.5h-506v1409h-315zM881 63q161 0 250.5 94.5t89.5 252.5q0 159 -89 250.5t-251 91.5h-430v-689h430z" />
    <glyph glyph-name="uni042B" unicode="&#x42b;" horiz-adv-x="1744" 
d="M723 815q187 0 297 -109t110 -294q0 -187 -110 -299.5t-297 -112.5h-506v1468q12 7 35 7q10 0 19 -1.5t13 -3.5l3 -2v-653h436zM1458 1468q10 7 35 7q11 0 20 -1.5t12 -3.5l3 -2v-1462q-10 -6 -35 -6q-11 0 -20 1.5t-12 2.5l-3 2v1462zM717 63q161 0 250.5 94.5
t89.5 252.5q0 159 -89 250.5t-251 91.5h-430v-689h430z" />
    <glyph glyph-name="uni042C" unicode="&#x42c;" horiz-adv-x="1243" 
d="M723 815q187 0 297 -109t110 -294q0 -187 -110 -299.5t-297 -112.5h-506v1468q12 7 35 7q10 0 19 -1.5t13 -3.5l3 -2v-653h436zM717 63q161 0 250.5 94.5t89.5 252.5q0 159 -89 250.5t-251 91.5h-430v-689h430z" />
    <glyph glyph-name="uni042D" unicode="&#x42d;" horiz-adv-x="1189" 
d="M481 1495q557 0 557 -758q0 -384 -138.5 -570.5t-418.5 -186.5q-71 0 -136 7t-108 16.5t-76 19.5t-48 17l-15 7q-4 13 4 31q4 8 9 13.5t9 6.5l3 2q15 -6 43.5 -15t119 -24.5t185.5 -15.5q92 0 164 19.5t135 67t104.5 123.5t65.5 192t25 270h-603q-6 13 -6 33q0 9 1.5 17
t2.5 11l2 4h603q-4 147 -29 259t-67.5 185.5t-104.5 120t-133 66t-160 19.5q-88 0 -169.5 -14t-119.5 -28l-37 -14q-12 5 -20 23q-4 7 -5 15t0 12l1 4q14 7 42 18t121.5 29t196.5 18z" />
    <glyph glyph-name="uni042E" unicode="&#x42e;" horiz-adv-x="1935" 
d="M219 1468q12 7 35 7q10 0 19 -1.5t13 -3.5l3 -2v-698h409q11 725 543 725q543 0 543 -758q0 -757 -543 -757q-532 0 -543 725h-409v-699q-12 -6 -35 -6q-10 0 -19 1.5t-13 2.5l-3 2v1462zM1241 1434q-112 0 -196.5 -39t-146.5 -121t-94 -217t-32 -320t32 -320t94 -217
t146.5 -120.5t196.5 -38.5t196.5 38.5t146.5 120.5t94 217t32 320t-32 320t-94 217t-146.5 121t-196.5 39z" />
    <glyph glyph-name="uni042F" unicode="&#x42f;" horiz-adv-x="1265" 
d="M463 662q-147 28 -228 134.5t-81 268.5q0 187 106 298.5t293 111.5h494v-1469q-10 -6 -35 -6q-11 0 -20 1.5t-12 2.5l-3 2v649h-436l-344 -649q-16 -6 -43 -6q-11 0 -21 1.5t-14 2.5l-4 2zM549 1409q-150 0 -236 -91t-86 -253t86.5 -253t235.5 -91h428v688h-428z" />
    <glyph glyph-name="uni0430" unicode="&#x430;" horiz-adv-x="1044" 
d="M801 741q0 158 -70.5 227.5t-214.5 69.5q-73 0 -148.5 -14t-115.5 -28l-39 -13q-27 20 -23 55q18 7 49 17t119 26.5t166 16.5q86 0 147 -19t99 -52.5t59.5 -90.5t29 -120t7.5 -154v-656q-8 -6 -26 -6q-8 0 -15 1.5t-9 2.5l-3 2l-12 184v3q-47 -102 -145 -157.5
t-230 -55.5q-143 0 -230 82.5t-87 226.5q0 149 93 231t283 82q173 0 316 -20v159zM178 289q0 -123 68.5 -185.5t187.5 -62.5q161 0 264 103.5t103 281.5v96q-3 0 -46 4.5t-75.5 7.5t-85 6t-96.5 3q-163 0 -241.5 -63t-78.5 -191z" />
    <glyph glyph-name="uni0431" unicode="&#x431;" horiz-adv-x="1163" 
d="M164 719q0 114 8 204t29.5 160.5t45.5 122t68.5 91.5t85.5 66t110.5 48.5t129 36t154.5 31.5q59 11 81.5 23t45.5 48q37 0 53 -22q-15 -51 -48 -73.5t-120 -39.5q-78 -16 -122.5 -25.5t-104.5 -26t-92.5 -32t-74.5 -40t-63.5 -53.5t-47 -69t-38 -90t-23 -113t-14.5 -141
h9q40 102 135 165t247 63q194 0 302 -132.5t108 -404.5q0 -536 -424 -536q-83 0 -144 15.5t-119.5 62.5t-95.5 127t-59 214.5t-22 319.5zM604 993q-78 0 -138.5 -22t-111 -73.5t-77.5 -148t-27 -233.5q0 -135 26.5 -230.5t76.5 -148t111 -75.5t140 -23q80 0 141 23
t110.5 75.5t76 148t26.5 230.5t-26.5 230.5t-76 148t-110.5 75.5t-141 23z" />
    <glyph glyph-name="uni0432" unicode="&#x432;" horiz-adv-x="1050" 
d="M584 1077q139 0 218 -70t79 -204q0 -91 -39 -154.5t-109 -93.5q92 -27 140.5 -98.5t48.5 -173.5q0 -140 -82 -211.5t-236 -71.5h-418v1077h398zM575 578q114 0 177 57.5t63 163.5q0 217 -240 217h-323v-438h323zM252 61h350q121 0 184.5 56.5t63.5 167.5q0 109 -62 170
t-186 61h-350v-455z" />
    <glyph glyph-name="uni0433" unicode="&#x433;" horiz-adv-x="811" 
d="M745 1077q7 -10 7 -30q0 -9 -2 -16.5t-4 -10.5l-1 -4h-493v-1010q-6 -6 -33 -6q-11 0 -19.5 1.5t-11.5 2.5l-2 2v1071h559z" />
    <glyph glyph-name="uni0434" unicode="&#x434;" horiz-adv-x="1146" 
d="M147 61q42 62 71 177.5t48 351.5l39 487h619v-1016h129v-317q-11 -6 -31 -6q-10 0 -18 1.5t-10 2.5l-3 2v256h-876v-256q-8 -6 -31 -6q-10 0 -18 1.5t-10 2.5l-3 2v317h94zM330 582q-16 -212 -41.5 -329t-63.5 -192h633v955h-496z" />
    <glyph glyph-name="uni0435" unicode="&#x435;" horiz-adv-x="1040" 
d="M203 516q9 -248 96.5 -358.5t267.5 -110.5q48 0 92.5 8.5t74.5 20.5t53 24t33 20l11 9q32 -18 35 -55q-4 -4 -12.5 -10t-39 -22.5t-64.5 -29t-89 -22.5t-114 -10q-201 0 -307.5 144t-106.5 421q0 279 113 416t307 137q177 0 272 -104.5t95 -272.5q0 -56 -6 -107t-12 -74
l-5 -24h-694zM850 731q0 132 -74 218.5t-223 86.5q-161 0 -252.5 -113t-97.5 -345h635q12 57 12 153z" />
    <glyph glyph-name="uni0436" unicode="&#x436;" horiz-adv-x="1585" 
d="M762 1071q8 6 33 6q11 0 19 -1.5t10 -3.5l3 -1v-477h265l313 477q12 6 43 6q13 0 21.5 -1.5t10.5 -3.5l3 -1l-332 -504l383 -559q-12 -8 -41 -8q-13 0 -23 2t-14 4l-4 2l-360 524h-265v-526q-7 -6 -32 -6q-11 0 -19.5 1.5t-11.5 2.5l-2 2v526h-264l-361 -524
q-14 -8 -43 -8q-13 0 -22.5 2t-13.5 4l-3 2l383 559l-332 504q6 6 35 6q14 0 24.5 -1.5t14.5 -3.5l4 -1l314 -477h264v477z" />
    <glyph glyph-name="uni0437" unicode="&#x437;" horiz-adv-x="925" 
d="M795 285q0 -54 -11 -97.5t-39.5 -83t-74.5 -66.5t-118.5 -42.5t-168.5 -15.5q-84 0 -157.5 13t-104.5 27l-31 13q0 35 23 55q12 -5 33.5 -12.5t91.5 -20t143 -12.5q183 0 263.5 62t80.5 184q0 113 -86 171t-242 58h-108q-6 13 -6 31q0 8 1.5 15.5t3.5 11.5l1 4h108
q140 0 219.5 50.5t79.5 172.5q0 118 -69.5 175.5t-231.5 57.5q-68 0 -131 -10t-92 -20l-29 -11q-12 7 -16.5 23.5t-1.5 32.5q12 5 34.5 13t98 21t158.5 13q181 0 265.5 -76t84.5 -211q0 -205 -176 -260q100 -27 152.5 -98.5t52.5 -167.5z" />
    <glyph glyph-name="uni0438" unicode="&#x438;" horiz-adv-x="1181" 
d="M918 1071q7 6 38 6q15 0 24.5 -1.5t11.5 -3.5l3 -1v-1065q-9 -6 -32 -6q-10 0 -19 1.5t-12 2.5l-4 2v821l4 164h-4q-41 -71 -94 -149l-570 -836q-12 -6 -41 -6q-12 0 -21.5 1.5t-12.5 2.5l-3 2v1065q8 6 33 6q11 0 19.5 -1.5t11.5 -3.5l2 -1v-833q0 -43 -1.5 -81
t-2.5 -55l-2 -16h4q29 53 86 137z" />
    <glyph glyph-name="uni0439" unicode="&#x439;" horiz-adv-x="1181" 
d="M858 1409q-4 -5 -11 -12t-32 -26.5t-53.5 -34t-74.5 -26.5t-95 -12t-94.5 11.5t-75.5 28t-52.5 32.5t-33.5 28l-10 11q9 30 36 39q4 -4 11 -9.5t30.5 -21t48.5 -27t63.5 -21t76.5 -9.5q61 0 118 22t84 44l27 22q18 -4 26 -12.5t11 -26.5zM918 1071q7 6 38 6
q15 0 24.5 -1.5t11.5 -3.5l3 -1v-1065q-9 -6 -32 -6q-10 0 -19 1.5t-12 2.5l-4 2v821l4 164h-4q-41 -71 -94 -149l-570 -836q-12 -6 -41 -6q-12 0 -21.5 1.5t-12.5 2.5l-3 2v1065q8 6 33 6q11 0 19.5 -1.5t11.5 -3.5l2 -1v-833q0 -43 -1.5 -81t-2.5 -55l-2 -16h4
q29 53 86 137z" />
    <glyph glyph-name="uni043A" unicode="&#x43a;" horiz-adv-x="1015" 
d="M500 594l336 477q14 6 45 6q13 0 21.5 -1t10.5 -2l2 -1l-356 -506l406 -559q-12 -8 -41 -8q-13 0 -24 2t-16 4l-5 2l-379 524h-248v-526q-8 -6 -33 -6q-11 0 -19.5 1.5t-11.5 2.5l-2 2v1065q8 6 33 6q11 0 19.5 -1.5t11.5 -3.5l2 -1v-477h248z" />
    <glyph glyph-name="uni043B" unicode="&#x43b;" horiz-adv-x="1126" 
d="M356 594q-12 -135 -27 -236t-34 -166.5t-38 -107t-44.5 -62t-48 -27.5t-53.5 -7q-13 0 -27 2t-22 4l-7 2q-6 9 -6 27q0 8 1.5 15t3.5 10l1 3q20 -4 49 -4q76 0 122 129.5t69 425.5l37 475h608v-1071q-8 -6 -33 -6q-11 0 -19.5 1.5t-11.5 2.5l-2 2v1010h-485z" />
    <glyph glyph-name="uni043C" unicode="&#x43c;" horiz-adv-x="1378" 
d="M186 1071q10 6 35 6q12 0 21.5 -1.5t12.5 -3.5l3 -1l418 -713l442 713q12 6 37 6q11 0 20.5 -1.5t12.5 -3.5l4 -1v-1065q-8 -6 -33 -6q-11 0 -19.5 1.5t-11.5 2.5l-2 2v821q0 91 7 152h-5q-32 -76 -75 -143l-355 -566q-8 -4 -22 -4l-23 4l-331 557q-55 91 -76 152h-6
q12 -70 12 -152v-821q-8 -6 -33 -6q-11 0 -19.5 1.5t-11.5 2.5l-2 2v1065z" />
    <glyph glyph-name="uni043D" unicode="&#x43d;" horiz-adv-x="1146" 
d="M252 524v-518q-8 -6 -33 -6q-11 0 -19.5 1.5t-11.5 2.5l-2 2v1065q8 6 33 6q8 0 14 -0.5t9.5 -1.5t5.5 -2t3 -1l1 -1v-485h643v485q8 6 33 6q8 0 14 -0.5t9.5 -1.5t5.5 -2t3 -1l1 -1v-1065q-8 -6 -33 -6q-11 0 -19.5 1.5t-10.5 2.5l-3 2v518h-643z" />
    <glyph glyph-name="uni043E" unicode="&#x43e;" horiz-adv-x="1101" 
d="M551 -20q-204 0 -310 132t-106 427t106 427t310 132t310 -132t106 -427t-106 -427t-310 -132zM551 1038q-83 0 -144.5 -25t-108 -81.5t-70 -154.5t-23.5 -238t23.5 -238.5t70 -155t108 -81.5t144.5 -25t144.5 25t108 81.5t70 155t23.5 238.5t-23.5 238t-70 154.5
t-108 81.5t-144.5 25z" />
    <glyph glyph-name="uni043F" unicode="&#x43f;" horiz-adv-x="1124" 
d="M252 1016v-1010q-8 -6 -33 -6q-11 0 -19.5 1.5t-11.5 2.5l-2 2v1071h752v-1071q-6 -6 -31 -6q-12 0 -20.5 1.5t-11.5 2.5l-3 2v1010h-620z" />
    <glyph glyph-name="uni0440" unicode="&#x440;" horiz-adv-x="1134" 
d="M252 -506q-8 -6 -33 -6q-11 0 -19.5 1.5t-11.5 2.5l-2 2v1577q8 6 33 6q11 0 19.5 -1.5t11.5 -3.5l2 -1v-172q100 199 342 199q97 0 169 -29t125.5 -93.5t81 -173.5t27.5 -263t-27.5 -263t-81 -173.5t-125.5 -93.5t-169 -29q-242 0 -342 198v-684zM252 410q0 -66 21 -130
t60 -118t103 -87.5t142 -33.5q188 0 269 117t81 381t-81 380.5t-269 116.5q-77 0 -140 -32t-102 -84t-60.5 -114t-23.5 -126v-270z" />
    <glyph glyph-name="uni0441" unicode="&#x441;" horiz-adv-x="911" 
d="M571 1034q-187 0 -277.5 -124t-90.5 -371q0 -248 93 -370t284 -122q58 0 111 11.5t77 23.5l23 12q25 -15 28 -55q-11 -7 -32 -16.5t-89 -26t-141 -16.5q-203 0 -313.5 143.5t-110.5 415.5t110.5 415.5t313.5 143.5q69 0 128.5 -12t84.5 -24l25 -11q0 -39 -25 -58
q-9 5 -25 11.5t-67.5 18t-106.5 11.5z" />
    <glyph glyph-name="uni0442" unicode="&#x442;" horiz-adv-x="876" 
d="M809 1077q8 -7 8 -30q0 -10 -2 -18t-4 -11l-2 -2h-338v-1010q-8 -6 -33 -6q-11 0 -19 1.5t-11 2.5l-2 2v1010h-338q-9 8 -9 31q0 10 2.5 17.5t4.5 9.5l2 3h741z" />
    <glyph glyph-name="uni0443" unicode="&#x443;" horiz-adv-x="1064" 
d="M508 -260q-46 -128 -100 -190t-146 -62q-24 0 -47.5 3t-34.5 6l-12 3q-6 12 -6 29q0 20 8 31q33 -11 86 -11q59 0 102.5 48t85.5 165l88 240q-22 11 -26 14l-440 1055q11 6 36 6q11 0 20.5 -1.5t13.5 -3.5l3 -1l340 -815q20 -47 38.5 -94.5t26.5 -71.5l9 -24h6
q27 82 66 188l299 817q7 6 34 6q12 0 21.5 -1.5t12.5 -3.5l3 -1z" />
    <glyph glyph-name="uni0444" unicode="&#x444;" horiz-adv-x="1587" 
d="M827 -506q-7 -6 -32 -6q-11 0 -19.5 1.5t-11.5 2.5l-2 2v539q-11 -6 -31.5 -15t-88 -23.5t-140.5 -14.5q-198 0 -280.5 137t-82.5 422t82.5 422t280.5 137q65 0 130 -12t98 -24l32 -11v479q8 6 33 6q11 0 19 -1.5t10 -2.5l3 -2v-479q12 5 34 13.5t90 21.5t136 12
q198 -3 280.5 -139t82.5 -420q0 -285 -82.5 -422t-280.5 -137q-73 0 -138 13t-93 27l-29 13v-539zM762 985l-11 5q-11 4 -33.5 12t-51 15.5t-70.5 13t-86 5.5q-163 0 -232 -120.5t-69 -376.5t69 -376t232 -120q65 0 128 14.5t94 29.5l30 15v883zM1380 539q0 256 -69 376.5
t-232 120.5q-44 0 -86 -5.5t-70.5 -13t-51 -15.5t-33.5 -12l-11 -5v-883q12 -7 33.5 -16.5t87.5 -26t131 -16.5q163 0 232 120t69 376z" />
    <glyph glyph-name="uni0445" unicode="&#x445;" horiz-adv-x="989" 
d="M76 1071q10 6 39 6q12 0 22.5 -1.5t14.5 -3.5l4 -1l344 -477l336 477q5 6 38 6q12 0 22 -1.5t14 -3.5l3 -1l-376 -530l385 -535q-10 -6 -39 -6q-13 0 -23 1.5t-14 2.5l-4 2l-353 490l-344 -490q-8 -6 -43 -6q-11 0 -19.5 1.5t-11.5 2.5l-3 2l383 543z" />
    <glyph glyph-name="uni0446" unicode="&#x446;" horiz-adv-x="1165" 
d="M1073 61v-317q-8 -6 -31 -6q-10 0 -17.5 1.5t-10.5 2.5l-2 2v256h-826v1071q8 6 33 6q11 0 19.5 -1.5t11.5 -3.5l2 -1v-1010h627v1010q7 6 32 6q11 0 19.5 -1.5t11.5 -3.5l2 -1v-1010h129z" />
    <glyph glyph-name="uni0447" unicode="&#x447;" horiz-adv-x="1060" 
d="M874 6q-7 -6 -32 -6q-11 0 -19.5 1.5t-10.5 2.5l-3 2v502q-138 -84 -334 -84q-186 0 -270 83.5t-84 240.5v323q8 6 33 6q11 0 19 -1.5t11 -3.5l2 -1v-326q0 -133 70.5 -196.5t228.5 -63.5q175 0 324 93v493q8 6 33 6q11 0 19 -1.5t11 -3.5l2 -1v-1065z" />
    <glyph glyph-name="uni0448" unicode="&#x448;" horiz-adv-x="1642" 
d="M186 0v1071q8 6 33 6q11 0 19.5 -1.5t11.5 -3.5l2 -1v-1010h534v1010q8 6 33 6q11 0 19.5 -1.5t11.5 -3.5l2 -1v-1010h539v1010q7 6 32 6q11 0 19.5 -1.5t11.5 -3.5l2 -1v-1071h-1270z" />
    <glyph glyph-name="uni0449" unicode="&#x449;" horiz-adv-x="1677" 
d="M1585 61v-317q-8 -6 -31 -6q-10 0 -17.5 1.5t-10.5 2.5l-2 2v256h-1338v1071q8 6 33 6q11 0 19.5 -1.5t11.5 -3.5l2 -1v-1010h534v1010q8 6 33 6q11 0 19.5 -1.5t11.5 -3.5l2 -1v-1010h539v1010q7 6 32 6q11 0 19.5 -1.5t11.5 -3.5l2 -1v-1010h129z" />
    <glyph glyph-name="uni044A" unicode="&#x44a;" horiz-adv-x="1155" 
d="M752 602q143 0 221 -81.5t78 -219.5t-78 -219.5t-221 -81.5h-439v1016h-245q-7 8 -7 31q0 10 1.5 17.5t3.5 9.5l2 3h311v-475h373zM379 61h364q238 0 238 238q0 116 -59.5 179t-178.5 63h-364v-480z" />
    <glyph glyph-name="uni044B" unicode="&#x44b;" horiz-adv-x="1447" 
d="M625 602q143 0 221 -81.5t78 -219.5t-78 -219.5t-221 -81.5h-439v1071q13 6 33 6q10 0 18.5 -1.5t11.5 -3.5l3 -1v-469h373zM1262 6q-8 -6 -33 -6q-11 0 -19.5 1.5t-11.5 2.5l-2 2v1065q8 6 33 6q11 0 19.5 -1.5t11.5 -3.5l2 -1v-1065zM252 61h364q238 0 238 238
q0 116 -59.5 179t-178.5 63h-364v-480z" />
    <glyph glyph-name="uni044C" unicode="&#x44c;" horiz-adv-x="1028" 
d="M625 602q143 0 221 -81.5t78 -219.5t-78 -219.5t-221 -81.5h-439v1071q13 6 33 6q10 0 18.5 -1.5t11.5 -3.5l3 -1v-469h373zM252 61h364q238 0 238 238q0 116 -59.5 179t-178.5 63h-364v-480z" />
    <glyph glyph-name="uni044D" unicode="&#x44d;" horiz-adv-x="921" 
d="M264 514q-6 12 -6 31q0 18 6 30h453q-12 461 -371 461q-55 0 -106.5 -9t-75.5 -19l-25 -9q-22 17 -22 52q10 5 28.5 13t82 21t132.5 13q204 0 316 -144t112 -415t-112.5 -415t-315.5 -144q-74 0 -141 15t-97 29l-30 15q3 33 27 51q11 -5 30 -12.5t76 -20t113 -12.5
q372 0 381 469h-455z" />
    <glyph glyph-name="uni044E" unicode="&#x44e;" horiz-adv-x="1593" 
d="M610 561q4 281 112 409t312 128q208 0 316 -132.5t108 -426.5t-108 -426.5t-316 -132.5q-201 0 -309 123t-115 397h-358v-494q-8 -6 -33 -6q-11 0 -19.5 1.5t-11.5 2.5l-2 2v1065q8 6 33 6q11 0 19.5 -1.5t11.5 -3.5l2 -1v-510h358zM1034 1038q-85 0 -147.5 -25
t-110.5 -81.5t-72 -154.5t-24 -238t24.5 -238.5t72 -155t110 -81.5t147.5 -25t147.5 25t110.5 81.5t72.5 155t24.5 238.5t-24.5 238.5t-72.5 154.5t-110.5 81t-147.5 25z" />
    <glyph glyph-name="uni044F" unicode="&#x44f;" horiz-adv-x="1058" 
d="M473 459l-45 2l-246 -455q-16 -6 -45 -6q-11 0 -20 1.5t-12 2.5l-3 2l256 465q-104 27 -158.5 104t-54.5 191q0 142 84.5 226.5t243.5 84.5h399v-1071q-7 -6 -32 -6q-11 0 -19.5 1.5t-10.5 2.5l-3 2v453h-334zM481 1016q-135 0 -200.5 -65t-65.5 -185q0 -114 66.5 -180
t199.5 -66h326v496h-326z" />
    <glyph glyph-name="uni0451" unicode="&#x451;" horiz-adv-x="1040" 
d="M457 1321q-16 -6 -49 -6q-15 0 -27.5 1.5t-17.5 3.5l-5 1v86q17 6 50 6q15 0 27 -1.5t17 -3.5l5 -1v-86zM745 1321q-16 -6 -49 -6q-15 0 -27 1.5t-17 3.5l-5 1v86q16 6 49 6q15 0 27 -1.5t17 -3.5l5 -1v-86zM203 516q9 -248 96.5 -358.5t267.5 -110.5q48 0 92.5 8.5
t74.5 20.5t53 24t33 20l11 9q32 -18 35 -55q-4 -4 -12.5 -10t-39 -22.5t-64.5 -29t-89 -22.5t-114 -10q-201 0 -307.5 144t-106.5 421q0 279 113 416t307 137q177 0 272 -104.5t95 -272.5q0 -56 -6 -107t-12 -74l-5 -24h-694zM850 731q0 132 -74 218.5t-223 86.5
q-161 0 -252.5 -113t-97.5 -345h635q12 57 12 153z" />
    <glyph glyph-name="Wgrave" unicode="&#x1e80;" horiz-adv-x="1931" 
d="M754 1851q10 14 28 24.5t37 10.5l240 -307q-13 -26 -49 -29zM1014 1188q-16 54 -25.5 97t-11.5 59l-2 16h-4q-4 -51 -39 -172l-363 -1182q-10 -6 -28 -6q-9 0 -16 1.5t-10 2.5l-3 2l-446 1462q9 7 34 7q11 0 20.5 -1.5t13.5 -3.5l3 -2l359 -1175q16 -50 27 -97.5
t15 -69.5l3 -22h4q6 76 41 189l360 1175q6 7 29 7q10 0 17.5 -1.5t9.5 -3.5l2 -2l358 -1175q15 -50 24.5 -97.5t11.5 -69.5l3 -22h4q8 76 43 189l340 1175q8 7 35 7q10 0 18 -1.5t11 -3.5l3 -2l-423 -1462q-9 -6 -29 -6q-9 0 -16 1.5t-10 2.5l-3 2z" />
    <glyph glyph-name="wgrave" unicode="&#x1e81;" horiz-adv-x="1619" 
d="M569 1550q10 14 28.5 24.5t37.5 10.5l239 -307q-13 -26 -49 -29zM887 737q-27 83 -45 144t-22 81l-5 19h-6q-12 -60 -78 -244l-252 -731q-8 -6 -26 -6q-8 0 -14.5 1.5t-9.5 2.5l-3 2l-354 1065q9 6 34 6q11 0 20 -1.5t12 -3.5l3 -1l269 -809q16 -46 26 -86.5t12 -57.5
l3 -18h6q10 62 45 162l278 809q8 6 31 6q11 0 19.5 -1.5t11.5 -3.5l2 -1l278 -805q16 -46 26.5 -87.5t12.5 -60.5l2 -18h6q10 57 45 166l267 805q9 6 32 6q11 0 19.5 -1.5t11.5 -3.5l2 -1l-352 -1065q-9 -6 -27 -6q-8 0 -14.5 1.5t-8.5 2.5l-3 2z" />
    <glyph glyph-name="Wacute" unicode="&#x1e82;" horiz-adv-x="1931" 
d="M874 1554q-36 3 -49 29l240 307q44 0 65 -35zM1014 1188q-16 54 -25.5 97t-11.5 59l-2 16h-4q-4 -51 -39 -172l-363 -1182q-10 -6 -28 -6q-9 0 -16 1.5t-10 2.5l-3 2l-446 1462q9 7 34 7q11 0 20.5 -1.5t13.5 -3.5l3 -2l359 -1175q16 -50 27 -97.5t15 -69.5l3 -22h4
q6 76 41 189l360 1175q6 7 29 7q10 0 17.5 -1.5t9.5 -3.5l2 -2l358 -1175q15 -50 24.5 -97.5t11.5 -69.5l3 -22h4q8 76 43 189l340 1175q8 7 35 7q10 0 18 -1.5t11 -3.5l3 -2l-423 -1462q-9 -6 -29 -6q-9 0 -16 1.5t-10 2.5l-3 2z" />
    <glyph glyph-name="wacute" unicode="&#x1e83;" horiz-adv-x="1619" 
d="M702 1249q-36 3 -49 29l240 307q44 0 65 -35zM887 737q-27 83 -45 144t-22 81l-5 19h-6q-12 -60 -78 -244l-252 -731q-8 -6 -26 -6q-8 0 -14.5 1.5t-9.5 2.5l-3 2l-354 1065q9 6 34 6q11 0 20 -1.5t12 -3.5l3 -1l269 -809q16 -46 26 -86.5t12 -57.5l3 -18h6q10 62 45 162
l278 809q8 6 31 6q11 0 19.5 -1.5t11.5 -3.5l2 -1l278 -805q16 -46 26.5 -87.5t12.5 -60.5l2 -18h6q10 57 45 166l267 805q9 6 32 6q11 0 19.5 -1.5t11.5 -3.5l2 -1l-352 -1065q-9 -6 -27 -6q-8 0 -14.5 1.5t-8.5 2.5l-3 2z" />
    <glyph glyph-name="Wdieresis" unicode="&#x1e84;" horiz-adv-x="1931" 
d="M879 1624q-17 -6 -50 -6q-15 0 -27 1.5t-17 2.5l-5 2v86q16 6 49 6q15 0 27.5 -1.5t17.5 -2.5l5 -2v-86zM1167 1624q-16 -6 -49 -6q-15 0 -27 1.5t-17 2.5l-5 2v86q16 6 49 6q15 0 27 -1.5t17 -2.5l5 -2v-86zM1014 1188q-16 54 -25.5 97t-11.5 59l-2 16h-4
q-4 -51 -39 -172l-363 -1182q-10 -6 -28 -6q-9 0 -16 1.5t-10 2.5l-3 2l-446 1462q9 7 34 7q11 0 20.5 -1.5t13.5 -3.5l3 -2l359 -1175q16 -50 27 -97.5t15 -69.5l3 -22h4q6 76 41 189l360 1175q6 7 29 7q10 0 17.5 -1.5t9.5 -3.5l2 -2l358 -1175q15 -50 24.5 -97.5
t11.5 -69.5l3 -22h4q8 76 43 189l340 1175q8 7 35 7q10 0 18 -1.5t11 -3.5l3 -2l-423 -1462q-9 -6 -29 -6q-9 0 -16 1.5t-10 2.5l-3 2z" />
    <glyph glyph-name="wdieresis" unicode="&#x1e85;" horiz-adv-x="1619" 
d="M717 1300q-16 -6 -49 -6q-15 0 -27.5 1.5t-17.5 2.5l-5 2v86q17 7 50 7q15 0 27 -1.5t17 -3.5l5 -2v-86zM1006 1300q-17 -6 -50 -6q-15 0 -27 1.5t-17 2.5l-5 2v86q16 7 49 7q15 0 27.5 -1.5t17.5 -3.5l5 -2v-86zM887 737q-27 83 -45 144t-22 81l-5 19h-6
q-12 -60 -78 -244l-252 -731q-8 -6 -26 -6q-8 0 -14.5 1.5t-9.5 2.5l-3 2l-354 1065q9 6 34 6q11 0 20 -1.5t12 -3.5l3 -1l269 -809q16 -46 26 -86.5t12 -57.5l3 -18h6q10 62 45 162l278 809q8 6 31 6q11 0 19.5 -1.5t11.5 -3.5l2 -1l278 -805q16 -46 26.5 -87.5t12.5 -60.5
l2 -18h6q10 57 45 166l267 805q9 6 32 6q11 0 19.5 -1.5t11.5 -3.5l2 -1l-352 -1065q-9 -6 -27 -6q-8 0 -14.5 1.5t-8.5 2.5l-3 2z" />
    <glyph glyph-name="Ygrave" unicode="&#x1ef2;" horiz-adv-x="1257" 
d="M414 1851q10 14 28 24.5t37 10.5l240 -307q-13 -26 -49 -29zM57 1468q14 7 43 7q13 0 23 -1.5t14 -3.5l4 -2l486 -768l501 768q10 7 39 7q15 0 25.5 -1.5t13.5 -3.5l4 -2l-548 -843v-619q-12 -6 -35 -6q-10 0 -19 1.5t-12 2.5l-4 2v617z" />
    <glyph glyph-name="ygrave" unicode="&#x1ef3;" horiz-adv-x="1064" 
d="M272 1550q10 14 28.5 24.5t37.5 10.5l240 -307q-13 -26 -50 -29zM508 -260q-46 -128 -100 -190t-146 -62q-24 0 -47.5 3t-34.5 6l-12 3q-6 12 -6 29q0 20 8 31q33 -11 86 -11q59 0 102.5 48t85.5 165l88 240q-22 11 -26 14l-440 1055q11 6 36 6q11 0 20.5 -1.5t13.5 -3.5
l3 -1l340 -815q20 -47 38.5 -94.5t26.5 -71.5l9 -24h6q27 82 66 188l299 817q7 6 34 6q12 0 21.5 -1.5t12.5 -3.5l3 -1z" />
    <glyph glyph-name="endash" unicode="&#x2013;" horiz-adv-x="1155" 
d="M188 563q-6 8 -6 31q0 10 1.5 18t2.5 10l2 3h779q6 -8 6 -31q0 -10 -1.5 -18t-3.5 -10l-1 -3h-779z" />
    <glyph glyph-name="emdash" unicode="&#x2014;" horiz-adv-x="1667" 
d="M188 563q-6 8 -6 31q0 10 1.5 18t2.5 10l2 3h1291q6 -8 6 -31q0 -10 -1.5 -18t-3.5 -10l-1 -3h-1291z" />
    <glyph glyph-name="quoteleft" unicode="&#x2018;" horiz-adv-x="415" 
d="M281 1450q-7 -6 -17 -18.5t-29.5 -56.5t-23.5 -93l39 -6v-86q-16 -6 -49 -6q-15 0 -27 1.5t-17 2.5l-5 2v65q0 40 10 77.5t24 62t28 43.5t24 28l10 9z" />
    <glyph glyph-name="quoteright" unicode="&#x2019;" horiz-adv-x="407" 
d="M143 1208q6 6 16 18.5t29 56.5t23 93q-11 0 -20.5 1.5t-12.5 2.5l-4 2v86q16 7 49 7q15 0 27 -1.5t17 -3.5l5 -2v-65q0 -40 -10 -77.5t-24 -62t-28 -43.5t-24 -28l-10 -8z" />
    <glyph glyph-name="quotesinglbase" unicode="&#x201a;" horiz-adv-x="405" 
d="M123 -168q6 6 16 18.5t28.5 56.5t22.5 93q-11 0 -20 1.5t-12 2.5l-4 2v86q16 6 49 6q15 0 27 -1.5t17 -2.5l5 -2v-65q0 -40 -10 -77.5t-24 -62t-28 -43.5t-24 -28l-10 -9z" />
    <glyph glyph-name="quotedblleft" unicode="&#x201c;" horiz-adv-x="620" 
d="M281 1450q-7 -6 -17 -18.5t-29.5 -56.5t-23.5 -93l39 -6v-86q-16 -6 -49 -6q-15 0 -27 1.5t-17 2.5l-5 2v65q0 40 10 77.5t24 62t28 43.5t24 28l10 9zM485 1450q-2 -2 -6 -6.5t-15 -20.5t-19.5 -34t-17 -47t-11.5 -60l39 -6v-86q-16 -6 -49 -6q-15 0 -27.5 1.5t-17.5 2.5
l-5 2v65q0 40 10 77.5t24 62t28.5 43.5t24.5 28l10 9z" />
    <glyph glyph-name="quotedblright" unicode="&#x201d;" horiz-adv-x="612" 
d="M143 1208q6 6 16 18.5t29 56.5t23 93q-11 0 -20.5 1.5t-12.5 2.5l-4 2v86q16 7 49 7q15 0 27 -1.5t17 -3.5l5 -2v-65q0 -40 -10 -77.5t-24 -62t-28 -43.5t-24 -28l-10 -8zM348 1208q6 6 16 18.5t29 56.5t23 93q-11 0 -20.5 1.5t-13.5 2.5l-3 2v86q16 7 49 7q15 0 27 -1.5
t17 -3.5l5 -2v-65q0 -40 -10 -77.5t-24 -62t-28 -43.5t-24 -28l-10 -8z" />
    <glyph glyph-name="quotedblbase" unicode="&#x201e;" horiz-adv-x="616" 
d="M123 -168q6 6 16 18.5t28.5 56.5t22.5 93q-11 0 -20 1.5t-12 2.5l-4 2v86q16 6 49 6q15 0 27 -1.5t17 -2.5l5 -2v-65q0 -40 -10 -77.5t-24 -62t-28 -43.5t-24 -28l-10 -9zM334 -168q6 6 16 18.5t28.5 56.5t22.5 93q-11 0 -20 1.5t-13 2.5l-3 2v86q16 6 49 6q15 0 27 -1.5
t17 -2.5l5 -2v-65q0 -40 -10 -77.5t-24 -62t-28 -43.5t-24 -28l-10 -9z" />
    <glyph glyph-name="dagger" unicode="&#x2020;" horiz-adv-x="1208" 
d="M604 -260l-39 33l15 1132l-496 -12q-8 12 -8 35q0 10 2 18.5t4 11.5l2 3l496 -11l-15 480q12 6 39 6q11 0 20.5 -1.5t13.5 -2.5l3 -2l-14 -480l499 11q7 -10 7 -33q0 -10 -1.5 -19t-3.5 -13l-2 -3l-499 12l14 -1132z" />
    <glyph glyph-name="daggerdbl" unicode="&#x2021;" horiz-adv-x="1310" 
d="M1176 293q6 -8 6 -35q0 -11 -1.5 -19.5t-2.5 -10.5l-2 -3l-496 15l14 -484q-8 -6 -39 -6q-13 0 -22 1.5t-12 2.5l-3 2l15 484l-494 -15q-6 8 -6 33q0 8 0.5 14t1.5 10t2 6.5t1 3.5l1 1l494 -14l-15 313l15 313l-496 -12q-6 8 -6 35q0 11 1.5 19.5t3.5 10.5l1 3l496 -11
l-15 480q8 6 39 6q13 0 22 -1.5t12 -2.5l3 -2l-14 -480l494 11q6 -8 6 -33q0 -8 -0.5 -14t-1.5 -10t-2 -6.5t-2 -3.5v-1l-494 12l14 -313l-14 -313z" />
    <glyph glyph-name="bullet" unicode="&#x2022;" horiz-adv-x="569" 
d="M348 578q0 -28 -17.5 -45t-45.5 -17q-27 0 -45.5 17.5t-18.5 44.5q0 28 18.5 45.5t45.5 17.5q28 0 45.5 -17t17.5 -46z" />
    <glyph glyph-name="ellipsis" unicode="&#x2026;" horiz-adv-x="1028" 
d="M260 6q-16 -6 -49 -6q-15 0 -27 1.5t-17 2.5l-5 2v86q16 6 49 6q15 0 27 -1.5t17 -2.5l5 -2v-86zM563 6q-16 -6 -49 -6q-15 0 -27 1.5t-17 2.5l-5 2v86q16 6 49 6q15 0 27 -1.5t17 -2.5l5 -2v-86zM866 6q-16 -6 -49 -6q-15 0 -27 1.5t-17 2.5l-5 2v86q16 6 49 6
q15 0 27 -1.5t17 -2.5l5 -2v-86z" />
    <glyph glyph-name="perthousand" unicode="&#x2030;" horiz-adv-x="2174" 
d="M406 -14q-15 -6 -44 -6q-10 0 -19 1.5t-13 2.5l-4 2l796 1446q12 6 41 6q12 0 22 -1.5t13 -2.5l4 -2zM375 707q-127 0 -193.5 84t-66.5 270q0 354 260 354q262 0 262 -354t-262 -354zM375 1354q-91 0 -140 -68t-49 -225q0 -158 48.5 -224.5t140.5 -66.5t140 66.5
t48 224.5q0 293 -188 293zM1147 -20q-127 0 -193.5 84t-66.5 270q0 354 260 354q262 0 262 -354t-262 -354zM1802 -20q-127 0 -193.5 84t-66.5 270q0 354 260 354q262 0 262 -354t-262 -354zM1147 627q-91 0 -140 -68t-49 -225q0 -158 48.5 -224.5t140.5 -66.5t140 66.5
t48 224.5q0 293 -188 293zM1802 627q-91 0 -139.5 -68t-48.5 -225q0 -158 48 -224.5t140 -66.5t140.5 66.5t48.5 224.5q0 293 -189 293z" />
    <glyph glyph-name="guilsinglleft" unicode="&#x2039;" horiz-adv-x="696" 
d="M543 1042q26 -13 26 -51l-397 -438l397 -440q0 -39 -26 -52l-424 463q-6 11 -6 29q0 8 1.5 15.5t3.5 10.5l1 3z" />
    <glyph glyph-name="guilsinglright" unicode="&#x203a;" horiz-adv-x="696" 
d="M578 582q6 -11 6 -29q0 -8 -1.5 -15.5t-2.5 -10.5l-2 -3l-424 -463q-27 13 -27 52l397 440l-397 438q0 37 27 51z" />
    <glyph glyph-name="fraction" unicode="&#x2044;" horiz-adv-x="251" 
d="M485 1432q12 6 37 6q10 0 19 -1.5t13 -2.5l3 -2l-797 -1444q-11 -8 -36 -8q-11 0 -19.5 2t-10.5 4l-3 2z" />
    <glyph glyph-name="uni2080" unicode="&#x2080;" horiz-adv-x="702" 
d="M350 -207q-132 0 -194 88t-62 275q0 185 62 272.5t194 87.5q131 0 194.5 -87t63.5 -273q0 -187 -63.5 -275t-194.5 -88zM350 471q-111 0 -159 -75t-48 -240q0 -168 48 -243t159 -75q110 0 159.5 76t49.5 242q0 164 -49.5 239.5t-159.5 75.5z" />
    <glyph glyph-name="uni2081" unicode="&#x2081;" horiz-adv-x="491" 
d="M68 352q67 18 133.5 61t107.5 89q8 4 25 4q18 0 22 -4v-695q-8 -4 -22 -4q-17 0 -25 4v545q0 59 2 84q-99 -89 -233 -125q-7 6 -10 18.5t0 22.5z" />
    <glyph glyph-name="uni2082" unicode="&#x2082;" horiz-adv-x="616" 
d="M78 -113q0 57 22 100.5t56.5 71t77 50t84.5 42.5t76.5 42.5t56.5 56.5t22 78q0 62 -42 102.5t-142 40.5q-35 0 -73.5 -5t-59.5 -10l-21 -5q-13 20 -10 41q68 24 170 24q120 0 173.5 -50t53.5 -134q0 -55 -23.5 -97.5t-61 -68.5t-82 -48.5t-88 -45t-77.5 -50t-52 -71
t-11 -101.5h391q6 -9 6 -24q0 -14 -6 -23h-432q-8 37 -8 84z" />
    <glyph glyph-name="uni2083" unicode="&#x2083;" horiz-adv-x="616" 
d="M526 -8q0 -199 -266 -199q-44 0 -87.5 6.5t-64.5 13.5l-22 7q-4 25 12 37q72 -21 160 -21q67 0 113 13t67.5 36.5t30 48.5t8.5 58q0 81 -50 119.5t-132 38.5h-88q-11 22 0 45h88q76 0 117 37t41 102q0 67 -44 102t-128 35q-43 0 -84.5 -4.5t-61.5 -8.5l-20 -5
q-14 18 -11 39q73 24 177 24q109 0 165 -46.5t56 -133.5q0 -60 -23.5 -98.5t-75.5 -63.5q61 -24 92 -64t31 -118z" />
    <glyph glyph-name="uni2084" unicode="&#x2084;" horiz-adv-x="655" 
d="M582 49q4 -8 4 -22l-4 -25h-88v-195q-7 -4 -23 -4l-25 4v195h-376q-4 4 -4 14l4 17l374 469q7 4 25 4l25 -4v-453h88zM446 432l-307 -383h307v383z" />
    <glyph glyph-name="uni2085" unicode="&#x2085;" horiz-adv-x="604" 
d="M180 217q171 0 256.5 -46.5t85.5 -168.5q0 -106 -69.5 -157.5t-196.5 -51.5q-44 0 -87.5 6.5t-64.5 13.5l-22 7q-4 25 12 39q74 -21 160 -21q116 0 166.5 41t50.5 121q0 97 -67 133.5t-220 36.5h-53v336h352q5 -9 5 -23.5t-5 -23.5h-303v-242z" />
    <glyph glyph-name="uni2086" unicode="&#x2086;" horiz-adv-x="626" 
d="M141 156q85 55 195 55q101 0 158 -55.5t57 -147.5q0 -104 -65.5 -159.5t-157.5 -55.5q-116 0 -177 78.5t-61 230.5q0 107 38.5 192.5t126 145t214.5 72.5q15 -19 4 -41q-151 -22 -236 -103t-96 -212zM139 100q3 -264 189 -264q77 0 124.5 46.5t47.5 125.5
q0 69 -44.5 113.5t-123.5 44.5q-127 0 -193 -66z" />
    <glyph glyph-name="uni2087" unicode="&#x2087;" horiz-adv-x="557" 
d="M70 459q-6 9 -6 23.5t6 23.5h417q5 -14 5 -41q0 -81 -27.5 -145.5t-66 -111.5t-77.5 -97t-66.5 -127.5t-27.5 -176.5q-12 -4 -26 -4q-17 0 -25 4q0 77 14.5 141t38 109t51.5 84t56 73.5t51.5 69t38 79t14.5 96.5h-370z" />
    <glyph glyph-name="uni2088" unicode="&#x2088;" horiz-adv-x="655" 
d="M328 516q101 0 157 -43.5t56 -124.5q0 -121 -123 -190q70 -32 108.5 -73.5t38.5 -107.5q0 -86 -62.5 -135t-172.5 -49q-108 0 -174 47.5t-66 136.5q0 133 143 213q-57 29 -87.5 67t-30.5 95q0 75 54.5 119.5t158.5 44.5zM326 473q-76 0 -119 -31.5t-43 -85.5q0 -17 3 -32
t12 -28t16 -23t23.5 -21t25 -17t31 -16.5t31.5 -14.5t35 -14.5t34 -13.5q117 74 117 170q0 61 -43 94t-123 33zM332 -164q81 0 132.5 35.5t51.5 101.5q0 24 -7 44.5t-22 37t-30 28.5t-40.5 25t-43.5 21t-49.5 21t-47.5 20q-137 -76 -137 -190q0 -144 193 -144z" />
    <glyph glyph-name="uni2089" unicode="&#x2089;" horiz-adv-x="626" 
d="M485 154q-80 -56 -194 -56q-101 0 -158 55.5t-57 147.5q0 104 65.5 159.5t157.5 55.5q116 0 177 -78.5t61 -230.5q0 -107 -38.5 -192.5t-126 -145t-214.5 -72.5q-15 19 -4 41q150 22 235 103.5t96 212.5zM487 209q-3 264 -188 264q-77 0 -124.5 -46.5t-47.5 -125.5
q0 -69 44.5 -113.5t123.5 -44.5q126 0 192 66z" />
    <glyph glyph-name="Euro" unicode="&#x20ac;" horiz-adv-x="1202" 
d="M362 498q14 -129 48 -219t88.5 -141.5t121.5 -74t154 -22.5q79 0 150.5 12.5t103.5 25.5l31 13q12 -4 18 -20q4 -8 5 -15t0 -11l-1 -3q-11 -7 -34 -17.5t-105 -28t-178 -17.5q-210 0 -326 127.5t-145 390.5h-168q-1 1 -1.5 3t-1.5 9t1 16q2 10 5 17.5t5 9.5l2 2h154
q-4 82 -4 131q0 88 4 137h-164q-1 1 -1.5 3t-1.5 9.5t1 16.5q2 10 5 17.5t5 9.5l2 2h160q29 257 145 384.5t324 127.5q92 0 166.5 -15.5t102.5 -31.5l28 -15q4 -12 -4 -28q-4 -7 -8.5 -12.5t-7.5 -6.5l-3 -2q-11 6 -32 14.5t-90 22.5t-142 14q-175 0 -278 -103.5
t-131 -348.5h571q0 -1 0.5 -2.5t1.5 -8.5t0 -18q-2 -10 -5 -17.5t-5 -9.5l-2 -2h-568q-4 -86 -4 -139q0 -90 4 -129h494q1 0 1.5 -1.5t1.5 -8.5t-1 -19q-2 -10 -5 -17t-5 -9l-2 -2h-480z" />
    <glyph glyph-name="uni2113" unicode="&#x2113;" horiz-adv-x="923" 
d="M102 393q-25 20 -22 51q83 39 184 107v518q0 257 65.5 362t227.5 105q130 0 196 -81.5t66 -223.5q0 -188 -135.5 -378t-355.5 -337v-237q0 -131 46 -184.5t146 -53.5q40 0 82.5 12t75 29.5t59 34.5t40.5 29l14 12q12 0 23.5 -11t12.5 -24q-5 -6 -14 -15.5t-41 -34
t-67 -43.5t-89.5 -34.5t-111.5 -15.5q-141 0 -190.5 91t-49.5 308v102q-108 -62 -162 -88zM328 586q422 318 422 643q0 248 -189 248q-116 0 -174.5 -68t-58.5 -233v-590z" />
    <glyph glyph-name="uni2117" unicode="&#x2117;" horiz-adv-x="1656" 
d="M829 10q-186 0 -344 92t-250 250t-92 344t92 343.5t249.5 249t344.5 91.5q186 0 343.5 -91.5t249 -249t91.5 -343.5q0 -187 -91.5 -344.5t-249 -249.5t-343.5 -92zM829 1323q-127 0 -243.5 -49.5t-200.5 -133.5t-134 -200.5t-50 -243.5t50 -243.5t134 -200.5t200.5 -134
t243.5 -50t243.5 50t200.5 134t133.5 200.5t49.5 243.5q0 170 -84 314.5t-228.5 228.5t-314.5 84zM680 289q-12 -6 -31 -6q-16 0 -28 6v782h276q121 0 193.5 -72t72.5 -190q0 -120 -72.5 -192t-193.5 -72h-217v-256zM891 600q96 0 152.5 53.5t56.5 155.5q0 99 -56.5 153
t-152.5 54h-211v-416h211z" />
    <glyph glyph-name="trademark" unicode="&#x2122;" horiz-adv-x="1302" 
d="M516 1475q13 -20 0 -43h-184v-541q-7 -6 -23 -6q-6 0 -11 1.5t-7 3.5l-2 1v541h-189q-11 26 0 43h416zM891 1049q-7 -7 -23 -7q-7 0 -12.5 2t-7.5 4l-2 1l-178 356v-514q-7 -6 -19 -6q-5 0 -9.5 1.5t-6.5 3.5l-2 1v577q6 7 24 7q5 0 9.5 -0.5t7 -1.5t4.5 -2.5t3 -2.5h1
l190 -378l197 378q7 7 25 7q8 0 14 -1.5t8 -3.5l2 -2v-577q-6 -6 -18 -6q-6 0 -11.5 1.5t-7.5 3.5l-2 1v514z" />
    <glyph glyph-name="uni2126" unicode="&#x2126;" horiz-adv-x="1458" 
d="M854 0q-8 13 -8 35q0 24 8 37q41 34 78.5 71t93 107t95.5 143t69 176t29 209q0 319 -131 487.5t-359 168.5t-358.5 -168.5t-130.5 -487.5q0 -106 29 -208.5t68.5 -176t95 -143.5t93 -107t78.5 -71q8 -13 8 -35q0 -24 -8 -37h-465q-8 16 -8 33q0 20 8 33h367
q-16 12 -42.5 36t-83 92t-100.5 145t-79 195.5t-35 243.5q0 185 41 324t116.5 224t177 127t228.5 42t228.5 -42t177 -127t116.5 -224t41 -324q0 -125 -35 -243.5t-79.5 -195.5t-101.5 -145t-83.5 -92t-42.5 -36h369q8 -13 8 -33q0 -17 -8 -33h-465z" />
    <glyph glyph-name="estimated" unicode="&#x212e;" horiz-adv-x="1693" 
d="M1384 195q-203 -215 -520 -215q-146 0 -279.5 57t-230 153.5t-154 230t-57.5 279.5t57.5 279.5t154 230t230 154t279.5 57.5t279.5 -57.5t230 -154t154 -230t57.5 -279.5v-49h-1114v-446q184 -137 393 -137q202 0 383 127h137zM1257 1194q-171 139 -393 139
q-217 0 -393 -137v-455h786v453z" />
    <glyph glyph-name="uni2153" unicode="&#x2153;" horiz-adv-x="1441" 
d="M1040 1432q9 6 27 6q5 0 9.5 -0.5t7 -1.5t4.5 -2t3 -2h1l-795 -1448q-9 -4 -27 -4l-26 4zM86 1257q67 18 134 61t108 89q8 4 24 4q19 0 23 -4v-694q-8 -4 -23 -4q-16 0 -24 4v544q0 59 2 84q-97 -88 -234 -124q-17 14 -10 40zM1325 188q0 -198 -266 -198q-44 0 -87.5 6.5
t-65.5 13.5l-21 6q-4 25 12 37q72 -20 160 -20q67 0 113 12.5t67.5 36t30 48.5t8.5 58q0 81 -50 119.5t-132 38.5h-88q-11 22 0 45h88q76 0 116.5 37t40.5 102q0 67 -44.5 102.5t-127.5 35.5q-43 0 -84.5 -5t-61.5 -9l-20 -5q-13 17 -10 39q72 25 176 25q109 0 165 -47
t56 -134q0 -60 -23 -98t-75 -63q61 -24 92 -64.5t31 -118.5z" />
    <glyph glyph-name="uni2154" unicode="&#x2154;" horiz-adv-x="1572" 
d="M1174 1432q8 6 26 6q5 0 9.5 -0.5t7 -1.5t4.5 -2t3 -2h1l-795 -1448q-9 -4 -27 -4l-26 4zM115 793q0 65 29.5 114t73 75.5t95 53t95 48t73 60t29.5 89.5q0 62 -42 102.5t-142 40.5q-35 0 -73.5 -5t-59.5 -10l-21 -5q-13 20 -10 41q68 24 170 24q120 0 173.5 -50
t53.5 -134q0 -55 -23.5 -97.5t-61 -68.5t-82 -48t-88 -44.5t-77.5 -50t-52 -71t-11 -101.5h391q6 -9 6 -25q0 -13 -6 -22h-432q-8 37 -8 84zM1458 188q0 -198 -266 -198q-44 0 -87.5 6.5t-64.5 13.5l-22 6q-4 25 12 37q72 -20 160 -20q67 0 113 12.5t67.5 36t30 48.5t8.5 58
q0 81 -50 119.5t-132 38.5h-88q-11 22 0 45h88q76 0 116.5 37t40.5 102q0 67 -44.5 102.5t-127.5 35.5q-43 0 -84 -5t-61 -9l-20 -5q-14 18 -11 39q72 25 176 25q109 0 165.5 -47t56.5 -134q0 -60 -23.5 -98t-75.5 -63q61 -24 92 -64.5t31 -118.5z" />
    <glyph glyph-name="oneeighth" unicode="&#x215b;" horiz-adv-x="1439" 
d="M1040 1432q9 6 27 6q5 0 9.5 -0.5t7 -1.5t4.5 -2t3 -2h1l-795 -1448q-9 -4 -27 -4l-26 4zM86 1257q67 18 134 61t108 89q8 4 24 4q19 0 23 -4v-694q-8 -4 -23 -4q-16 0 -24 4v544q0 59 2 84q-97 -88 -234 -124q-17 14 -10 40zM1087 713q101 0 157 -43.5t56 -124.5
q0 -123 -122 -191q70 -32 108.5 -73t38.5 -107q0 -86 -62.5 -135t-172.5 -49q-108 0 -174 47.5t-66 136.5q0 133 143 213q-57 29 -88 67t-31 95q0 75 54.5 119.5t158.5 44.5zM1085 670q-76 0 -118.5 -31.5t-42.5 -85.5q0 -17 3 -32t12 -28t16 -23t23.5 -21t25 -17t31 -16.5
t31.5 -14.5t35 -14.5t34 -13.5q116 73 116 170q0 61 -43 94t-123 33zM1092 33q81 0 132.5 35.5t51.5 101.5q0 24 -7 44.5t-22 37t-30 28.5t-40.5 25t-43.5 21t-49.5 21t-47.5 20q-137 -76 -137 -191q0 -143 193 -143z" />
    <glyph glyph-name="threeeighths" unicode="&#x215c;" horiz-adv-x="1536" 
d="M1139 1432q8 6 26 6q5 0 9.5 -0.5t7 -1.5t4.5 -2t3 -2h1l-795 -1448q-8 -4 -26 -4l-27 4zM563 897q0 -199 -266 -199q-44 0 -87.5 7t-65.5 13l-21 7q-4 25 12 37q72 -21 160 -21q67 0 113 13t67.5 36.5t30 48.5t8.5 58q0 81 -50 119.5t-132 38.5h-88q-11 23 0 45h88
q76 0 116.5 37t40.5 102q0 67 -44 102t-128 35q-43 0 -84 -4.5t-61 -9.5l-20 -4q-14 18 -11 39q72 24 176 24q109 0 165.5 -46.5t56.5 -133.5q0 -60 -23.5 -98.5t-75.5 -63.5q61 -24 92 -64t31 -118zM1186 713q101 0 157 -43.5t56 -124.5q0 -122 -123 -191q70 -32 108.5 -73
t38.5 -107q0 -86 -62.5 -135t-172.5 -49q-108 0 -174 47.5t-66 136.5q0 133 144 213q-57 29 -88 67t-31 95q0 75 54.5 119.5t158.5 44.5zM1184 670q-76 0 -119 -31.5t-43 -85.5q0 -17 3 -32t12 -28t16 -23t23.5 -21t25 -17t31 -16.5t31.5 -14.5t35 -14.5t34 -13.5
q117 74 117 170q0 61 -43 94t-123 33zM1190 33q81 0 132.5 35.5t51.5 101.5q0 28 -11 51.5t-25 39t-43.5 33t-47 25.5t-57.5 24.5t-55 23.5q-138 -77 -138 -191q0 -143 193 -143z" />
    <glyph glyph-name="fiveeighths" unicode="&#x215d;" horiz-adv-x="1525" 
d="M1128 1432q9 6 27 6q5 0 9.5 -0.5t7 -1.5t4.5 -2t3 -2h1l-795 -1448q-9 -4 -27 -4l-26 4zM217 1122q171 0 256.5 -46.5t85.5 -168.5q0 -106 -69.5 -157.5t-196.5 -51.5q-44 0 -87.5 7t-65.5 13l-21 7q-4 25 12 39q74 -21 160 -21q116 0 166.5 41t50.5 121q0 97 -67 133.5
t-220 36.5h-53v336h352q4 -9 4 -23.5t-4 -23.5h-303v-242zM1176 713q101 0 157 -43.5t56 -124.5q0 -122 -123 -191q70 -32 108.5 -73t38.5 -107q0 -86 -62.5 -135t-172.5 -49q-108 0 -174 47.5t-66 136.5q0 133 143 213q-57 29 -87.5 67t-30.5 95q0 75 54.5 119.5
t158.5 44.5zM1174 670q-76 0 -119 -31.5t-43 -85.5q0 -17 3 -32t12 -28t16 -23t23.5 -21t25 -17t31 -16.5t31.5 -14.5t35 -14.5t34 -13.5q116 73 116 170q0 61 -42.5 94t-122.5 33zM1180 33q81 0 132.5 35.5t51.5 101.5q0 24 -7 44.5t-22 37t-30 28.5t-40.5 25t-43.5 21
t-49.5 21t-47.5 20q-137 -76 -137 -191q0 -143 193 -143z" />
    <glyph glyph-name="seveneighths" unicode="&#x215e;" horiz-adv-x="1345" 
d="M948 1432q9 6 27 6q8 0 14 -1.5t8 -2.5l2 -2l-794 -1448q-9 -4 -27 -4l-26 4zM117 1364q-6 9 -6 23.5t6 23.5h418q4 -14 4 -41q0 -81 -27.5 -145.5t-66.5 -111.5t-77.5 -96.5t-66 -127t-27.5 -176.5q-12 -4 -26 -4q-17 0 -25 4q0 76 14.5 140t38 108.5t51.5 84t56 73.5
t51.5 69t38 79.5t14.5 96.5h-370zM995 713q101 0 157 -43.5t56 -124.5q0 -122 -123 -191q70 -33 109 -73.5t39 -106.5q0 -86 -63 -135t-173 -49q-108 0 -173.5 47.5t-65.5 136.5q0 133 143 213q-57 29 -88 67t-31 95q0 75 54.5 119.5t158.5 44.5zM993 670q-76 0 -119 -31.5
t-43 -85.5q0 -17 3 -32t12 -28t16 -23t23.5 -21t25 -17t31 -16.5t31.5 -14.5t35 -14.5t34 -13.5q117 74 117 170q0 61 -43 94t-123 33zM999 33q81 0 133 35.5t52 101.5q0 24 -7 44.5t-22 37t-30 28.5t-40.5 25t-43.5 21t-49.5 21t-47.5 20q-137 -76 -137 -191
q0 -143 192 -143z" />
    <glyph glyph-name="arrowleft" unicode="&#x2190;" horiz-adv-x="1273" 
d="M520 1130q33 -12 41 -40l-344 -342h932q4 -11 4 -31l-4 -31h-932l344 -344q-4 -13 -16.5 -24.5t-24.5 -14.5l-414 414z" />
    <glyph glyph-name="arrowup" unicode="&#x2191;" horiz-adv-x="1011" 
d="M920 825q-3 -12 -14.5 -24.5t-24.5 -16.5l-344 344v-931q-11 -4 -31 -4l-31 4v931l-342 -344q-29 9 -41 41l414 414z" />
    <glyph glyph-name="arrowright" unicode="&#x2192;" horiz-adv-x="1273" 
d="M754 303q-12 3 -24.5 14.5t-16.5 24.5l344 344h-932q-4 11 -4 31l4 31h932l-344 342q8 28 41 40l413 -413z" />
    <glyph glyph-name="arrowdown" unicode="&#x2193;" horiz-adv-x="1011" 
d="M92 606q12 32 41 41l342 -344v932q11 4 31 4l31 -4v-932l344 344q13 -4 24.5 -16.5t14.5 -24.5l-414 -413z" />
    <glyph glyph-name="uni2196" unicode="&#x2196;" horiz-adv-x="1048" 
d="M756 1085q6 -12 6 -28q0 -17 -6 -29h-486l660 -657q-7 -11 -21 -25l-24 -20l-658 659v-485q-12 -6 -28 -6q-17 0 -29 6v585h586z" />
    <glyph glyph-name="uni2197" unicode="&#x2197;" horiz-adv-x="1048" 
d="M879 500q-12 -6 -29 -6t-29 6v485l-657 -659q-11 6 -25 20l-20 25l659 657h-485q-6 12 -6 29q0 16 6 28h586v-585z" />
    <glyph glyph-name="uni2198" unicode="&#x2198;" horiz-adv-x="1038" 
d="M274 299q-6 12 -6 29q0 16 6 28h486l-660 658q7 10 21 24l24 21l658 -660v486q12 6 28 6q17 0 29 -6v-586h-586z" />
    <glyph glyph-name="uni2199" unicode="&#x2199;" horiz-adv-x="1038" 
d="M178 887q12 6 29 6t29 -6v-486l657 660q15 -3 29 -17q6 -6 10 -13t5 -11l1 -4l-659 -658h485q6 -12 6 -28q0 -17 -6 -29h-586v586z" />
    <glyph glyph-name="partialdiff" unicode="&#x2202;" horiz-adv-x="1132" 
d="M907 844q-43 243 -201 416t-411 221q-7 34 14 55q316 -62 498 -294t182 -613q0 -182 -28.5 -309t-86 -201t-135 -106.5t-184.5 -32.5q-420 0 -420 536q0 276 106.5 406.5t295.5 130.5q135 0 228.5 -55.5t141.5 -153.5zM555 39q81 0 143.5 24.5t111 78.5t74 148t25.5 226
q0 134 -27 228.5t-78 147.5t-115.5 76t-149.5 23q-81 0 -140 -24t-104 -78t-67.5 -147.5t-22.5 -225.5t25 -226t73 -148t109.5 -78.5t142.5 -24.5z" />
    <glyph glyph-name="uni2206" unicode="&#x2206;" horiz-adv-x="1316" 
d="M96 0q-23 17 -30 49l561 1419q10 7 37 7q12 0 21 -1.5t12 -3.5l3 -2l551 -1419q-9 -31 -30 -49h-1125zM1176 66q-165 415 -383 974l-76 195q-18 44 -31.5 85t-17.5 60l-4 19h-5q-10 -57 -53 -166l-78 -195l-387 -972h1035z" />
    <glyph glyph-name="product" unicode="&#x220f;" horiz-adv-x="1443" 
d="M1221 -418q-8 -6 -37 -6q-11 0 -19.5 1.5t-10.5 2.5l-3 2v1772h-858v-1772q-8 -6 -37 -6q-11 0 -19.5 1.5t-10.5 2.5l-3 2v1837h998v-1837z" />
    <glyph glyph-name="summation" unicode="&#x2211;" horiz-adv-x="1165" 
d="M84 -381l465 916l-430 854v32h936q6 -9 6 -32q0 -10 -1.5 -18.5t-3.5 -11.5l-1 -3h-842l414 -821l-451 -893h891q6 -10 6 -33q0 -10 -1.5 -18.5t-3.5 -11.5l-1 -3h-983v43z" />
    <glyph glyph-name="minus" unicode="&#x2212;" horiz-adv-x="946" 
d="M186 641q-6 8 -6 35q0 8 0.5 14t1.5 10t2 6.5t2 3.5v1h574q6 -8 6 -35q0 -8 -0.5 -14t-1.5 -10t-2 -6.5t-2 -3.5v-1h-574z" />
    <glyph glyph-name="uni2215" unicode="&#x2215;" horiz-adv-x="956" 
d="M838 1432q11 6 36 6q10 0 19 -1.5t13 -2.5l3 -2l-796 -1444q-12 -8 -37 -8q-11 0 -19.5 2t-10.5 4l-3 2z" />
    <glyph glyph-name="uni2219" unicode="&#x2219;" horiz-adv-x="442" 
d="M221 639q-20 0 -34.5 13t-14.5 36t14.5 36t34.5 13t34.5 -13t14.5 -36t-14.5 -36t-34.5 -13z" />
    <glyph glyph-name="radical" unicode="&#x221a;" horiz-adv-x="1280" 
d="M649 -31l-321 793l-226 -96q-27 17 -24 59l287 123l317 -782l477 1429q40 7 60 -16l-502 -1510h-68z" />
    <glyph glyph-name="infinity" unicode="&#x221e;" horiz-adv-x="1695" 
d="M1210 332q-77 0 -142.5 28t-104 67.5t-66.5 79t-39 67.5l-10 28q-2 -6 -5.5 -15.5t-18.5 -37.5t-32.5 -53.5t-48.5 -56.5t-66 -53.5t-85.5 -38t-106.5 -15.5q-86 0 -153.5 28.5t-107.5 76.5t-60.5 106.5t-20.5 122.5t20.5 122.5t60.5 106t107.5 76t153.5 28.5
q56 0 106 -15t86 -39t66 -53t49 -58t32 -53t18 -39l6 -15q4 11 13 29.5t41.5 65.5t70.5 82.5t102 65t135 29.5q86 0 153.5 -28.5t107.5 -76t60.5 -106t20.5 -122.5t-20.5 -122.5t-60.5 -106.5t-107.5 -76.5t-153.5 -28.5zM483 391q68 0 126.5 28.5t93.5 68.5t60 80.5
t35 69.5l9 28q-2 6 -5 15.5t-16.5 38t-29.5 54.5t-43.5 57.5t-58.5 54.5t-76 38.5t-95 15.5q-60 0 -108 -16.5t-79 -43t-51.5 -62.5t-29 -73.5t-8.5 -78.5q0 -51 14.5 -97.5t45 -87.5t86.5 -65.5t130 -24.5zM1212 940q-50 0 -94.5 -15t-76.5 -39.5t-58.5 -53.5t-43.5 -58
t-28.5 -53.5t-16.5 -39.5l-5 -15q2 -6 5 -16t16 -38.5t29 -54.5t43.5 -57.5t58.5 -54.5t76 -38.5t95 -15.5q74 0 130 24.5t87 65.5t45.5 87.5t14.5 97.5q0 40 -8.5 78t-29.5 74t-52 62.5t-79 43t-108 16.5z" />
    <glyph glyph-name="integral" unicode="&#x222b;" horiz-adv-x="1032" 
d="M485 1188q0 139 64.5 214t187.5 75q131 0 250 -68q-3 -31 -29 -45q-105 55 -213 55q-196 0 -196 -227v-1296q0 -82 -21.5 -140t-60.5 -89t-83.5 -44.5t-98.5 -13.5q-119 0 -238 72q3 32 29 45q103 -60 215 -60q194 0 194 230v1292z" />
    <glyph glyph-name="approxequal" unicode="&#x2248;" horiz-adv-x="1103" 
d="M385 766q-44 0 -84 -18.5t-58 -37.5l-18 -18q-38 6 -45 45q3 4 8 10.5t24.5 23t42 29.5t60 23.5t78.5 10.5q45 0 89 -16.5t74 -36t73 -36t86 -16.5q44 0 83.5 18.5t57.5 36.5l18 19q38 -6 50 -41q-2 -4 -7.5 -11t-24 -24t-41.5 -30t-61.5 -24t-82.5 -11q-45 0 -89 16
t-74 36t-73 36t-86 16zM385 440q-27 0 -54 -7.5t-45 -18t-32.5 -21.5t-21.5 -19l-7 -7q-38 6 -45 45q3 4 8 10.5t24.5 23t42 29t60 23t78.5 10.5q45 0 89 -16.5t74 -36t73 -36t86 -16.5q44 0 83.5 18.5t57.5 36.5l18 19q38 -6 50 -41q-2 -4 -7.5 -11t-24 -24t-41.5 -30
t-61.5 -24t-82.5 -11q-45 0 -89 16t-74 36t-73 36t-86 16z" />
    <glyph glyph-name="notequal" unicode="&#x2260;" horiz-adv-x="935" 
d="M270 193q-12 -7 -37 -7q-7 0 -14.5 2t-11.5 4l-4 1l110 200h-182q-6 6 -6 31q0 10 1.5 18t3.5 10l1 3h215l154 278h-369q-6 8 -6 31q0 10 1.5 18t3.5 10l1 3h404l102 184q15 6 35 6l33 -6l-103 -184h201q6 -8 6 -31q0 -10 -1.5 -18t-3.5 -10l-1 -3h-234l-155 -278h389
q6 -8 6 -31q0 -10 -1.5 -18t-3.5 -10l-1 -3h-422z" />
    <glyph glyph-name="lessequal" unicode="&#x2264;" horiz-adv-x="964" 
d="M186 713q-6 16 -6 45q0 12 1.5 23t2.5 15l2 5l590 241q6 -7 6 -32q0 -11 -1.5 -20t-2.5 -12l-2 -3l-532 -219l532 -213q6 -12 6 -37q0 -10 -1.5 -19t-2.5 -13l-2 -3zM186 262q-6 6 -6 31q0 10 1.5 18t2.5 11l2 2h590q6 -8 6 -31q0 -10 -1.5 -18t-2.5 -11l-2 -2h-590z" />
    <glyph glyph-name="greaterequal" unicode="&#x2265;" horiz-adv-x="966" 
d="M190 471q-6 12 -6 35q0 11 1.5 20.5t2.5 13.5l2 3l533 213l-533 219q-6 10 -6 35q0 11 1.5 19t2.5 11l2 2l590 -241q6 -16 6 -43q0 -13 -1.5 -24t-2.5 -16l-2 -5zM190 262q-6 8 -6 31q0 10 1.5 18t2.5 11l2 2h590q6 -8 6 -31q0 -7 -0.5 -13t-1.5 -9t-2 -5t-2 -3v-1h-590z
" />
    <glyph glyph-name="lozenge" unicode="&#x25ca;" horiz-adv-x="1114" 
d="M543 14l-428 707l428 704h30l435 -704l-435 -707h-30zM932 719l-373 612l-366 -612l366 -613z" />
    <glyph glyph-name="commaaccent" unicode="&#xf6c3;" horiz-adv-x="0" 
d="M-281 -168q6 6 16 18.5t29 56.5t23 93q-11 0 -20.5 1.5t-12.5 2.5l-4 2v86q16 6 49 6q15 0 27 -1.5t17 -2.5l5 -2v-65q0 -40 -10 -77.5t-24 -62t-28 -43.5t-24 -28l-10 -9z" />
    <glyph glyph-name="CR" horiz-adv-x="659" 
 />
    <glyph glyph-name="_0020" horiz-adv-x="0" 
 />
    <glyph glyph-name="_375" horiz-adv-x="1323" 
d="M100 0q-23 17 -30 49l561 1419q10 7 37 7q12 0 21 -1.5t13 -3.5l3 -2l550 -1419q-9 -31 -30 -49h-1125zM1180 66q-165 415 -383 974l-76 195q-18 44 -31.5 85t-17.5 60l-4 19h-4q-11 -57 -54 -166l-78 -195l-387 -972h1035z" />
    <glyph glyph-name="_376" horiz-adv-x="1433" 
d="M840 0q-9 15 -9 35q0 22 9 37q41 34 78.5 71t93 107t95 143.5t68.5 176t29 208.5q0 319 -130.5 487.5t-358.5 168.5t-359 -168.5t-131 -487.5q0 -106 29 -209t69 -176t95.5 -143t93 -107t78.5 -71q8 -13 8 -35q0 -24 -8 -37h-465q-8 16 -8 33q0 20 8 33h367
q-16 12 -42.5 36t-83 92t-100.5 145t-79 195.5t-35 243.5q0 185 41 324t116.5 224t177 127t228.5 42t228.5 -42t177 -127t116.5 -224t41 -324q0 -125 -35 -243.5t-79.5 -195.5t-101.5 -145t-83.5 -92t-42.5 -36h369q8 -13 8 -33q0 -17 -8 -33h-465z" />
    <glyph glyph-name="commaaccent.alt" horiz-adv-x="0" 
d="M-100 1450q-7 -6 -17 -18.5t-29.5 -56.5t-23.5 -93l39 -6v-86q-16 -6 -49 -6q-15 0 -27 1.5t-17 2.5l-5 2v65q0 40 10 77.5t24 62t28 43.5t24 28l10 9z" />
    <glyph glyph-name="eight.denom" horiz-adv-x="655" 
d="M328 713q101 0 157 -43.5t56 -124.5q0 -122 -123 -191q70 -32 108.5 -73t38.5 -107q0 -86 -62.5 -135t-172.5 -49q-108 0 -174 47.5t-66 136.5q0 133 143 213q-57 29 -87.5 67t-30.5 95q0 75 54.5 119.5t158.5 44.5zM326 670q-76 0 -119 -31.5t-43 -85.5q0 -17 3 -32
t12 -28t16 -23t23.5 -21t25 -17t31 -16.5t31.5 -14.5t35 -14.5t34 -13.5q117 74 117 170q0 61 -43 94t-123 33zM332 33q81 0 132.5 35.5t51.5 101.5q0 24 -7 44.5t-22 37t-30 28.5t-40.5 25t-43.5 21t-49.5 21t-47.5 20q-137 -76 -137 -191q0 -143 193 -143z" />
    <glyph glyph-name="eight.num" horiz-adv-x="655" 
d="M328 1421q101 0 157 -43.5t56 -124.5q0 -121 -123 -190q70 -32 108.5 -73t38.5 -107q0 -86 -62.5 -135.5t-172.5 -49.5q-108 0 -174 48t-66 137q0 133 143 213q-57 29 -87.5 66.5t-30.5 94.5q0 75 54.5 119.5t158.5 44.5zM326 1378q-76 0 -119 -31t-43 -85q0 -17 3 -32
t12.5 -28.5t15.5 -23t23.5 -21t25 -17.5t31.5 -16.5t31 -14t35.5 -15t33.5 -13.5q117 74 117 170q0 61 -43 94t-123 33zM332 741q80 0 132 36t52 102q0 28 -11 51.5t-25 39t-43 32.5t-48 25.5t-57.5 24.5t-55.5 23q-137 -76 -137 -190q0 -144 193 -144z" />
    <glyph glyph-name="five.denom" horiz-adv-x="604" 
d="M180 414q171 0 256.5 -46.5t85.5 -168.5q0 -106 -69.5 -157.5t-196.5 -51.5q-44 0 -87.5 6.5t-64.5 13.5l-22 6q-4 25 12 39q74 -20 160 -20q116 0 166.5 41t50.5 121q0 97 -67 133.5t-220 36.5h-53v335h352q5 -9 5 -23.5t-5 -23.5h-303v-241z" />
    <glyph glyph-name="five.num" horiz-adv-x="606" 
d="M180 1122q171 0 256.5 -46.5t85.5 -168.5q0 -106 -69.5 -157.5t-196.5 -51.5q-44 0 -87.5 7t-64.5 13l-22 7q-4 25 12 39q74 -21 160 -21q116 0 166.5 41t50.5 121q0 97 -67 133.5t-220 36.5h-53v336h352q5 -9 5 -23.5t-5 -23.5h-303v-242z" />
    <glyph glyph-name="four.denom" horiz-adv-x="655" 
d="M582 246q4 -9 4 -23l-4 -24h-88v-195q-7 -4 -23 -4l-25 4v195h-376q-4 4 -4 14l4 16l374 469q7 4 25 4l25 -4v-452h88zM446 629l-307 -383h307v383z" />
    <glyph glyph-name="four.num" horiz-adv-x="655" 
d="M582 954q4 -8 4 -22l-4 -25h-88v-194q-7 -4 -23 -4l-25 4v194h-376q-4 5 -4 15l4 16l374 469q7 4 25 4l25 -4v-453h88zM446 1337l-307 -383h307v383z" />
    <glyph glyph-name="g.alt" horiz-adv-x="1134" 
d="M883 180q-99 -200 -342 -200q-97 0 -169 29t-126 93t-81.5 173.5t-27.5 263.5t27.5 263.5t81.5 173.5t126 93t169 29q241 0 342 -203v176q7 6 32 6q11 0 19.5 -1.5t11.5 -3.5l2 -1v-1018q0 -116 -11.5 -202t-40 -156.5t-76 -115t-119 -68t-169.5 -23.5q-72 0 -136.5 12
t-93.5 24l-28 13q-3 37 23 55q104 -38 235 -38q89 0 150.5 22.5t108.5 77.5t69.5 154t22.5 245v127zM207 539q0 -264 81 -381t269 -117q69 0 125.5 25t92 63t60.5 87.5t36 95t12 87.5v279q-1 42 -11.5 87.5t-35.5 95t-60.5 87.5t-92.5 63t-126 25q-188 0 -269 -116.5
t-81 -380.5z" />
    <glyph glyph-name="gbreve.alt" horiz-adv-x="1134" 
d="M850 1409q-4 -5 -11 -12t-32 -26.5t-53.5 -34t-74.5 -26.5t-95 -12t-95 11.5t-75.5 28t-52.5 32.5t-33 28l-11 11q9 29 37 39q4 -4 11 -9.5t30.5 -21t48.5 -27t63.5 -21t76.5 -9.5q61 0 118 22t84 44l27 22q18 -4 26 -12.5t11 -26.5zM883 180q-99 -200 -342 -200
q-97 0 -169 29t-126 93t-81.5 173.5t-27.5 263.5t27.5 263.5t81.5 173.5t126 93t169 29q241 0 342 -203v176q7 6 32 6q11 0 19.5 -1.5t11.5 -3.5l2 -1v-1018q0 -116 -11.5 -202t-40 -156.5t-76 -115t-119 -68t-169.5 -23.5q-72 0 -136.5 12t-93.5 24l-28 13q-3 37 23 55
q104 -38 235 -38q89 0 150.5 22.5t108.5 77.5t69.5 154t22.5 245v127zM207 539q0 -264 81 -381t269 -117q69 0 125.5 25t92 63t60.5 87.5t36 95t12 87.5v279q-1 42 -11.5 87.5t-35.5 95t-60.5 87.5t-92.5 63t-126 25q-188 0 -269 -116.5t-81 -380.5z" />
    <glyph glyph-name="gcircumflex.alt" horiz-adv-x="1134" 
d="M840 1274q-7 -33 -33 -39l-242 180l-239 -182q-27 11 -33 41l248 203h51zM883 180q-99 -200 -342 -200q-97 0 -169 29t-126 93t-81.5 173.5t-27.5 263.5t27.5 263.5t81.5 173.5t126 93t169 29q241 0 342 -203v176q7 6 32 6q11 0 19.5 -1.5t11.5 -3.5l2 -1v-1018
q0 -116 -11.5 -202t-40 -156.5t-76 -115t-119 -68t-169.5 -23.5q-72 0 -136.5 12t-93.5 24l-28 13q-3 37 23 55q104 -38 235 -38q89 0 150.5 22.5t108.5 77.5t69.5 154t22.5 245v127zM207 539q0 -264 81 -381t269 -117q69 0 125.5 25t92 63t60.5 87.5t36 95t12 87.5v279
q-1 42 -11.5 87.5t-35.5 95t-60.5 87.5t-92.5 63t-126 25q-188 0 -269 -116.5t-81 -380.5z" />
    <glyph glyph-name="gcommaaccent.alt" horiz-adv-x="1134" 
d="M612 1499q-6 -6 -16 -18.5t-28.5 -56.5t-22.5 -93q11 0 20.5 -1.5t12.5 -3.5l4 -1v-86q-17 -6 -50 -6q-15 0 -27 1.5t-17 3.5l-5 1v66q0 64 24.5 118.5t48.5 77.5l24 23zM883 180q-99 -200 -342 -200q-97 0 -169 29t-126 93t-81.5 173.5t-27.5 263.5t27.5 263.5
t81.5 173.5t126 93t169 29q241 0 342 -203v176q7 6 32 6q11 0 19.5 -1.5t11.5 -3.5l2 -1v-1018q0 -116 -11.5 -202t-40 -156.5t-76 -115t-119 -68t-169.5 -23.5q-72 0 -136.5 12t-93.5 24l-28 13q-3 37 23 55q104 -38 235 -38q89 0 150.5 22.5t108.5 77.5t69.5 154t22.5 245
v127zM207 539q0 -264 81 -381t269 -117q69 0 125.5 25t92 63t60.5 87.5t36 95t12 87.5v279q-1 42 -11.5 87.5t-35.5 95t-60.5 87.5t-92.5 63t-126 25q-188 0 -269 -116.5t-81 -380.5z" />
    <glyph glyph-name="gdotaccent.alt" horiz-adv-x="1134" 
d="M602 1298q-16 -6 -49 -6q-15 0 -27 1.5t-17 2.5l-5 2v86q16 7 49 7q15 0 27 -1.5t17 -3.5l5 -2v-86zM883 180q-99 -200 -342 -200q-97 0 -169 29t-126 93t-81.5 173.5t-27.5 263.5t27.5 263.5t81.5 173.5t126 93t169 29q241 0 342 -203v176q7 6 32 6q11 0 19.5 -1.5
t11.5 -3.5l2 -1v-1018q0 -116 -11.5 -202t-40 -156.5t-76 -115t-119 -68t-169.5 -23.5q-72 0 -136.5 12t-93.5 24l-28 13q-3 37 23 55q104 -38 235 -38q89 0 150.5 22.5t108.5 77.5t69.5 154t22.5 245v127zM207 539q0 -264 81 -381t269 -117q69 0 125.5 25t92 63t60.5 87.5
t36 95t12 87.5v279q-1 42 -11.5 87.5t-35.5 95t-60.5 87.5t-92.5 63t-126 25q-188 0 -269 -116.5t-81 -380.5z" />
    <glyph glyph-name="nine.denom" horiz-adv-x="626" 
d="M485 350q-79 -55 -194 -55q-101 0 -158 55.5t-57 147.5q0 104 65.5 159.5t157.5 55.5q116 0 177 -79t61 -231q0 -79 -22.5 -147.5t-67.5 -124t-119 -91.5t-170 -46q-15 19 -4 41q150 22 235 103t96 212zM487 406q-3 264 -188 264q-77 0 -124.5 -46.5t-47.5 -125.5
q0 -69 44.5 -113.5t123.5 -44.5q126 0 192 66z" />
    <glyph glyph-name="nine.num" horiz-adv-x="626" 
d="M485 1059q-79 -55 -194 -55q-101 0 -158 55t-57 147q0 104 65.5 159.5t157.5 55.5q116 0 177 -78.5t61 -230.5q0 -107 -38.5 -192.5t-126 -145t-214.5 -72.5q-15 19 -4 41q150 22 235 103.5t96 212.5zM487 1114q-3 264 -188 264q-77 0 -124.5 -46.5t-47.5 -125.5
q0 -69 44.5 -113t123.5 -44q127 0 192 65z" />
    <glyph glyph-name="_368" horiz-adv-x="0" 
 />
    <glyph glyph-name="one.denom" horiz-adv-x="491" 
d="M68 549q67 18 133.5 60.5t107.5 88.5q8 4 25 4q18 0 22 -4v-694q-8 -4 -24 -4q-15 0 -23 4v545q0 59 2 84q-99 -89 -233 -125q-7 6 -10 18.5t0 22.5z" />
    <glyph glyph-name="one.num" horiz-adv-x="524" 
d="M68 1257q67 18 133.5 61t107.5 89q8 4 25 4q18 0 22 -4v-694q-8 -4 -22 -4q-17 0 -25 4v544q0 59 2 84q-98 -88 -233 -124q-17 14 -10 40z" />
    <glyph glyph-name="seven.denom" horiz-adv-x="559" 
d="M72 655q-6 7 -6 23q0 7 1.5 13t2.5 9l2 2h417q5 -13 5 -40q0 -81 -27.5 -145.5t-66 -111.5t-77.5 -97t-66.5 -127.5t-27.5 -176.5q-12 -4 -26 -4q-17 0 -25 4q0 77 14.5 141t38 108.5t51.5 83.5t56 73.5t51.5 69t38 79t14.5 96.5h-370z" />
    </font>
</defs>
</svg>
